0
SECTION
2
HEADER
9
$INSUNITS
70
4
9
$ACADVER
1
AC1014
9
$HANDSEED
5
FFFF
0
ENDSEC
0
SECTION
2
TABLES
0
TABLE
2
VPORT
5
8
100
AcDbSymbolTable
0
ENDTAB
0
TABLE
2
LTYPE
5
5
100
AcDbSymbolTable
0
LTYPE
5
14
100
AcDbSymbolTableRecord
100
AcDbLinetypeTableRecord
2
BYBLOCK
70
0
0
LTYPE
5
15
100
AcDbSymbolTableRecord
100
AcDbLinetypeTableRecord
2
BYLAYER
70
0
0
LTYPE
5
16
100
AcDbSymbolTableRecord
100
AcDbLinetypeTableRecord
2
DASHED
70
0
3
Dashed __ __ __ __ __ __ __ __ __ __ __ __ __ _
72
65
73
2
40
0.75
49
0.5
74
0
49
-0.25
74
0
0
ENDTAB
0
TABLE
2
LAYER
5
2
100
AcDbSymbolTable
70
2
0
LAYER
5
50
100
AcDbSymbolTableRecord
100
AcDbLayerTableRecord
2
0
70
0
62
7
6
CONTINUOUS
0
ENDTAB
0
TABLE
2
STYLE
5
3
100
AcDbSymbolTable
70
1
0
STYLE
5
11
100
AcDbSymbolTableRecord
100
AcDbTextStyleTableRecord
2
STANDARD
70
0
0
ENDTAB
0
TABLE
2
VIEW
5
6
100
AcDbSymbolTable
70
0
0
ENDTAB
0
TABLE
2
UCS
5
7
100
AcDbSymbolTable
70
0
0
ENDTAB
0
TABLE
2
APPID
5
9
100
AcDbSymbolTable
70
2
0
APPID
5
12
100
AcDbSymbolTableRecord
100
AcDbRegAppTableRecord
2
ACAD
70
0
0
ENDTAB
0
TABLE
2
DIMSTYLE
5
A
100
AcDbSymbolTable
70
1
0
ENDTAB
0
TABLE
2
BLOCK_RECORD
5
1
100
AcDbSymbolTable
70
1
0
BLOCK_RECORD
5
1F
100
AcDbSymbolTableRecord
100
AcDbBlockTableRecord
2
*MODEL_SPACE
0
BLOCK_RECORD
5
1B
100
AcDbSymbolTableRecord
100
AcDbBlockTableRecord
2
*PAPER_SPACE
0
ENDTAB
0
ENDSEC
0
SECTION
2
BLOCKS
0
BLOCK
5
20
100
AcDbEntity
100
AcDbBlockBegin
2
*MODEL_SPACE
0
ENDBLK
5
21
100
AcDbEntity
100
AcDbBlockEnd
0
BLOCK
5
1C
100
AcDbEntity
100
AcDbBlockBegin
2
*PAPER_SPACE
0
ENDBLK
5
1D
100
AcDbEntity
100
AcDbBlockEnd
0
ENDSEC
0
SECTION
2
ENTITIES
0
LWPOLYLINE
5
100
100
AcDbEntity
8
0
100
AcDbPolyline
90
4
70
1
43
0.0
10
-4.6199999999897425
20
3.7999965336333923
10
-4.619999999995259
20
4.6000024188548885
42
-0.99999893087470648
10
-4.0200000000000164
20
4.5999982226206813
10
-4.0200000000015095
20
3.8000028208224546
42
-0.99999892409443214
0
CIRCLE
5
101
100
AcDbEntity
8
0
100
AcDbCircle
10
-1.250000000000002
20
-7.5
30
0
40
0.45000000000000012
210
0
220
0
230
1
0
CIRCLE
5
102
100
AcDbEntity
8
0
100
AcDbCircle
10
-3.7500000000000022
20
-7.5
30
0
40
0.44999999999999979
210
0
220
0
230
1
0
CIRCLE
5
103
100
AcDbEntity
8
0
100
AcDbCircle
10
3.7499999999999978
20
-7.5
30
0
40
0.44999999999999979
210
0
220
0
230
1
0
LWPOLYLINE
5
104
100
AcDbEntity
8
0
100
AcDbPolyline
90
4
70
1
43
0.0
10
-4.0200000000004348
20
0.57000000000710249
42
0.99999999999999989
10
-4.6200000000050974
20
0.56999999999778461
10
-4.619999999991049
20
-0.52999999999083081
42
0.99999999999999989
10
-4.0199999999952958
20
-0.52999999999940717
0
CIRCLE
5
105
100
AcDbEntity
8
0
100
AcDbCircle
10
7.6500000000000004
20
-1.2143064341127078e-16
30
0
40
1.0999999999999999
210
0
220
0
230
1
0
CIRCLE
5
106
100
AcDbEntity
8
0
100
AcDbCircle
10
1.249999999999998
20
-7.5
30
0
40
0.45000000000000012
210
0
220
0
230
1
0
CIRCLE
5
107
100
AcDbEntity
8
0
100
AcDbCircle
10
-7.6500000000000004
20
1.2663481373701749e-15
30
0
40
1.0999999999999999
210
0
220
0
230
1
0
LWPOLYLINE
5
108
100
AcDbEntity
8
0
100
AcDbPolyline
90
4
70
1
43
0.0
10
4.0200000000011205
20
3.8000028208181713
42
0.99999892409443214
10
4.6199999999901307
20
3.7999965336376746
10
4.6199999999897736
20
4.6000024188615694
42
0.99999893090066794
10
4.0200000000043161
20
4.599998222613948
0
LWPOLYLINE
5
109
100
AcDbEntity
8
0
100
AcDbPolyline
90
4
70
1
43
0.0
10
4.0199999999981086
20
-0.52999999999929426
42
0.99999999999999989
10
4.6199999999979928
20
-0.53000000000238201
10
4.6199999999963621
20
0.5699999999986054
42
0.99999999999999989
10
4.0200000000004357
20
0.57000000000434548
0
ARC
5
110
100
AcDbEntity
8
0
100
AcDbCircle
10
5.9999999999999893
20
4.5000000000000018
30
0
40
0.99999999999999978
210
0
220
-0
230
1
100
AcDbArc
50
0
51
89.999999999999901
0
LINE
5
111
100
AcDbEntity
8
0
100
AcDbLine
10
5.9999999999999911
20
5.5000000000000018
30
0
11
-6.0000000000000009
21
5.5
31
0
0
ARC
5
112
100
AcDbEntity
8
0
100
AcDbCircle
10
-6
20
4.5
30
0
40
1.0000000000000004
210
0
220
0
230
1
100
AcDbArc
50
90.000000000000057
51
180
0
LINE
5
113
100
AcDbEntity
8
0
100
AcDbLine
10
-7
20
4.5000000000000009
30
0
11
-7.0000000000000009
21
4.2927264063762536
31
0
0
ARC
5
114
100
AcDbEntity
8
0
100
AcDbCircle
10
-9
20
4.2927264063762545
30
0
40
1.9999999999999982
210
-0
220
0
230
1
100
AcDbArc
50
287.45760312372209
51
360
0
ARC
5
115
100
AcDbEntity
8
0
100
AcDbCircle
10
-7.6500000000000004
20
1.2663481373701749e-15
30
0
40
2.4999999999999982
210
0
220
0
230
1
100
AcDbArc
50
107.45760312372212
51
252.54239687627791
0
ARC
5
116
100
AcDbEntity
8
0
100
AcDbCircle
10
-8.9999999999999964
20
-4.2927264063762518
30
0
40
1.9999999999999973
210
-0
220
0
230
1
100
AcDbArc
50
0
51
72.542396876277948
0
LINE
5
117
100
AcDbEntity
8
0
100
AcDbLine
10
-6.9999999999999982
20
-4.2927264063762562
30
0
11
-7.0000000000000062
21
-9
31
0
0
ARC
5
118
100
AcDbEntity
8
0
100
AcDbCircle
10
-6.0000000000000053
20
-9
30
0
40
1.0000000000000009
210
0
220
0
230
1
100
AcDbArc
50
180
51
269.99999999999989
0
LINE
5
119
100
AcDbEntity
8
0
100
AcDbLine
10
-6.0000000000000071
20
-10.000000000000002
30
0
11
5.9999999999999831
21
-10
31
0
0
ARC
5
120
100
AcDbEntity
8
0
100
AcDbCircle
10
5.9999999999999831
20
-9
30
0
40
0.99999999999999978
210
0
220
0
230
1
100
AcDbArc
50
270
51
360
0
LINE
5
121
100
AcDbEntity
8
0
100
AcDbLine
10
6.9999999999999831
20
-9.0000000000000036
30
0
11
6.9999999999999982
21
-4.2927264063762491
31
0
0
ARC
5
122
100
AcDbEntity
8
0
100
AcDbCircle
10
8.9999999999999964
20
-4.2927264063762554
30
0
40
1.9999999999999978
210
0
220
0
230
1
100
AcDbArc
50
107.45760312372209
51
180
0
ARC
5
123
100
AcDbEntity
8
0
100
AcDbCircle
10
7.6500000000000004
20
-1.2143064341127078e-16
30
0
40
2.5
210
-0
220
0
230
1
100
AcDbArc
50
-72.542396876277948
51
72.542396876278033
0
ARC
5
124
100
AcDbEntity
8
0
100
AcDbCircle
10
8.9999999999999876
20
4.2927264063762571
30
0
40
1.9999999999999973
210
0
220
0
230
1
100
AcDbArc
50
180
51
252.5423968762781
0
LINE
5
125
100
AcDbEntity
8
0
100
AcDbLine
10
6.9999999999999911
20
4.2927264063762554
30
0
11
6.9999999999999893
21
4.5000000000000027
31
0
0
LINE
5
126
100
AcDbEntity
8
0
100
AcDbLine
10
-4.6199999999900543
20
4.1999994762474797
30
0
11
-4.0199999999909659
21
4.2000005217194252
31
0
6
DASHED
0
CIRCLE
5
127
100
AcDbEntity
8
0
100
AcDbCircle
10
-4.3199999999905101
20
4.1999999989834516
30
0
40
0.29999999999999971
210
0
220
0
230
1
0
ENDSEC
0
SECTION
2
OBJECTS
0
DICTIONARY
5
C
100
AcDbDictionary
3
ACAD_GROUP
350
D
3
ACAD_MLINESTYLE
350
17
0
DICTIONARY
5
D
100
AcDbDictionary
0
DICTIONARY
5
1A
330
C
100
AcDbDictionary
0
DICTIONARY
5
17
100
AcDbDictionary
0
ENDSEC
0
EOF
