0
SECTION
2
HEADER
9
$INSUNITS
70
4
9
$ACADVER
1
AC1014
9
$HANDSEED
5
FFFF
0
ENDSEC
0
SECTION
2
TABLES
0
TABLE
2
VPORT
5
8
100
AcDbSymbolTable
0
ENDTAB
0
TABLE
2
LTYPE
5
5
100
AcDbSymbolTable
0
LTYPE
5
14
100
AcDbSymbolTableRecord
100
AcDbLinetypeTableRecord
2
BYBLOCK
70
0
0
LTYPE
5
15
100
AcDbSymbolTableRecord
100
AcDbLinetypeTableRecord
2
BYLAYER
70
0
0
LTYPE
5
16
100
AcDbSymbolTableRecord
100
AcDbLinetypeTableRecord
2
DASHED
70
0
3
Dashed __ __ __ __ __ __ __ __ __ __ __ __ __ _
72
65
73
2
40
0.75
49
0.5
74
0
49
-0.25
74
0
0
ENDTAB
0
TABLE
2
LAYER
5
2
100
AcDbSymbolTable
70
2
0
LAYER
5
50
100
AcDbSymbolTableRecord
100
AcDbLayerTableRecord
2
0
70
0
62
7
6
CONTINUOUS
0
ENDTAB
0
TABLE
2
STYLE
5
3
100
AcDbSymbolTable
70
1
0
STYLE
5
11
100
AcDbSymbolTableRecord
100
AcDbTextStyleTableRecord
2
STANDARD
70
0
0
ENDTAB
0
TABLE
2
VIEW
5
6
100
AcDbSymbolTable
70
0
0
ENDTAB
0
TABLE
2
UCS
5
7
100
AcDbSymbolTable
70
0
0
ENDTAB
0
TABLE
2
APPID
5
9
100
AcDbSymbolTable
70
2
0
APPID
5
12
100
AcDbSymbolTableRecord
100
AcDbRegAppTableRecord
2
ACAD
70
0
0
ENDTAB
0
TABLE
2
DIMSTYLE
5
A
100
AcDbSymbolTable
70
1
0
ENDTAB
0
TABLE
2
BLOCK_RECORD
5
1
100
AcDbSymbolTable
70
1
0
BLOCK_RECORD
5
1F
100
AcDbSymbolTableRecord
100
AcDbBlockTableRecord
2
*MODEL_SPACE
0
BLOCK_RECORD
5
1B
100
AcDbSymbolTableRecord
100
AcDbBlockTableRecord
2
*PAPER_SPACE
0
ENDTAB
0
ENDSEC
0
SECTION
2
BLOCKS
0
BLOCK
5
20
100
AcDbEntity
100
AcDbBlockBegin
2
*MODEL_SPACE
0
ENDBLK
5
21
100
AcDbEntity
100
AcDbBlockEnd
0
BLOCK
5
1C
100
AcDbEntity
100
AcDbBlockBegin
2
*PAPER_SPACE
0
ENDBLK
5
1D
100
AcDbEntity
100
AcDbBlockEnd
0
ENDSEC
0
SECTION
2
ENTITIES
0
ARC
5
100
100
AcDbEntity
8
0
100
AcDbCircle
10
-46.049918967761897
20
-2.2000000000000037
30
0
40
0.59999999999999998
210
1.093502375527377e-93
220
2.0087312760744435e-109
230
1
100
AcDbArc
50
270
51
360
0
LINE
5
101
100
AcDbEntity
8
0
100
AcDbLine
10
-46.049918967761897
20
-2.8000000000000034
30
1.2052387656446661e-109
11
-51.850081032238037
21
-2.8000000000000034
31
0
0
ARC
5
102
100
AcDbEntity
8
0
100
AcDbCircle
10
-51.850081032238037
20
-2.2000000000000033
30
0
40
0.59999999999999609
210
-2.1113644123208165e-93
220
-6.0986456504995053e-155
230
1
100
AcDbArc
50
180
51
270
0
LINE
5
103
100
AcDbEntity
8
0
100
AcDbLine
10
-52.450081032238032
20
-2.2000000000000033
30
-1.2668186473924817e-93
11
-52.450081032238032
21
-0.79266335710538149
31
0
0
ARC
5
104
100
AcDbEntity
8
0
100
AcDbCircle
10
-51.850081032238045
20
-0.79266335710538138
30
0
40
0.60000000000000087
210
-4.8678770045201877e-48
220
-1.123020110323114e-47
230
1
100
AcDbArc
50
129.999999999929
51
180
0
LINE
5
105
100
AcDbEntity
8
0
100
AcDbLine
10
-52.235753598049399
20
-0.33303669123351609
30
3.2842932757612802e-48
11
-30.536567598247547
21
17.874742278001339
31
0
0
SPLINE
5
106
100
AcDbEntity
8
0
100
AcDbSpline
70
0
71
3
72
11
73
7
74
0
42
0.000000001
43
0.0000000001
44
0.0000000001
40
-0.87259928393675856
40
-0.87259928393675856
40
-0.87259928393675856
40
-0.87259928393675856
40
0.66610197161641993
40
0.66610197161641993
40
0.66610197161641993
40
0.87259928393675579
40
0.87259928393675579
40
0.87259928393675579
40
0.87259928393675579
10
-30.536567598247547
20
17.874742278001342
30
0
10
-30.300790673605533
20
18.072582608508068
30
0
10
-30.260325093738622
20
18.463102536026497
30
0
10
-30.450513456138829
20
18.705062216699609
30
0
10
-30.476037179817162
20
18.737533772544882
30
0
10
-30.504925782742308
20
18.767360968619183
30
0
10
-30.536567598247437
20
18.793911604339261
30
0
0
LINE
5
107
100
AcDbEntity
8
0
100
AcDbLine
10
-30.536567598247434
20
18.793911604339261
30
0
11
-49.265113087082064
21
34.509027216475189
31
0
0
ARC
5
108
100
AcDbEntity
8
0
100
AcDbCircle
10
-48.879440521270602
20
34.968653882346963
30
0
40
0.60000000000000053
210
-3.2197523990452711e-49
220
2.0488706693665306e-61
230
1
100
AcDbArc
50
89.999999999963364
51
230.00000000005755
0
LINE
5
109
100
AcDbEntity
8
0
100
AcDbLine
10
-48.879440521270219
20
35.568653882346965
30
3.5487535225840223e-65
11
-43.968597263884277
21
35.568653882343838
31
0
0
ARC
5
110
100
AcDbEntity
8
0
100
AcDbCircle
10
-43.968597263884661
20
34.968653882343837
30
0
40
0.60000000000000153
210
0
220
-0
230
1
100
AcDbArc
50
50.00000000007104
51
89.999999999963364
0
LINE
5
111
100
AcDbEntity
8
0
100
AcDbLine
10
-43.582924698073306
20
35.428280548215703
30
0
11
-26.985637321358876
21
21.501502831906542
31
0
0
SPLINE
5
112
100
AcDbEntity
8
0
100
AcDbSpline
70
0
71
3
72
8
73
4
74
0
42
0.000000001
43
0.0000000001
44
0.0000000001
40
-0.69808569331935633
40
-0.69808569331935633
40
-0.69808569331935633
40
-0.69808569331935633
40
0.69808569331935644
40
0.69808569331935644
40
0.69808569331935644
40
0.69808569331935644
10
-26.985637321358876
20
21.501502831906542
30
0
10
-26.771720006601338
20
21.322004891991511
30
0
10
-26.428279993398665
20
21.322004891991511
30
0
10
-26.214362678641127
20
21.501502831906542
30
0
0
LINE
5
113
100
AcDbEntity
8
0
100
AcDbLine
10
-26.214362678641127
20
21.501502831906542
30
0
11
-9.6170753019266968
21
35.428280548215703
31
0
0
ARC
5
114
100
AcDbEntity
8
0
100
AcDbCircle
10
-9.2314027361153475
20
34.968653882343837
30
0
40
0.60000000000000053
210
-6.2752992384557425e-48
220
-3.9026625062988215e-60
230
1
100
AcDbArc
50
90.000000000035627
51
129.99999999992858
0
LINE
5
115
100
AcDbEntity
8
0
100
AcDbLine
10
-9.2314027361157205
20
35.568653882343838
30
6.9165226134599814e-64
11
-4.3205594787312656
21
35.568653882346894
31
0
0
ARC
5
116
100
AcDbEntity
8
0
100
AcDbCircle
10
-4.3205594787308907
20
34.968653882346892
30
0
40
0.5999999999999992
210
2.8438190583226164e-48
220
-1.1904887085297025e-47
230
1
100
AcDbArc
50
-50.000000000070521
51
90.000000000035797
0
LINE
5
117
100
AcDbEntity
8
0
100
AcDbLine
10
-3.9348869129195347
20
34.509027216475033
30
-6.5685865515225761e-48
11
-22.663432401757035
21
18.793911604344032
31
0
0
SPLINE
5
118
100
AcDbEntity
8
0
100
AcDbSpline
70
0
71
3
72
11
73
7
74
0
42
0.000000001
43
0.0000000001
44
0.0000000001
40
-0.87259928393685549
40
-0.87259928393685549
40
-0.87259928393685549
40
-0.87259928393685549
40
0.66610197161633056
40
0.66610197161633056
40
0.66610197161633056
40
0.87259928393686748
40
0.87259928393686748
40
0.87259928393686748
40
0.87259928393686748
10
-22.663432401757035
20
18.793911604344032
30
0
10
-22.899209326399049
20
18.596071273837296
30
0
10
-22.93967490626595
20
18.205551346318863
30
0
10
-22.749486543865732
20
17.963591665645755
30
0
10
-22.723962820187367
20
17.931120109800453
30
0
10
-22.695074217262196
20
17.901292913726124
30
0
10
-22.663432401757035
20
17.874742278006032
30
0
0
LINE
5
119
100
AcDbEntity
8
0
100
AcDbLine
10
-22.663432401757039
20
17.874742278006032
30
0
11
-0.96424640195066136
21
-0.33303669123346147
31
0
0
ARC
5
120
100
AcDbEntity
8
0
100
AcDbCircle
10
-1.349918967762016
20
-0.79266335710532099
30
0
40
0.59999999999999998
210
-2.4343815461535756e-48
220
-2.674553251144972e-63
230
1
100
AcDbArc
50
0
51
50.000000000070628
0
LINE
5
121
100
AcDbEntity
8
0
100
AcDbLine
10
-0.74991896776201605
20
-0.79266335710532043
30
1.460628927692145e-48
11
-0.74991896776201339
21
-2.2000000000000028
31
0
0
ARC
5
122
100
AcDbEntity
8
0
100
AcDbCircle
10
-1.3499189677620134
20
-2.2000000000000037
30
0
40
0.59999999999999998
210
3.1291243172694978e-48
220
1.0947644252537633e-47
230
1
100
AcDbArc
50
-90
51
0
0
LINE
5
123
100
AcDbEntity
8
0
100
AcDbLine
10
-1.3499189677620134
20
-2.8000000000000034
30
6.5685865515225798e-48
11
-7.1500810322378801
21
-2.8000000000000034
31
0
0
ARC
5
124
100
AcDbEntity
8
0
100
AcDbCircle
10
-7.1500810322378801
20
-2.2000000000000033
30
0
40
0.60000000000000053
210
-2.9201451164851412e-48
220
1.6885480956086015e-63
230
1
100
AcDbArc
50
180
51
270
0
LINE
5
125
100
AcDbEntity
8
0
100
AcDbLine
10
-7.7500810322378815
20
-2.2000000000000028
30
-1.752087069891086e-48
11
-7.7500810322378797
21
0.49999999999956746
31
0
0
ARC
5
126
100
AcDbEntity
8
0
100
AcDbCircle
10
-8.3500810322378811
20
0.4999999999995689
30
-7.596454196607839e-63
40
0.60000000000000164
210
1.3926832693780808e-62
220
1.0947644252537556e-47
230
1
100
AcDbArc
50
0
51
90.000000000003055
0
LINE
5
127
100
AcDbEntity
8
0
100
AcDbLine
10
-8.3500810322379131
20
1.0999999999995682
30
-6.5685865515225834e-48
11
-9.2314027361036484
21
1.0999999999995222
31
0
0
ARC
5
128
100
AcDbEntity
8
0
100
AcDbCircle
10
-9.2314027361036803
20
1.6999999999995221
30
0
40
0.60000000000000009
210
-4.8678770045271272e-48
220
1.1230201103228133e-47
230
1
100
AcDbArc
50
230.00000000010655
51
270.00000000000307
0
LINE
5
129
100
AcDbEntity
8
0
100
AcDbLine
10
-9.617075301914749
20
1.2403733341274183
30
3.2842932757612887e-48
11
-26.214362678648232
21
15.167151050435237
31
0
0
SPLINE
5
130
100
AcDbEntity
8
0
100
AcDbSpline
70
0
71
3
72
8
73
4
74
0
42
0.000000001
43
0.0000000001
44
0.0000000001
40
-0.69808569331892112
40
-0.69808569331892112
40
-0.69808569331892112
40
-0.69808569331892112
40
0.698085693318933
40
0.698085693318933
40
0.698085693318933
40
0.698085693318933
10
-26.214362678648232
20
15.167151050435237
30
0
10
-26.428279993405749
20
15.346648990350023
30
0
10
-26.771720006608142
20
15.346648990349955
30
0
10
-26.985637321365591
20
15.167151050435088
30
0
0
LINE
5
131
100
AcDbEntity
8
0
100
AcDbLine
10
-26.985637321365591
20
15.167151050435088
30
0
11
-43.58292469808562
21
1.2403733341280399
31
0
0
ARC
5
132
100
AcDbEntity
8
0
100
AcDbCircle
10
-43.968597263896861
20
1.6999999999999993
30
0
40
0.59999999999999987
210
1.093502375527377e-93
220
2.0087312760744435e-109
230
1
100
AcDbArc
50
270
51
309.99999999991491
0
LINE
5
133
100
AcDbEntity
8
0
100
AcDbLine
10
-43.968597263896861
20
1.0999999999999994
30
1.2052387656446658e-109
11
-44.849918967761901
21
1.0999999999999994
31
0
0
ARC
5
134
100
AcDbEntity
8
0
100
AcDbCircle
10
-44.849918967761901
20
0.50000000000000244
30
3.7222625563378411e-62
40
0.59999999999999709
210
-8.5514561486712046e-48
220
6.203770927229766e-62
230
1
100
AcDbArc
50
90
51
180
0
LINE
5
135
100
AcDbEntity
8
0
100
AcDbLine
10
-45.449918967761896
20
0.50000000000000067
30
-5.1308736892026798e-48
11
-45.449918967761896
21
-2.2000000000000055
31
-6.5610142531642616e-94
0
ENDSEC
0
SECTION
2
OBJECTS
0
DICTIONARY
5
C
100
AcDbDictionary
3
ACAD_GROUP
350
D
3
ACAD_MLINESTYLE
350
17
0
DICTIONARY
5
D
100
AcDbDictionary
0
DICTIONARY
5
1A
330
C
100
AcDbDictionary
0
DICTIONARY
5
17
100
AcDbDictionary
0
ENDSEC
0
EOF
