0
SECTION
2
HEADER
9
$INSUNITS
70
4
9
$ACADVER
1
AC1014
9
$HANDSEED
5
FFFF
0
ENDSEC
0
SECTION
2
TABLES
0
TABLE
2
VPORT
5
8
100
AcDbSymbolTable
0
ENDTAB
0
TABLE
2
LTYPE
5
5
100
AcDbSymbolTable
0
LTYPE
5
14
100
AcDbSymbolTableRecord
100
AcDbLinetypeTableRecord
2
BYBLOCK
70
0
0
LTYPE
5
15
100
AcDbSymbolTableRecord
100
AcDbLinetypeTableRecord
2
BYLAYER
70
0
0
LTYPE
5
16
100
AcDbSymbolTableRecord
100
AcDbLinetypeTableRecord
2
DASHED
70
0
3
Dashed __ __ __ __ __ __ __ __ __ __ __ __ __ _
72
65
73
2
40
0.75
49
0.5
74
0
49
-0.25
74
0
0
ENDTAB
0
TABLE
2
LAYER
5
2
100
AcDbSymbolTable
70
2
0
LAYER
5
50
100
AcDbSymbolTableRecord
100
AcDbLayerTableRecord
2
0
70
0
62
7
6
CONTINUOUS
0
ENDTAB
0
TABLE
2
STYLE
5
3
100
AcDbSymbolTable
70
1
0
STYLE
5
11
100
AcDbSymbolTableRecord
100
AcDbTextStyleTableRecord
2
STANDARD
70
0
0
ENDTAB
0
TABLE
2
VIEW
5
6
100
AcDbSymbolTable
70
0
0
ENDTAB
0
TABLE
2
UCS
5
7
100
AcDbSymbolTable
70
0
0
ENDTAB
0
TABLE
2
APPID
5
9
100
AcDbSymbolTable
70
2
0
APPID
5
12
100
AcDbSymbolTableRecord
100
AcDbRegAppTableRecord
2
ACAD
70
0
0
ENDTAB
0
TABLE
2
DIMSTYLE
5
A
100
AcDbSymbolTable
70
1
0
ENDTAB
0
TABLE
2
BLOCK_RECORD
5
1
100
AcDbSymbolTable
70
1
0
BLOCK_RECORD
5
1F
100
AcDbSymbolTableRecord
100
AcDbBlockTableRecord
2
*MODEL_SPACE
0
BLOCK_RECORD
5
1B
100
AcDbSymbolTableRecord
100
AcDbBlockTableRecord
2
*PAPER_SPACE
0
ENDTAB
0
ENDSEC
0
SECTION
2
BLOCKS
0
BLOCK
5
20
100
AcDbEntity
100
AcDbBlockBegin
2
*MODEL_SPACE
0
ENDBLK
5
21
100
AcDbEntity
100
AcDbBlockEnd
0
BLOCK
5
1C
100
AcDbEntity
100
AcDbBlockBegin
2
*PAPER_SPACE
0
ENDBLK
5
1D
100
AcDbEntity
100
AcDbBlockEnd
0
ENDSEC
0
SECTION
2
ENTITIES
0
LWPOLYLINE
5
100
100
AcDbEntity
8
0
100
AcDbPolyline
90
8
70
1
43
0.0
10
-93.329418106930518
20
-20.484326941180502
42
0.45476576069324326
10
-94.419194664397821
20
-21.733949983507493
42
0.10053510827274635
10
-91.130546474969535
20
-31.125111733573405
42
0.26429829227491208
10
-90.185507642355731
20
-31.662171590350408
10
-60.621577717644364
20
-31.662171590350489
42
0.26429829222690671
10
-59.676538885131492
20
-31.125111733743051
42
0.10053510827389979
10
-56.387890695614011
20
-21.733949983590072
42
0.45476576071772168
10
-57.477667253069214
20
-20.484326941175333
0
LWPOLYLINE
5
101
100
AcDbEntity
8
0
100
AcDbPolyline
90
8
70
1
43
0.0
10
-91.130546464387578
20
-5.5435421310129644
42
0.10053510889795539
10
-94.419194670002057
20
-14.934703939662272
42
0.45476574939274378
10
-93.329418106930461
20
-16.184326941170578
10
-57.477667253069392
20
-16.184326941174429
42
0.45476578197654866
10
-56.387890706156732
20
-14.934703821970579
42
0.100535107634665
10
-59.676538892420808
20
-5.5435421363712987
42
0.26429828876367251
10
-60.621577717644371
20
-5.0064822920007117
10
-90.185507642355773
20
-5.0064822920006389
42
0.26429828724717225
0
ARC
5
102
100
AcDbEntity
8
0
100
AcDbCircle
10
-80.650081032238049
20
0.2999999999993026
30
0
40
0.50000000000000711
210
-3.944304526105059e-31
220
-7.2455698691354681e-47
230
1
100
AcDbArc
50
90
51
180
0
LINE
5
103
100
AcDbEntity
8
0
100
AcDbLine
10
-81.150081032238063
20
0.29999999999930271
30
-1.9721522630525575e-31
11
-81.150081032238063
21
-0.60000000000071063
31
0
0
ARC
5
104
100
AcDbEntity
8
0
100
AcDbCircle
10
-81.650081032238091
20
-0.60000000000069198
30
0
40
0.50000000000002598
210
0
220
0
230
1
100
AcDbArc
50
270.00000000000324
51
360
0
LINE
5
105
100
AcDbEntity
8
0
100
AcDbLine
10
-81.650081032238063
20
-1.100000000000718
30
0
11
-92.676283591457661
21
-1.1000000000007111
31
0
0
SPLINE
5
106
100
AcDbEntity
8
0
100
AcDbSpline
70
0
71
3
72
8
73
4
74
0
42
0.000000001
43
0.0000000001
44
0.0000000001
40
-0.047794944399753202
40
-0.047794944399753202
40
-0.047794944399753202
40
-0.047794944399753202
40
0
40
0
40
0
40
0
10
-92.676283591457661
20
-1.1000000000007106
30
0
10
-92.963032769319824
20
-1.1000000000007106
30
0
10
-93.244346225647959
20
-1.2453022504752946
30
0
10
-93.41030448762038
20
-1.4791711638295775
30
0
0
ARC
5
107
100
AcDbEntity
8
0
100
AcDbCircle
10
-69.657965078810065
20
-18.334326941175338
30
4.1338304697582104e-42
40
29.125073453468158
210
-1.1575106455077819e-43
220
8.2139371234872852e-44
230
1
100
AcDbArc
50
144.63969293024707
51
172.35294716695813
0
SPLINE
5
108
100
AcDbEntity
8
0
100
AcDbSpline
70
0
71
3
72
8
73
4
74
0
42
0.000000001
43
0.0000000001
44
0.0000000001
40
-0.059169615482293714
40
-0.059169615482293714
40
-0.059169615482293714
40
-0.059169615482293714
40
0
40
0
40
0
40
0
10
-98.524017415274187
20
-14.458642978512607
30
0
10
-98.571259833062754
20
-14.81050399647048
30
0
10
-98.389490051348091
20
-15.180292485495521
30
0
10
-98.082034944962189
20
-15.357801773937577
30
0
0
LINE
5
109
100
AcDbEntity
8
0
100
AcDbLine
10
-98.082034944962174
20
-15.357801773937577
30
0
11
-97.08297821855615
21
-15.934607443884691
31
0
0
SPLINE
5
110
100
AcDbEntity
8
0
100
AcDbSpline
70
0
71
3
72
8
73
4
74
0
42
0.000000001
43
0.0000000001
44
0.0000000001
40
-0.52356711939816725
40
-0.52356711939816725
40
-0.52356711939816725
40
-0.52356711939816725
40
0.52356711939815814
40
0.52356711939815814
40
0.52356711939815814
40
0.52356711939815814
10
-97.08297821855615
20
-15.934607443884691
30
0
10
-96.538863573516807
20
-16.248752180679531
30
0
10
-96.183038532278488
20
-16.865059230720714
30
0
10
-96.183038532278488
20
-17.49334870429335
30
0
0
LINE
5
111
100
AcDbEntity
8
0
100
AcDbLine
10
-96.183038532278502
20
-17.493348704293354
30
0
11
-96.183038532278488
21
-19.175305178062409
31
0
0
SPLINE
5
112
100
AcDbEntity
8
0
100
AcDbSpline
70
0
71
3
72
8
73
4
74
0
42
0.000000001
43
0.0000000001
44
0.0000000001
40
-0.52356711940508038
40
-0.52356711940508038
40
-0.52356711940508038
40
-0.52356711940508038
40
0.52356711940508005
40
0.52356711940508005
40
0.52356711940508005
40
0.52356711940508005
10
-96.183038532278488
20
-19.175305178062409
30
0
10
-96.183038532278488
20
-19.803594651643344
30
0
10
-96.538863573526811
20
-20.419901701692062
30
0
10
-97.082978218577679
20
-20.734046438483531
30
0
0
LINE
5
113
100
AcDbEntity
8
0
100
AcDbLine
10
-97.082978218577693
20
-20.734046438483539
30
0
11
-98.082034944953108
21
-21.310852108394549
31
0
0
SPLINE
5
114
100
AcDbEntity
8
0
100
AcDbSpline
70
0
71
3
72
8
73
4
74
0
42
0.000000001
43
0.0000000001
44
0.0000000001
40
-0.059169615405490136
40
-0.059169615405490136
40
-0.059169615405490136
40
-0.059169615405490136
40
0
40
0
40
0
40
0
10
-98.082034944953108
20
-21.310852108394549
30
0
10
-98.389489846116618
20
-21.488361278345714
30
0
10
-98.571259864476104
20
-21.858149651913216
30
0
10
-98.524017415275978
20
-22.210010903825346
30
0
0
ARC
5
115
100
AcDbEntity
8
0
100
AcDbCircle
10
-69.657965078810065
20
-18.334326941175338
30
4.1338304697582104e-42
40
29.125073453468431
210
-1.4118717068011466e-43
220
-1.5046173070469589e-44
230
1
100
AcDbArc
50
187.6470528330166
51
215.92257944402533
0
SPLINE
5
116
100
AcDbEntity
8
0
100
AcDbSpline
70
0
71
3
72
8
73
4
74
0
42
0.000000001
43
0.0000000001
44
0.0000000001
40
-0.047294549179232197
40
-0.047294549179232197
40
-0.047294549179232197
40
-0.047294549179232197
40
0
40
0
40
0
40
0
10
-93.243755276381378
20
-35.421761050077677
30
0
10
-93.077269509162178
20
-35.651561402283143
30
0
10
-92.798718638673293
20
-35.793727335818218
30
0
10
-92.514948030631246
20
-35.793727335818218
30
0
0
LINE
5
117
100
AcDbEntity
8
0
100
AcDbLine
10
-92.514948030631246
20
-35.793727335818218
30
0
11
-58.292137329368884
21
-35.793727335818232
31
0
0
SPLINE
5
118
100
AcDbEntity
8
0
100
AcDbSpline
70
0
71
3
72
8
73
4
74
0
42
0.000000001
43
0.0000000001
44
0.0000000001
40
-0.047294549160811113
40
-0.047294549160811113
40
-0.047294549160811113
40
-0.047294549160811113
40
0
40
0
40
0
40
0
10
-58.292137329368884
20
-35.793727335818232
30
0
10
-58.008366801482268
20
-35.793727335818232
30
0
10
-57.729815897735257
20
-35.65156146701554
30
0
10
-57.563330083618723
20
-35.421761050077663
30
0
0
ARC
5
119
100
AcDbEntity
8
0
100
AcDbCircle
10
-81.149120281189653
20
-18.33432694117549
30
-4.3790577010150533e-44
40
29.125073453468005
210
-1.8512720677719552e-30
220
-2.5553113656979536e-30
230
1
100
AcDbArc
50
324.07742055597441
51
353.39805956287773
0
SPLINE
5
120
100
AcDbEntity
8
0
100
AcDbSpline
70
0
71
3
72
11
73
7
74
0
42
0.000000001
43
0.0000000001
44
0.0000000001
40
-0.21893423062423184
40
-0.21893423062423184
40
-0.21893423062423184
40
-0.21893423062423184
40
-0.019088235194949066
40
-0.019088235194949066
40
-0.019088235194949066
40
0
40
0
40
0
40
0
10
-52.21717890462731
20
-21.6828597322748
30
0
10
-52.161013609533484
20
-21.19758121585377
30
0
10
-51.746402299221153
20
-20.779844930152287
30
0
10
-51.263823871151445
20
-20.718252069380249
30
0
10
-51.217730525546912
20
-20.712369044252725
30
0
10
-51.171215522439127
20
-20.709400394643147
30
0
10
-51.124554845498096
20
-20.709400394643147
30
0
0
LINE
5
121
100
AcDbEntity
8
0
100
AcDbLine
10
-51.12455484549811
20
-20.709400394643144
30
0
11
-46.424019412404391
21
-20.709400394643144
31
0
0
SPLINE
5
122
100
AcDbEntity
8
0
100
AcDbSpline
70
0
71
3
72
11
73
7
74
0
42
0.000000001
43
0.0000000001
44
0.0000000001
40
-0.78534333426604419
40
-0.78534333426604419
40
-0.78534333426604419
40
-0.78534333426604419
40
0.59946843106699232
40
0.59946843106699232
40
0.59946843106699232
40
0.78534333426604819
40
0.78534333426604819
40
0.78534333426604819
40
0.78534333426604819
10
-46.424019412404391
20
-20.709400394643144
30
0
10
-46.008563227370217
20
-20.70940039464314
30
0
10
-45.616331148453398
20
-20.384061547600151
30
0
10
-45.5395501317834
20
-19.975759197836503
30
0
10
-45.529244280549079
20
-19.920955244232012
30
0
10
-45.524046827721634
20
-19.865191979582463
30
0
10
-45.524046827721634
20
-19.809427809960386
30
0
0
LINE
5
123
100
AcDbEntity
8
0
100
AcDbLine
10
-45.524046827721634
20
-19.809427809960386
30
0
11
-45.524046827721641
21
-16.859226072390101
31
0
0
SPLINE
5
124
100
AcDbEntity
8
0
100
AcDbSpline
70
0
71
3
72
11
73
7
74
0
42
0.000000001
43
0.0000000001
44
0.0000000001
40
-0.78534333426600389
40
-0.78534333426600389
40
-0.78534333426600389
40
-0.78534333426600389
40
0.59946843106703085
40
0.59946843106703085
40
0.59946843106703085
40
0.78534333426599012
40
0.78534333426599012
40
0.78534333426599012
40
0.78534333426599012
10
-45.524046827721641
20
-16.859226072390101
30
0
10
-45.524046827721641
20
-16.443769887355927
30
0
10
-45.849385674764619
20
-16.051537808439107
30
0
10
-46.257688024528264
20
-15.97475679176911
30
0
10
-46.312491978132726
20
-15.964450940534793
30
0
10
-46.368255242782254
20
-15.959253487707345
30
0
10
-46.424019412404299
20
-15.95925348770734
30
0
0
LINE
5
125
100
AcDbEntity
8
0
100
AcDbLine
10
-46.424019412404299
20
-15.95925348770734
30
0
11
-51.124554845498338
21
-15.959253487706878
31
0
0
SPLINE
5
126
100
AcDbEntity
8
0
100
AcDbSpline
70
0
71
3
72
11
73
7
74
0
42
0.000000001
43
0.0000000001
44
0.0000000001
40
-0.21893423093400713
40
-0.21893423093400713
40
-0.21893423093400713
40
-0.21893423093400713
40
-0.019088234480251459
40
-0.019088234480251459
40
-0.019088234480251459
40
0
40
0
40
0
40
0
10
-51.124554845498338
20
-15.959253487706878
30
0
10
-51.613072789118341
20
-15.95925348770683
30
0
10
-52.075707204880942
20
-15.595418984477899
30
0
10
-52.192374057514918
20
-15.123121975500469
30
0
10
-52.203517459327657
20
-15.078010658728262
30
0
10
-52.211814289797772
20
-15.03214541238685
30
0
10
-52.217178904627424
20
-14.985794150075256
30
0
0
ARC
5
127
100
AcDbEntity
8
0
100
AcDbCircle
10
-81.149120281189653
20
-18.33432694117549
30
-4.3790577010150533e-44
40
29.125073453468005
210
-7.2556771071354432e-31
220
6.2690389435288427e-30
230
1
100
AcDbArc
50
6.6019404371240986
51
40.615468848513395
0
ARC
5
128
100
AcDbEntity
8
0
100
AcDbCircle
10
-59.41995348478801
20
0.29999999999930133
30
0
40
0.50000000000005229
210
1.5815220374715815e-28
220
1.3147006935114859e-28
230
1
100
AcDbArc
50
40.615468848511647
51
89.99999999999838
0
LINE
5
129
100
AcDbEntity
8
0
100
AcDbLine
10
-59.419953484787996
20
0.79999999999930149
30
1.7057760034582109e-31
11
-80.650081032238049
21
0.79999999999930971
31
3.6227849345677851e-47
0
ENDSEC
0
SECTION
2
OBJECTS
0
DICTIONARY
5
C
100
AcDbDictionary
3
ACAD_GROUP
350
D
3
ACAD_MLINESTYLE
350
17
0
DICTIONARY
5
D
100
AcDbDictionary
0
DICTIONARY
5
1A
330
C
100
AcDbDictionary
0
DICTIONARY
5
17
100
AcDbDictionary
0
ENDSEC
0
EOF
