%TF.GenerationSoftware,KiCad,Pcbnew,(7.0.0-0)*%
%TF.CreationDate,2023-03-15T20:38:16-05:00*%
%TF.ProjectId,USB-C Breakout,5553422d-4320-4427-9265-616b6f75742e,0*%
%TF.SameCoordinates,Original*%
%TF.FileFunction,Copper,L4,Bot*%
%TF.FilePolarity,Positive*%
%FSLAX46Y46*%
G04 Gerber Fmt 4.6, Leading zero omitted, Abs format (unit mm)*
G04 Created by KiCad (PCBNEW (7.0.0-0)) date 2023-03-15 20:38:16*
%MOMM*%
%LPD*%
G01*
G04 APERTURE LIST*
G04 Aperture macros list*
%AMRoundRect*
0 Rectangle with rounded corners*
0 $1 Rounding radius*
0 $2 $3 $4 $5 $6 $7 $8 $9 X,Y pos of 4 corners*
0 Add a 4 corners polygon primitive as box body*
4,1,4,$2,$3,$4,$5,$6,$7,$8,$9,$2,$3,0*
0 Add four circle primitives for the rounded corners*
1,1,$1+$1,$2,$3*
1,1,$1+$1,$4,$5*
1,1,$1+$1,$6,$7*
1,1,$1+$1,$8,$9*
0 Add four rect primitives between the rounded corners*
20,1,$1+$1,$2,$3,$4,$5,0*
20,1,$1+$1,$4,$5,$6,$7,0*
20,1,$1+$1,$6,$7,$8,$9,0*
20,1,$1+$1,$8,$9,$2,$3,0*%
G04 Aperture macros list end*
%TA.AperFunction,EtchedComponent*%
%ADD10C,0.010000*%
%TD*%
%TA.AperFunction,ComponentPad*%
%ADD11RoundRect,0.250000X-0.600000X-0.725000X0.600000X-0.725000X0.600000X0.725000X-0.600000X0.725000X0*%
%TD*%
%TA.AperFunction,ComponentPad*%
%ADD12O,1.700000X1.950000*%
%TD*%
%TA.AperFunction,ComponentPad*%
%ADD13O,1.000000X2.100000*%
%TD*%
%TA.AperFunction,ComponentPad*%
%ADD14O,1.000000X1.800000*%
%TD*%
%TA.AperFunction,ViaPad*%
%ADD15C,0.700000*%
%TD*%
%TA.AperFunction,ViaPad*%
%ADD16C,0.500000*%
%TD*%
G04 APERTURE END LIST*
%TO.C,G\u002A\u002A\u002A*%
G36*
X142895853Y-91121510D02*
G01*
X142907461Y-91139305D01*
X142967774Y-91276440D01*
X143013886Y-91436501D01*
X143025946Y-91506559D01*
X143035887Y-91604913D01*
X143042129Y-91718756D01*
X143044554Y-91841509D01*
X143043041Y-91966597D01*
X143040554Y-92020537D01*
X143037471Y-92087440D01*
X143027725Y-92197462D01*
X143027209Y-92201867D01*
X143013633Y-92299300D01*
X142995542Y-92404027D01*
X142974451Y-92508979D01*
X142951876Y-92607085D01*
X142929331Y-92691276D01*
X142908333Y-92754482D01*
X142892893Y-92793908D01*
X142848255Y-92743067D01*
X142824857Y-92718742D01*
X142748155Y-92664500D01*
X142659849Y-92635448D01*
X142560935Y-92631670D01*
X142452412Y-92653250D01*
X142335277Y-92700270D01*
X142231483Y-92761535D01*
X142121595Y-92855184D01*
X142026768Y-92972040D01*
X141961060Y-93084987D01*
X141915191Y-93209091D01*
X141894095Y-93339473D01*
X141893595Y-93346448D01*
X141888860Y-93394740D01*
X141883314Y-93428851D01*
X141878055Y-93441778D01*
X141877308Y-93441769D01*
X141846666Y-93436461D01*
X141797918Y-93423111D01*
X141738755Y-93404290D01*
X141676869Y-93382569D01*
X141619952Y-93360520D01*
X141575696Y-93340712D01*
X141436849Y-93260507D01*
X141309924Y-93163243D01*
X141207015Y-93055585D01*
X141129244Y-92938719D01*
X141077734Y-92813834D01*
X141063804Y-92746518D01*
X141055290Y-92657045D01*
X141053569Y-92559450D01*
X141058792Y-92463738D01*
X141071114Y-92379917D01*
X141088445Y-92298778D01*
X141180041Y-92298778D01*
X141190034Y-92298645D01*
X141291403Y-92282279D01*
X141388419Y-92240126D01*
X141478015Y-92174387D01*
X141557123Y-92087265D01*
X141617939Y-91988644D01*
X142412838Y-91988644D01*
X142419717Y-92076279D01*
X142443839Y-92158597D01*
X142483863Y-92229059D01*
X142538448Y-92281125D01*
X142594310Y-92306853D01*
X142653194Y-92310180D01*
X142707175Y-92289884D01*
X142753639Y-92248368D01*
X142789974Y-92188036D01*
X142813566Y-92111291D01*
X142821801Y-92020537D01*
X142821779Y-92017215D01*
X142811980Y-91928213D01*
X142786674Y-91852844D01*
X142749105Y-91792681D01*
X142702516Y-91749298D01*
X142650151Y-91724267D01*
X142595254Y-91719162D01*
X142541069Y-91735557D01*
X142490838Y-91775024D01*
X142447807Y-91839137D01*
X142424543Y-91902230D01*
X142412838Y-91988644D01*
X141617939Y-91988644D01*
X141622676Y-91980962D01*
X141639014Y-91947594D01*
X141656915Y-91904740D01*
X141666858Y-91865292D01*
X141671139Y-91818714D01*
X141672055Y-91754470D01*
X141671848Y-91716990D01*
X141669707Y-91665362D01*
X141663837Y-91629056D01*
X141652528Y-91599731D01*
X141634074Y-91569045D01*
X141622432Y-91553115D01*
X141587190Y-91516188D01*
X141552935Y-91492548D01*
X141549219Y-91490876D01*
X141521270Y-91476214D01*
X141509863Y-91466306D01*
X141510268Y-91465246D01*
X141522246Y-91448372D01*
X141548355Y-91415051D01*
X141585229Y-91369514D01*
X141629503Y-91315989D01*
X141637877Y-91306012D01*
X141739625Y-91195116D01*
X142018309Y-91195116D01*
X142022112Y-91237589D01*
X142034711Y-91265845D01*
X142057847Y-91280077D01*
X142101522Y-91283531D01*
X142150056Y-91267932D01*
X142195577Y-91234800D01*
X142213086Y-91215006D01*
X142238929Y-91166101D01*
X142241884Y-91121510D01*
X142225112Y-91085835D01*
X142191775Y-91063677D01*
X142145034Y-91059636D01*
X142088051Y-91078313D01*
X142054995Y-91101063D01*
X142032307Y-91126774D01*
X142023521Y-91151094D01*
X142018309Y-91195116D01*
X141739625Y-91195116D01*
X141768553Y-91163587D01*
X141899537Y-91045166D01*
X142029777Y-90951223D01*
X142158215Y-90882232D01*
X142283799Y-90838666D01*
X142405473Y-90821000D01*
X142522181Y-90829707D01*
X142632870Y-90865262D01*
X142645030Y-90871026D01*
X142745718Y-90936041D01*
X142833319Y-91025653D01*
X142895853Y-91121510D01*
G37*
D10*
X142895853Y-91121510D02*
X142907461Y-91139305D01*
X142967774Y-91276440D01*
X143013886Y-91436501D01*
X143025946Y-91506559D01*
X143035887Y-91604913D01*
X143042129Y-91718756D01*
X143044554Y-91841509D01*
X143043041Y-91966597D01*
X143040554Y-92020537D01*
X143037471Y-92087440D01*
X143027725Y-92197462D01*
X143027209Y-92201867D01*
X143013633Y-92299300D01*
X142995542Y-92404027D01*
X142974451Y-92508979D01*
X142951876Y-92607085D01*
X142929331Y-92691276D01*
X142908333Y-92754482D01*
X142892893Y-92793908D01*
X142848255Y-92743067D01*
X142824857Y-92718742D01*
X142748155Y-92664500D01*
X142659849Y-92635448D01*
X142560935Y-92631670D01*
X142452412Y-92653250D01*
X142335277Y-92700270D01*
X142231483Y-92761535D01*
X142121595Y-92855184D01*
X142026768Y-92972040D01*
X141961060Y-93084987D01*
X141915191Y-93209091D01*
X141894095Y-93339473D01*
X141893595Y-93346448D01*
X141888860Y-93394740D01*
X141883314Y-93428851D01*
X141878055Y-93441778D01*
X141877308Y-93441769D01*
X141846666Y-93436461D01*
X141797918Y-93423111D01*
X141738755Y-93404290D01*
X141676869Y-93382569D01*
X141619952Y-93360520D01*
X141575696Y-93340712D01*
X141436849Y-93260507D01*
X141309924Y-93163243D01*
X141207015Y-93055585D01*
X141129244Y-92938719D01*
X141077734Y-92813834D01*
X141063804Y-92746518D01*
X141055290Y-92657045D01*
X141053569Y-92559450D01*
X141058792Y-92463738D01*
X141071114Y-92379917D01*
X141088445Y-92298778D01*
X141180041Y-92298778D01*
X141190034Y-92298645D01*
X141291403Y-92282279D01*
X141388419Y-92240126D01*
X141478015Y-92174387D01*
X141557123Y-92087265D01*
X141617939Y-91988644D01*
X142412838Y-91988644D01*
X142419717Y-92076279D01*
X142443839Y-92158597D01*
X142483863Y-92229059D01*
X142538448Y-92281125D01*
X142594310Y-92306853D01*
X142653194Y-92310180D01*
X142707175Y-92289884D01*
X142753639Y-92248368D01*
X142789974Y-92188036D01*
X142813566Y-92111291D01*
X142821801Y-92020537D01*
X142821779Y-92017215D01*
X142811980Y-91928213D01*
X142786674Y-91852844D01*
X142749105Y-91792681D01*
X142702516Y-91749298D01*
X142650151Y-91724267D01*
X142595254Y-91719162D01*
X142541069Y-91735557D01*
X142490838Y-91775024D01*
X142447807Y-91839137D01*
X142424543Y-91902230D01*
X142412838Y-91988644D01*
X141617939Y-91988644D01*
X141622676Y-91980962D01*
X141639014Y-91947594D01*
X141656915Y-91904740D01*
X141666858Y-91865292D01*
X141671139Y-91818714D01*
X141672055Y-91754470D01*
X141671848Y-91716990D01*
X141669707Y-91665362D01*
X141663837Y-91629056D01*
X141652528Y-91599731D01*
X141634074Y-91569045D01*
X141622432Y-91553115D01*
X141587190Y-91516188D01*
X141552935Y-91492548D01*
X141549219Y-91490876D01*
X141521270Y-91476214D01*
X141509863Y-91466306D01*
X141510268Y-91465246D01*
X141522246Y-91448372D01*
X141548355Y-91415051D01*
X141585229Y-91369514D01*
X141629503Y-91315989D01*
X141637877Y-91306012D01*
X141739625Y-91195116D01*
X142018309Y-91195116D01*
X142022112Y-91237589D01*
X142034711Y-91265845D01*
X142057847Y-91280077D01*
X142101522Y-91283531D01*
X142150056Y-91267932D01*
X142195577Y-91234800D01*
X142213086Y-91215006D01*
X142238929Y-91166101D01*
X142241884Y-91121510D01*
X142225112Y-91085835D01*
X142191775Y-91063677D01*
X142145034Y-91059636D01*
X142088051Y-91078313D01*
X142054995Y-91101063D01*
X142032307Y-91126774D01*
X142023521Y-91151094D01*
X142018309Y-91195116D01*
X141739625Y-91195116D01*
X141768553Y-91163587D01*
X141899537Y-91045166D01*
X142029777Y-90951223D01*
X142158215Y-90882232D01*
X142283799Y-90838666D01*
X142405473Y-90821000D01*
X142522181Y-90829707D01*
X142632870Y-90865262D01*
X142645030Y-90871026D01*
X142745718Y-90936041D01*
X142833319Y-91025653D01*
X142895853Y-91121510D01*
G36*
X142989748Y-92782824D02*
G01*
X143016813Y-92788684D01*
X143061508Y-92799695D01*
X143117877Y-92814427D01*
X143187992Y-92835238D01*
X143304570Y-92881350D01*
X143397810Y-92935198D01*
X143465538Y-92995650D01*
X143509187Y-93057389D01*
X143535880Y-93128783D01*
X143535393Y-93196901D01*
X143508259Y-93260969D01*
X143455010Y-93320217D01*
X143376181Y-93373871D01*
X143272305Y-93421159D01*
X143143916Y-93461308D01*
X143110536Y-93469272D01*
X143034206Y-93484930D01*
X142940941Y-93501847D01*
X142837808Y-93518876D01*
X142731876Y-93534873D01*
X142630213Y-93548693D01*
X142539889Y-93559189D01*
X142527530Y-93560353D01*
X142454060Y-93564616D01*
X142364000Y-93566643D01*
X142264814Y-93566571D01*
X142163963Y-93564536D01*
X142068912Y-93560673D01*
X141987122Y-93555119D01*
X141926055Y-93548009D01*
X141904148Y-93544306D01*
X141728961Y-93503484D01*
X141573274Y-93446239D01*
X141438385Y-93373257D01*
X141325590Y-93285224D01*
X141236183Y-93182826D01*
X141230429Y-93174669D01*
X141190600Y-93116763D01*
X141168356Y-93080783D01*
X141163914Y-93066426D01*
X141177490Y-93073390D01*
X141209298Y-93101373D01*
X141259556Y-93150073D01*
X141280145Y-93170050D01*
X141418308Y-93284180D01*
X141568518Y-93374267D01*
X141735555Y-93443256D01*
X141781309Y-93458027D01*
X141840009Y-93473934D01*
X141897052Y-93484288D01*
X141962397Y-93490749D01*
X142046000Y-93494976D01*
X142073301Y-93495902D01*
X142178187Y-93496270D01*
X142265046Y-93489556D01*
X142341766Y-93474315D01*
X142416236Y-93449100D01*
X142496345Y-93412468D01*
X142576772Y-93364731D01*
X142684593Y-93275318D01*
X142783234Y-93162770D01*
X142870442Y-93029771D01*
X142943967Y-92879005D01*
X142945982Y-92874154D01*
X142964843Y-92828867D01*
X142978616Y-92796004D01*
X142984441Y-92782390D01*
X142989748Y-92782824D01*
G37*
X142989748Y-92782824D02*
X143016813Y-92788684D01*
X143061508Y-92799695D01*
X143117877Y-92814427D01*
X143187992Y-92835238D01*
X143304570Y-92881350D01*
X143397810Y-92935198D01*
X143465538Y-92995650D01*
X143509187Y-93057389D01*
X143535880Y-93128783D01*
X143535393Y-93196901D01*
X143508259Y-93260969D01*
X143455010Y-93320217D01*
X143376181Y-93373871D01*
X143272305Y-93421159D01*
X143143916Y-93461308D01*
X143110536Y-93469272D01*
X143034206Y-93484930D01*
X142940941Y-93501847D01*
X142837808Y-93518876D01*
X142731876Y-93534873D01*
X142630213Y-93548693D01*
X142539889Y-93559189D01*
X142527530Y-93560353D01*
X142454060Y-93564616D01*
X142364000Y-93566643D01*
X142264814Y-93566571D01*
X142163963Y-93564536D01*
X142068912Y-93560673D01*
X141987122Y-93555119D01*
X141926055Y-93548009D01*
X141904148Y-93544306D01*
X141728961Y-93503484D01*
X141573274Y-93446239D01*
X141438385Y-93373257D01*
X141325590Y-93285224D01*
X141236183Y-93182826D01*
X141230429Y-93174669D01*
X141190600Y-93116763D01*
X141168356Y-93080783D01*
X141163914Y-93066426D01*
X141177490Y-93073390D01*
X141209298Y-93101373D01*
X141259556Y-93150073D01*
X141280145Y-93170050D01*
X141418308Y-93284180D01*
X141568518Y-93374267D01*
X141735555Y-93443256D01*
X141781309Y-93458027D01*
X141840009Y-93473934D01*
X141897052Y-93484288D01*
X141962397Y-93490749D01*
X142046000Y-93494976D01*
X142073301Y-93495902D01*
X142178187Y-93496270D01*
X142265046Y-93489556D01*
X142341766Y-93474315D01*
X142416236Y-93449100D01*
X142496345Y-93412468D01*
X142576772Y-93364731D01*
X142684593Y-93275318D01*
X142783234Y-93162770D01*
X142870442Y-93029771D01*
X142943967Y-92879005D01*
X142945982Y-92874154D01*
X142964843Y-92828867D01*
X142978616Y-92796004D01*
X142984441Y-92782390D01*
X142989748Y-92782824D01*
%TD*%
D11*
%TO.P,J2,1,Pin_1*%
%TO.N,VBUS*%
X138395085Y-104900000D03*
D12*
%TO.P,J2,2,Pin_2*%
%TO.N,/DP_USB_+*%
X140895084Y-104899999D03*
%TO.P,J2,3,Pin_3*%
%TO.N,/DP_USB_-*%
X143395084Y-104899999D03*
%TO.P,J2,4,Pin_4*%
%TO.N,GND*%
X145895084Y-104899999D03*
%TD*%
D13*
%TO.P,J1,S1,SHIELD*%
%TO.N,GND*%
X146465084Y-95949999D03*
D14*
X146465084Y-91769999D03*
D13*
X137825084Y-95949999D03*
D14*
X137825084Y-91769999D03*
%TD*%
D15*
%TO.N,GND*%
X145100000Y-98300000D03*
X144850000Y-102850000D03*
X147650000Y-105000000D03*
X147450000Y-106650000D03*
X144850000Y-106800000D03*
X139450000Y-106800000D03*
X142150000Y-106800000D03*
D16*
X138350000Y-100150000D03*
X146000000Y-100300000D03*
%TO.N,VBUS*%
X140100000Y-95350000D03*
X144200000Y-95350000D03*
X141550000Y-94500000D03*
X143350000Y-94500000D03*
X140500000Y-94900000D03*
X143800000Y-94900000D03*
X142150000Y-94500000D03*
X142750000Y-94500000D03*
X140950000Y-94500000D03*
%TD*%
%TA.AperFunction,Conductor*%
%TO.N,GND*%
G36*
X147247805Y-90470738D02*
G01*
X147252403Y-90471140D01*
X147290290Y-90474454D01*
X147290731Y-90474495D01*
X147421868Y-90487409D01*
X147431910Y-90489235D01*
X147502484Y-90508144D01*
X147504355Y-90508679D01*
X147600840Y-90537946D01*
X147609099Y-90541106D01*
X147680466Y-90574385D01*
X147683484Y-90575893D01*
X147767408Y-90620750D01*
X147773773Y-90624661D01*
X147806109Y-90647302D01*
X147839894Y-90670958D01*
X147843695Y-90673842D01*
X147915895Y-90733094D01*
X147920440Y-90737213D01*
X147977878Y-90794651D01*
X147981997Y-90799195D01*
X148041241Y-90871383D01*
X148044125Y-90875184D01*
X148090421Y-90941300D01*
X148094344Y-90947686D01*
X148139196Y-91031595D01*
X148140720Y-91034645D01*
X148173983Y-91105979D01*
X148177148Y-91114249D01*
X148206410Y-91210710D01*
X148206971Y-91212677D01*
X148225855Y-91283154D01*
X148227685Y-91293209D01*
X148240685Y-91425307D01*
X148240747Y-91425979D01*
X148244347Y-91467110D01*
X148244585Y-91472559D01*
X148244585Y-93500099D01*
X148244594Y-93500122D01*
X148244600Y-93500174D01*
X148244600Y-93631119D01*
X148244866Y-93633144D01*
X148244867Y-93633150D01*
X148256615Y-93722382D01*
X148278829Y-93891114D01*
X148279359Y-93893092D01*
X148279360Y-93893097D01*
X148346168Y-94142430D01*
X148346170Y-94142436D01*
X148346701Y-94144416D01*
X148347480Y-94146298D01*
X148347484Y-94146308D01*
X148396720Y-94265173D01*
X148447055Y-94386693D01*
X148448074Y-94388458D01*
X148448077Y-94388464D01*
X148577155Y-94612036D01*
X148577160Y-94612043D01*
X148578173Y-94613798D01*
X148579410Y-94615410D01*
X148579412Y-94615413D01*
X148736567Y-94820223D01*
X148736569Y-94820225D01*
X148737813Y-94821846D01*
X148923243Y-95007277D01*
X149131289Y-95166918D01*
X149358394Y-95298039D01*
X149600669Y-95398394D01*
X149853972Y-95466268D01*
X150113966Y-95500499D01*
X150121323Y-95500499D01*
X150162532Y-95516009D01*
X150183288Y-95554841D01*
X150173290Y-95597722D01*
X150137499Y-95623369D01*
X149960199Y-95670876D01*
X149960190Y-95670878D01*
X149958611Y-95671302D01*
X149957086Y-95671887D01*
X149957081Y-95671889D01*
X149618113Y-95802007D01*
X149616592Y-95802591D01*
X149615158Y-95803321D01*
X149615137Y-95803331D01*
X149291633Y-95968165D01*
X149291624Y-95968169D01*
X149290170Y-95968911D01*
X149288802Y-95969799D01*
X149288794Y-95969804D01*
X148984290Y-96167552D01*
X148984282Y-96167557D01*
X148982922Y-96168441D01*
X148981660Y-96169462D01*
X148981653Y-96169468D01*
X148699482Y-96397964D01*
X148699466Y-96397977D01*
X148698213Y-96398993D01*
X148697066Y-96400139D01*
X148697056Y-96400149D01*
X148440319Y-96656886D01*
X148440309Y-96656896D01*
X148439163Y-96658043D01*
X148438147Y-96659296D01*
X148438134Y-96659312D01*
X148209638Y-96941483D01*
X148209632Y-96941490D01*
X148208611Y-96942752D01*
X148207727Y-96944112D01*
X148207722Y-96944120D01*
X148009974Y-97248624D01*
X148009969Y-97248632D01*
X148009081Y-97250000D01*
X148008339Y-97251454D01*
X148008335Y-97251463D01*
X147843501Y-97574967D01*
X147843491Y-97574988D01*
X147842761Y-97576422D01*
X147842178Y-97577940D01*
X147842177Y-97577943D01*
X147778509Y-97743805D01*
X147711472Y-97918441D01*
X147711048Y-97920020D01*
X147711046Y-97920029D01*
X147617079Y-98270717D01*
X147617076Y-98270727D01*
X147616653Y-98272309D01*
X147616398Y-98273917D01*
X147616396Y-98273928D01*
X147559596Y-98632547D01*
X147559594Y-98632563D01*
X147559343Y-98634150D01*
X147559258Y-98635765D01*
X147559257Y-98635778D01*
X147549784Y-98816546D01*
X147540170Y-99000000D01*
X147540256Y-99001641D01*
X147559257Y-99364221D01*
X147559258Y-99364232D01*
X147559343Y-99365850D01*
X147559594Y-99367438D01*
X147559596Y-99367452D01*
X147616396Y-99726071D01*
X147616653Y-99727691D01*
X147711472Y-100081559D01*
X147842761Y-100423578D01*
X147843495Y-100425018D01*
X147843501Y-100425032D01*
X148008335Y-100748536D01*
X148009081Y-100750000D01*
X148208611Y-101057248D01*
X148209638Y-101058516D01*
X148438134Y-101340687D01*
X148438139Y-101340693D01*
X148439163Y-101341957D01*
X148698213Y-101601007D01*
X148982922Y-101831559D01*
X149290170Y-102031089D01*
X149468938Y-102122175D01*
X149615137Y-102196668D01*
X149615142Y-102196670D01*
X149616592Y-102197409D01*
X149958611Y-102328698D01*
X150137443Y-102376616D01*
X150173232Y-102402260D01*
X150183232Y-102445139D01*
X150162480Y-102483971D01*
X150121275Y-102499485D01*
X150116015Y-102499485D01*
X150116000Y-102499485D01*
X150113965Y-102499486D01*
X150111941Y-102499752D01*
X150111933Y-102499753D01*
X149856000Y-102533449D01*
X149855991Y-102533450D01*
X149853969Y-102533717D01*
X149852005Y-102534243D01*
X149851991Y-102534246D01*
X149602637Y-102601063D01*
X149602628Y-102601065D01*
X149600665Y-102601592D01*
X149598782Y-102602371D01*
X149598776Y-102602374D01*
X149360287Y-102701160D01*
X149360274Y-102701166D01*
X149358387Y-102701948D01*
X149356609Y-102702974D01*
X149356604Y-102702977D01*
X149133063Y-102832040D01*
X149131281Y-102833069D01*
X149129655Y-102834316D01*
X149129650Y-102834320D01*
X148924865Y-102991459D01*
X148924858Y-102991464D01*
X148923233Y-102992712D01*
X148921785Y-102994159D01*
X148921777Y-102994167D01*
X148739249Y-103176696D01*
X148739241Y-103176704D01*
X148737802Y-103178144D01*
X148736567Y-103179753D01*
X148736556Y-103179766D01*
X148579400Y-103384578D01*
X148579393Y-103384587D01*
X148578161Y-103386194D01*
X148577152Y-103387940D01*
X148577143Y-103387955D01*
X148512312Y-103500247D01*
X148447041Y-103613300D01*
X148446264Y-103615175D01*
X148446259Y-103615186D01*
X148347470Y-103853687D01*
X148347466Y-103853696D01*
X148346687Y-103855579D01*
X148346159Y-103857548D01*
X148346155Y-103857561D01*
X148285944Y-104082272D01*
X148278814Y-104108883D01*
X148278546Y-104110913D01*
X148278546Y-104110917D01*
X148244852Y-104366848D01*
X148244851Y-104366855D01*
X148244585Y-104368880D01*
X148244585Y-104370927D01*
X148244585Y-106397271D01*
X148244347Y-106402720D01*
X148240637Y-106445110D01*
X148240574Y-106445787D01*
X148227673Y-106576780D01*
X148225844Y-106586830D01*
X148206958Y-106657313D01*
X148206397Y-106659281D01*
X148177133Y-106755747D01*
X148173968Y-106764017D01*
X148140707Y-106835345D01*
X148139183Y-106838393D01*
X148094332Y-106922303D01*
X148090409Y-106928690D01*
X148044115Y-106994804D01*
X148041231Y-106998605D01*
X147981986Y-107070795D01*
X147977866Y-107075340D01*
X147920427Y-107132777D01*
X147915883Y-107136896D01*
X147843689Y-107196143D01*
X147839888Y-107199026D01*
X147773780Y-107245315D01*
X147767393Y-107249239D01*
X147683492Y-107294083D01*
X147680444Y-107295607D01*
X147609096Y-107328876D01*
X147600826Y-107332040D01*
X147504388Y-107361294D01*
X147502420Y-107361856D01*
X147431906Y-107380749D01*
X147421861Y-107382577D01*
X147291854Y-107395390D01*
X147291171Y-107395453D01*
X147247634Y-107399262D01*
X147242187Y-107399500D01*
X137047815Y-107399500D01*
X137042366Y-107399262D01*
X136999978Y-107395552D01*
X136999300Y-107395489D01*
X136868307Y-107382586D01*
X136858257Y-107380757D01*
X136787733Y-107361859D01*
X136785779Y-107361301D01*
X136689340Y-107332045D01*
X136681076Y-107328883D01*
X136609737Y-107295616D01*
X136606688Y-107294092D01*
X136522782Y-107249242D01*
X136516396Y-107245319D01*
X136450284Y-107199026D01*
X136446483Y-107196142D01*
X136374296Y-107136899D01*
X136369756Y-107132785D01*
X136312296Y-107075324D01*
X136308197Y-107070800D01*
X136248923Y-106998575D01*
X136246084Y-106994831D01*
X136199760Y-106928674D01*
X136195862Y-106922330D01*
X136150978Y-106838357D01*
X136149498Y-106835396D01*
X136116207Y-106764002D01*
X136113048Y-106755744D01*
X136083779Y-106659256D01*
X136083235Y-106657350D01*
X136064337Y-106586823D01*
X136062509Y-106576779D01*
X136052526Y-106475500D01*
X136049689Y-106446712D01*
X136049631Y-106446080D01*
X136049605Y-106445787D01*
X136045822Y-106402548D01*
X136045585Y-106397102D01*
X136045585Y-105654069D01*
X137394585Y-105654069D01*
X137394586Y-105656518D01*
X137394969Y-105658940D01*
X137394970Y-105658945D01*
X137408669Y-105745448D01*
X137408670Y-105745453D01*
X137409439Y-105750304D01*
X137411668Y-105754680D01*
X137411670Y-105754684D01*
X137464803Y-105858963D01*
X137464805Y-105858966D01*
X137467035Y-105863342D01*
X137556743Y-105953050D01*
X137561119Y-105955280D01*
X137561121Y-105955281D01*
X137616962Y-105983733D01*
X137669781Y-106010646D01*
X137763566Y-106025500D01*
X139026603Y-106025499D01*
X139120389Y-106010646D01*
X139233427Y-105953050D01*
X139323135Y-105863342D01*
X139380731Y-105750304D01*
X139395585Y-105656519D01*
X139395584Y-105513507D01*
X139410390Y-105473118D01*
X139447793Y-105451863D01*
X139490072Y-105459817D01*
X139517195Y-105493210D01*
X139517844Y-105495101D01*
X139518475Y-105497591D01*
X139519509Y-105499948D01*
X139613995Y-105715356D01*
X139613997Y-105715361D01*
X139615036Y-105717728D01*
X139746514Y-105918969D01*
X139909321Y-106095825D01*
X140099018Y-106243472D01*
X140101285Y-106244699D01*
X140101290Y-106244702D01*
X140179419Y-106286983D01*
X140310429Y-106357882D01*
X140537788Y-106435934D01*
X140774893Y-106475500D01*
X141012690Y-106475500D01*
X141015277Y-106475500D01*
X141252382Y-106435934D01*
X141479741Y-106357882D01*
X141691152Y-106243472D01*
X141880849Y-106095825D01*
X142043656Y-105918969D01*
X142092763Y-105843804D01*
X142124791Y-105818876D01*
X142165379Y-105818876D01*
X142197406Y-105843804D01*
X142207310Y-105858963D01*
X142245100Y-105916806D01*
X142246514Y-105918969D01*
X142409321Y-106095825D01*
X142599018Y-106243472D01*
X142601285Y-106244699D01*
X142601290Y-106244702D01*
X142679419Y-106286983D01*
X142810429Y-106357882D01*
X143037788Y-106435934D01*
X143274893Y-106475500D01*
X143512690Y-106475500D01*
X143515277Y-106475500D01*
X143752382Y-106435934D01*
X143979741Y-106357882D01*
X144191152Y-106243472D01*
X144380849Y-106095825D01*
X144543656Y-105918969D01*
X144675134Y-105717728D01*
X144771695Y-105497591D01*
X144793650Y-105410891D01*
X144815277Y-105377364D01*
X144852782Y-105363752D01*
X144890881Y-105375604D01*
X144914045Y-105408090D01*
X144919423Y-105425816D01*
X144921766Y-105431474D01*
X145016367Y-105608459D01*
X145019766Y-105613547D01*
X145147084Y-105768684D01*
X145151400Y-105773000D01*
X145306537Y-105900318D01*
X145311625Y-105903717D01*
X145488610Y-105998318D01*
X145494263Y-106000660D01*
X145686315Y-106058918D01*
X145692301Y-106060108D01*
X145761376Y-106066912D01*
X145768184Y-106065673D01*
X145770085Y-106059019D01*
X146020085Y-106059019D01*
X146021985Y-106065673D01*
X146028793Y-106066912D01*
X146097868Y-106060108D01*
X146103854Y-106058918D01*
X146295906Y-106000660D01*
X146301559Y-105998318D01*
X146478544Y-105903717D01*
X146483632Y-105900318D01*
X146638769Y-105773000D01*
X146643085Y-105768684D01*
X146770403Y-105613547D01*
X146773802Y-105608459D01*
X146868403Y-105431474D01*
X146870745Y-105425821D01*
X146929003Y-105233769D01*
X146930193Y-105227783D01*
X146944933Y-105078121D01*
X146945085Y-105075047D01*
X146945085Y-105037431D01*
X146941443Y-105028641D01*
X146932654Y-105025000D01*
X146032516Y-105025000D01*
X146023726Y-105028641D01*
X146020085Y-105037431D01*
X146020085Y-106059019D01*
X145770085Y-106059019D01*
X145770085Y-104762569D01*
X146020085Y-104762569D01*
X146023726Y-104771358D01*
X146032516Y-104775000D01*
X146932654Y-104775000D01*
X146941443Y-104771358D01*
X146945085Y-104762569D01*
X146945085Y-104724953D01*
X146944933Y-104721878D01*
X146930193Y-104572216D01*
X146929003Y-104566230D01*
X146870745Y-104374178D01*
X146868403Y-104368525D01*
X146773802Y-104191540D01*
X146770403Y-104186452D01*
X146643085Y-104031315D01*
X146638769Y-104026999D01*
X146483632Y-103899681D01*
X146478544Y-103896282D01*
X146301559Y-103801681D01*
X146295906Y-103799339D01*
X146103854Y-103741081D01*
X146097868Y-103739891D01*
X146028793Y-103733087D01*
X146021985Y-103734326D01*
X146020085Y-103740981D01*
X146020085Y-104762569D01*
X145770085Y-104762569D01*
X145770085Y-103740981D01*
X145768184Y-103734326D01*
X145761376Y-103733087D01*
X145692301Y-103739891D01*
X145686315Y-103741081D01*
X145494263Y-103799339D01*
X145488610Y-103801681D01*
X145311625Y-103896282D01*
X145306537Y-103899681D01*
X145151400Y-104026999D01*
X145147084Y-104031315D01*
X145019766Y-104186452D01*
X145016367Y-104191540D01*
X144921766Y-104368525D01*
X144919423Y-104374181D01*
X144914045Y-104391910D01*
X144890880Y-104424395D01*
X144852782Y-104436247D01*
X144815277Y-104422635D01*
X144793649Y-104389106D01*
X144788527Y-104368880D01*
X144771695Y-104302409D01*
X144675134Y-104082272D01*
X144543656Y-103881031D01*
X144380849Y-103704175D01*
X144191152Y-103556528D01*
X144188887Y-103555302D01*
X144188879Y-103555297D01*
X144031813Y-103470297D01*
X143979741Y-103442118D01*
X143977298Y-103441279D01*
X143977295Y-103441278D01*
X143754824Y-103364904D01*
X143754820Y-103364903D01*
X143752382Y-103364066D01*
X143749840Y-103363641D01*
X143749833Y-103363640D01*
X143517826Y-103324925D01*
X143517821Y-103324924D01*
X143515277Y-103324500D01*
X143274893Y-103324500D01*
X143272349Y-103324924D01*
X143272343Y-103324925D01*
X143040336Y-103363640D01*
X143040326Y-103363642D01*
X143037788Y-103364066D01*
X143035352Y-103364902D01*
X143035345Y-103364904D01*
X142812874Y-103441278D01*
X142812867Y-103441280D01*
X142810429Y-103442118D01*
X142808154Y-103443348D01*
X142808152Y-103443350D01*
X142601290Y-103555297D01*
X142601277Y-103555305D01*
X142599018Y-103556528D01*
X142596978Y-103558115D01*
X142596976Y-103558117D01*
X142411365Y-103702583D01*
X142411357Y-103702590D01*
X142409321Y-103704175D01*
X142407569Y-103706077D01*
X142407568Y-103706079D01*
X142248263Y-103879130D01*
X142248257Y-103879136D01*
X142246514Y-103881031D01*
X142245106Y-103883184D01*
X142245102Y-103883191D01*
X142197408Y-103956192D01*
X142165379Y-103981121D01*
X142124791Y-103981121D01*
X142092762Y-103956192D01*
X142053620Y-103896282D01*
X142043656Y-103881031D01*
X141880849Y-103704175D01*
X141691152Y-103556528D01*
X141688887Y-103555302D01*
X141688879Y-103555297D01*
X141531813Y-103470297D01*
X141479741Y-103442118D01*
X141477298Y-103441279D01*
X141477295Y-103441278D01*
X141254824Y-103364904D01*
X141254820Y-103364903D01*
X141252382Y-103364066D01*
X141249840Y-103363641D01*
X141249833Y-103363640D01*
X141017826Y-103324925D01*
X141017821Y-103324924D01*
X141015277Y-103324500D01*
X140774893Y-103324500D01*
X140772349Y-103324924D01*
X140772343Y-103324925D01*
X140540336Y-103363640D01*
X140540326Y-103363642D01*
X140537788Y-103364066D01*
X140535352Y-103364902D01*
X140535345Y-103364904D01*
X140312874Y-103441278D01*
X140312867Y-103441280D01*
X140310429Y-103442118D01*
X140308154Y-103443348D01*
X140308152Y-103443350D01*
X140101290Y-103555297D01*
X140101277Y-103555305D01*
X140099018Y-103556528D01*
X140096978Y-103558115D01*
X140096976Y-103558117D01*
X139911365Y-103702583D01*
X139911357Y-103702590D01*
X139909321Y-103704175D01*
X139907569Y-103706077D01*
X139907568Y-103706079D01*
X139748262Y-103879131D01*
X139748256Y-103879138D01*
X139746514Y-103881031D01*
X139745104Y-103883189D01*
X139745101Y-103883193D01*
X139616453Y-104080102D01*
X139616449Y-104080108D01*
X139615036Y-104082272D01*
X139614000Y-104084633D01*
X139613995Y-104084643D01*
X139519511Y-104300046D01*
X139519509Y-104300051D01*
X139518475Y-104302409D01*
X139517843Y-104304903D01*
X139517196Y-104306789D01*
X139490074Y-104340184D01*
X139447795Y-104348138D01*
X139410391Y-104326884D01*
X139395584Y-104286491D01*
X139395584Y-104145942D01*
X139395584Y-104145940D01*
X139395584Y-104143482D01*
X139380731Y-104049696D01*
X139373894Y-104036278D01*
X139325366Y-103941036D01*
X139325365Y-103941034D01*
X139323135Y-103936658D01*
X139233427Y-103846950D01*
X139229051Y-103844720D01*
X139229048Y-103844718D01*
X139124770Y-103791586D01*
X139124768Y-103791585D01*
X139120389Y-103789354D01*
X139115536Y-103788585D01*
X139115532Y-103788584D01*
X139029030Y-103774884D01*
X139029027Y-103774883D01*
X139026604Y-103774500D01*
X139024144Y-103774500D01*
X137766027Y-103774500D01*
X137766014Y-103774500D01*
X137763567Y-103774501D01*
X137761145Y-103774884D01*
X137761139Y-103774885D01*
X137674636Y-103788584D01*
X137674629Y-103788586D01*
X137669781Y-103789354D01*
X137665406Y-103791582D01*
X137665400Y-103791585D01*
X137561121Y-103844718D01*
X137561115Y-103844722D01*
X137556743Y-103846950D01*
X137553269Y-103850423D01*
X137553266Y-103850426D01*
X137470511Y-103933181D01*
X137470508Y-103933184D01*
X137467035Y-103936658D01*
X137464807Y-103941030D01*
X137464803Y-103941036D01*
X137411671Y-104045314D01*
X137411671Y-104045315D01*
X137409439Y-104049696D01*
X137408670Y-104054546D01*
X137408669Y-104054552D01*
X137394969Y-104141054D01*
X137394585Y-104143481D01*
X137394585Y-104145939D01*
X137394585Y-104145940D01*
X137394585Y-105654057D01*
X137394585Y-105654069D01*
X136045585Y-105654069D01*
X136045585Y-104500036D01*
X136045592Y-104500000D01*
X136045600Y-104500000D01*
X136045600Y-104368880D01*
X136011370Y-104108883D01*
X135943497Y-103855578D01*
X135843141Y-103613299D01*
X135712020Y-103386193D01*
X135695684Y-103364904D01*
X135553622Y-103179765D01*
X135553620Y-103179763D01*
X135552378Y-103178144D01*
X135366945Y-102992712D01*
X135365327Y-102991471D01*
X135365322Y-102991466D01*
X135160510Y-102834310D01*
X135160507Y-102834308D01*
X135158895Y-102833071D01*
X135157140Y-102832058D01*
X135157133Y-102832053D01*
X134933554Y-102702972D01*
X134933552Y-102702971D01*
X134931787Y-102701952D01*
X134929904Y-102701172D01*
X134929900Y-102701170D01*
X134691399Y-102602381D01*
X134691395Y-102602379D01*
X134689508Y-102601598D01*
X134687534Y-102601069D01*
X134687525Y-102601066D01*
X134438186Y-102534258D01*
X134438181Y-102534257D01*
X134436203Y-102533727D01*
X134434169Y-102533459D01*
X134434168Y-102533459D01*
X134178236Y-102499766D01*
X134178230Y-102499765D01*
X134176205Y-102499499D01*
X134174158Y-102499499D01*
X134168854Y-102499499D01*
X134127645Y-102483989D01*
X134106889Y-102445157D01*
X134116887Y-102402276D01*
X134152677Y-102376629D01*
X134331559Y-102328698D01*
X134673578Y-102197409D01*
X135000000Y-102031089D01*
X135307248Y-101831559D01*
X135591957Y-101601007D01*
X135851007Y-101341957D01*
X136081559Y-101057248D01*
X136281089Y-100750000D01*
X136447409Y-100423578D01*
X136578698Y-100081559D01*
X136673517Y-99727691D01*
X136730827Y-99365850D01*
X136750000Y-99000000D01*
X136730827Y-98634150D01*
X136673517Y-98272309D01*
X136578698Y-97918441D01*
X136447409Y-97576422D01*
X136281089Y-97250000D01*
X136081559Y-96942752D01*
X135851007Y-96658043D01*
X135733412Y-96540448D01*
X137125085Y-96540448D01*
X137125313Y-96544220D01*
X137139977Y-96664993D01*
X137141776Y-96672291D01*
X137199372Y-96824156D01*
X137202861Y-96830806D01*
X137295133Y-96964486D01*
X137300107Y-96970101D01*
X137421686Y-97077810D01*
X137427869Y-97082078D01*
X137571689Y-97157560D01*
X137578710Y-97160222D01*
X137690849Y-97187863D01*
X137697963Y-97187433D01*
X137700085Y-97180626D01*
X137950085Y-97180626D01*
X137952206Y-97187433D01*
X137959320Y-97187863D01*
X138071459Y-97160222D01*
X138078480Y-97157560D01*
X138222300Y-97082078D01*
X138228483Y-97077810D01*
X138350062Y-96970101D01*
X138355036Y-96964486D01*
X138447308Y-96830806D01*
X138450797Y-96824156D01*
X138508393Y-96672291D01*
X138510192Y-96664993D01*
X138524856Y-96544220D01*
X138525085Y-96540448D01*
X145765085Y-96540448D01*
X145765313Y-96544220D01*
X145779977Y-96664993D01*
X145781776Y-96672291D01*
X145839372Y-96824156D01*
X145842861Y-96830806D01*
X145935133Y-96964486D01*
X145940107Y-96970101D01*
X146061686Y-97077810D01*
X146067869Y-97082078D01*
X146211689Y-97157560D01*
X146218710Y-97160222D01*
X146330849Y-97187863D01*
X146337963Y-97187433D01*
X146340085Y-97180626D01*
X146590085Y-97180626D01*
X146592206Y-97187433D01*
X146599320Y-97187863D01*
X146711459Y-97160222D01*
X146718480Y-97157560D01*
X146862300Y-97082078D01*
X146868483Y-97077810D01*
X146990062Y-96970101D01*
X146995036Y-96964486D01*
X147087308Y-96830806D01*
X147090797Y-96824156D01*
X147148393Y-96672291D01*
X147150192Y-96664993D01*
X147164856Y-96544220D01*
X147165085Y-96540448D01*
X147165085Y-96087431D01*
X147161443Y-96078641D01*
X147152654Y-96075000D01*
X146602516Y-96075000D01*
X146593726Y-96078641D01*
X146590085Y-96087431D01*
X146590085Y-97180626D01*
X146340085Y-97180626D01*
X146340085Y-96087431D01*
X146336443Y-96078641D01*
X146327654Y-96075000D01*
X145777516Y-96075000D01*
X145768726Y-96078641D01*
X145765085Y-96087431D01*
X145765085Y-96540448D01*
X138525085Y-96540448D01*
X138525085Y-96087431D01*
X138521443Y-96078641D01*
X138512654Y-96075000D01*
X137962516Y-96075000D01*
X137953726Y-96078641D01*
X137950085Y-96087431D01*
X137950085Y-97180626D01*
X137700085Y-97180626D01*
X137700085Y-96087431D01*
X137696443Y-96078641D01*
X137687654Y-96075000D01*
X137137516Y-96075000D01*
X137128726Y-96078641D01*
X137125085Y-96087431D01*
X137125085Y-96540448D01*
X135733412Y-96540448D01*
X135591957Y-96398993D01*
X135590693Y-96397969D01*
X135590687Y-96397964D01*
X135308516Y-96169468D01*
X135307248Y-96168441D01*
X135000000Y-95968911D01*
X134998536Y-95968165D01*
X134693163Y-95812569D01*
X137125085Y-95812569D01*
X137128726Y-95821358D01*
X137137516Y-95825000D01*
X137687654Y-95825000D01*
X137696443Y-95821358D01*
X137700085Y-95812569D01*
X137950085Y-95812569D01*
X137953726Y-95821358D01*
X137962516Y-95825000D01*
X138512654Y-95825000D01*
X138521443Y-95821358D01*
X138525085Y-95812569D01*
X138525085Y-95450000D01*
X138674619Y-95450000D01*
X138675154Y-95454064D01*
X138681135Y-95499498D01*
X138694398Y-95600236D01*
X138695965Y-95604020D01*
X138695966Y-95604022D01*
X138750817Y-95736443D01*
X138752387Y-95740233D01*
X138754882Y-95743484D01*
X138754883Y-95743486D01*
X138763505Y-95754723D01*
X138844634Y-95860451D01*
X138964852Y-95952698D01*
X139104849Y-96010687D01*
X139217365Y-96025500D01*
X139290758Y-96025500D01*
X139292805Y-96025500D01*
X139405321Y-96010687D01*
X139545318Y-95952698D01*
X139665536Y-95860451D01*
X139757783Y-95740233D01*
X139771573Y-95706939D01*
X139795278Y-95678438D01*
X139830957Y-95668378D01*
X139861331Y-95678691D01*
X139861658Y-95678050D01*
X139974696Y-95735646D01*
X140100000Y-95755492D01*
X140225304Y-95735646D01*
X140338342Y-95678050D01*
X140428050Y-95588342D01*
X140485646Y-95475304D01*
X140505492Y-95350000D01*
X140507605Y-95350334D01*
X140519685Y-95317548D01*
X140557444Y-95296393D01*
X140625304Y-95285646D01*
X140738342Y-95228050D01*
X140828050Y-95138342D01*
X140885646Y-95025304D01*
X140896393Y-94957444D01*
X140917548Y-94919685D01*
X140950334Y-94907605D01*
X140950000Y-94905492D01*
X141075304Y-94885646D01*
X141188342Y-94828050D01*
X141205806Y-94810586D01*
X141250000Y-94792280D01*
X141294194Y-94810586D01*
X141311658Y-94828050D01*
X141316034Y-94830280D01*
X141316036Y-94830281D01*
X141371877Y-94858733D01*
X141424696Y-94885646D01*
X141550000Y-94905492D01*
X141675304Y-94885646D01*
X141788342Y-94828050D01*
X141805806Y-94810586D01*
X141850000Y-94792280D01*
X141894194Y-94810586D01*
X141911658Y-94828050D01*
X141916034Y-94830280D01*
X141916036Y-94830281D01*
X141971877Y-94858733D01*
X142024696Y-94885646D01*
X142150000Y-94905492D01*
X142275304Y-94885646D01*
X142388342Y-94828050D01*
X142405806Y-94810586D01*
X142450000Y-94792280D01*
X142494194Y-94810586D01*
X142511658Y-94828050D01*
X142516034Y-94830280D01*
X142516036Y-94830281D01*
X142571877Y-94858733D01*
X142624696Y-94885646D01*
X142750000Y-94905492D01*
X142875304Y-94885646D01*
X142988342Y-94828050D01*
X143005806Y-94810586D01*
X143050000Y-94792280D01*
X143094194Y-94810586D01*
X143111658Y-94828050D01*
X143116034Y-94830280D01*
X143116036Y-94830281D01*
X143171877Y-94858733D01*
X143224696Y-94885646D01*
X143350000Y-94905492D01*
X143349665Y-94907605D01*
X143382451Y-94919684D01*
X143403605Y-94957445D01*
X143413582Y-95020441D01*
X143413585Y-95020451D01*
X143414354Y-95025304D01*
X143416585Y-95029683D01*
X143416586Y-95029685D01*
X143469718Y-95133963D01*
X143469720Y-95133966D01*
X143471950Y-95138342D01*
X143561658Y-95228050D01*
X143566034Y-95230280D01*
X143566036Y-95230281D01*
X143621877Y-95258733D01*
X143674696Y-95285646D01*
X143679552Y-95286415D01*
X143679558Y-95286417D01*
X143742554Y-95296395D01*
X143780302Y-95317535D01*
X143792402Y-95350333D01*
X143794508Y-95350000D01*
X143813584Y-95470447D01*
X143813585Y-95470451D01*
X143814354Y-95475304D01*
X143816585Y-95479683D01*
X143816586Y-95479685D01*
X143869718Y-95583963D01*
X143869720Y-95583966D01*
X143871950Y-95588342D01*
X143961658Y-95678050D01*
X143966034Y-95680280D01*
X143966036Y-95680281D01*
X144018356Y-95706939D01*
X144074696Y-95735646D01*
X144200000Y-95755492D01*
X144325304Y-95735646D01*
X144434488Y-95680013D01*
X144467764Y-95673395D01*
X144499597Y-95685138D01*
X144520603Y-95711784D01*
X144530805Y-95736415D01*
X144532387Y-95740233D01*
X144534882Y-95743484D01*
X144534883Y-95743486D01*
X144543505Y-95754723D01*
X144624634Y-95860451D01*
X144744852Y-95952698D01*
X144884849Y-96010687D01*
X144997365Y-96025500D01*
X145070758Y-96025500D01*
X145072805Y-96025500D01*
X145185321Y-96010687D01*
X145325318Y-95952698D01*
X145445536Y-95860451D01*
X145482277Y-95812569D01*
X145765085Y-95812569D01*
X145768726Y-95821358D01*
X145777516Y-95825000D01*
X146327654Y-95825000D01*
X146336443Y-95821358D01*
X146340085Y-95812569D01*
X146590085Y-95812569D01*
X146593726Y-95821358D01*
X146602516Y-95825000D01*
X147152654Y-95825000D01*
X147161443Y-95821358D01*
X147165085Y-95812569D01*
X147165085Y-95359553D01*
X147164856Y-95355779D01*
X147150192Y-95235006D01*
X147148393Y-95227708D01*
X147090797Y-95075843D01*
X147087308Y-95069193D01*
X146995036Y-94935513D01*
X146990062Y-94929898D01*
X146868483Y-94822189D01*
X146862300Y-94817921D01*
X146718480Y-94742439D01*
X146711459Y-94739777D01*
X146599320Y-94712136D01*
X146592206Y-94712566D01*
X146590085Y-94719374D01*
X146590085Y-95812569D01*
X146340085Y-95812569D01*
X146340085Y-94719374D01*
X146337963Y-94712566D01*
X146330849Y-94712136D01*
X146218710Y-94739777D01*
X146211689Y-94742439D01*
X146067869Y-94817921D01*
X146061686Y-94822189D01*
X145940107Y-94929898D01*
X145935133Y-94935513D01*
X145842861Y-95069193D01*
X145839372Y-95075843D01*
X145781776Y-95227708D01*
X145779977Y-95235006D01*
X145765313Y-95355779D01*
X145765085Y-95359553D01*
X145765085Y-95812569D01*
X145482277Y-95812569D01*
X145537783Y-95740233D01*
X145595772Y-95600236D01*
X145615551Y-95450000D01*
X145595772Y-95299764D01*
X145537783Y-95159767D01*
X145445536Y-95039549D01*
X145401591Y-95005829D01*
X145328571Y-94949798D01*
X145328570Y-94949797D01*
X145325318Y-94947302D01*
X145289465Y-94932451D01*
X145189107Y-94890881D01*
X145189105Y-94890880D01*
X145185321Y-94889313D01*
X145181258Y-94888778D01*
X145074836Y-94874767D01*
X145074830Y-94874766D01*
X145072805Y-94874500D01*
X144997365Y-94874500D01*
X144995340Y-94874766D01*
X144995333Y-94874767D01*
X144888911Y-94888778D01*
X144888909Y-94888778D01*
X144884849Y-94889313D01*
X144881066Y-94890879D01*
X144881062Y-94890881D01*
X144748641Y-94945732D01*
X144748637Y-94945733D01*
X144744852Y-94947302D01*
X144741602Y-94949795D01*
X144741598Y-94949798D01*
X144627883Y-95037055D01*
X144627878Y-95037059D01*
X144624634Y-95039549D01*
X144622143Y-95042794D01*
X144622138Y-95042800D01*
X144594774Y-95078460D01*
X144566566Y-95099142D01*
X144531663Y-95101429D01*
X144500997Y-95084605D01*
X144441818Y-95025426D01*
X144438342Y-95021950D01*
X144433966Y-95019720D01*
X144433963Y-95019718D01*
X144329685Y-94966586D01*
X144329683Y-94966585D01*
X144325304Y-94964354D01*
X144320451Y-94963585D01*
X144320441Y-94963582D01*
X144257445Y-94953605D01*
X144219684Y-94932451D01*
X144207605Y-94899665D01*
X144205492Y-94900000D01*
X144185646Y-94774696D01*
X144128050Y-94661658D01*
X144038342Y-94571950D01*
X144033966Y-94569720D01*
X144033963Y-94569718D01*
X143929685Y-94516586D01*
X143929683Y-94516585D01*
X143925304Y-94514354D01*
X143920451Y-94513585D01*
X143920447Y-94513584D01*
X143800000Y-94494508D01*
X143800333Y-94492402D01*
X143767535Y-94480302D01*
X143746395Y-94442554D01*
X143736417Y-94379558D01*
X143736415Y-94379552D01*
X143735646Y-94374696D01*
X143678050Y-94261658D01*
X143588342Y-94171950D01*
X143583966Y-94169720D01*
X143583963Y-94169718D01*
X143479685Y-94116586D01*
X143479683Y-94116585D01*
X143475304Y-94114354D01*
X143470451Y-94113585D01*
X143470447Y-94113584D01*
X143354855Y-94095277D01*
X143350000Y-94094508D01*
X143345145Y-94095277D01*
X143229552Y-94113584D01*
X143229546Y-94113585D01*
X143224696Y-94114354D01*
X143220318Y-94116584D01*
X143220314Y-94116586D01*
X143116036Y-94169718D01*
X143116030Y-94169722D01*
X143111658Y-94171950D01*
X143108184Y-94175423D01*
X143108181Y-94175426D01*
X143094194Y-94189414D01*
X143050000Y-94207720D01*
X143005806Y-94189414D01*
X142991818Y-94175426D01*
X142991818Y-94175425D01*
X142988342Y-94171950D01*
X142983966Y-94169720D01*
X142983963Y-94169718D01*
X142879685Y-94116586D01*
X142879683Y-94116585D01*
X142875304Y-94114354D01*
X142870451Y-94113585D01*
X142870447Y-94113584D01*
X142754855Y-94095277D01*
X142750000Y-94094508D01*
X142745145Y-94095277D01*
X142629552Y-94113584D01*
X142629546Y-94113585D01*
X142624696Y-94114354D01*
X142620318Y-94116584D01*
X142620314Y-94116586D01*
X142516036Y-94169718D01*
X142516030Y-94169722D01*
X142511658Y-94171950D01*
X142508184Y-94175423D01*
X142508181Y-94175426D01*
X142494194Y-94189414D01*
X142450000Y-94207720D01*
X142405806Y-94189414D01*
X142391818Y-94175426D01*
X142391818Y-94175425D01*
X142388342Y-94171950D01*
X142383966Y-94169720D01*
X142383963Y-94169718D01*
X142279685Y-94116586D01*
X142279683Y-94116585D01*
X142275304Y-94114354D01*
X142270451Y-94113585D01*
X142270447Y-94113584D01*
X142154855Y-94095277D01*
X142150000Y-94094508D01*
X142145145Y-94095277D01*
X142029552Y-94113584D01*
X142029546Y-94113585D01*
X142024696Y-94114354D01*
X142020318Y-94116584D01*
X142020314Y-94116586D01*
X141916036Y-94169718D01*
X141916030Y-94169722D01*
X141911658Y-94171950D01*
X141908184Y-94175423D01*
X141908181Y-94175426D01*
X141894194Y-94189414D01*
X141850000Y-94207720D01*
X141805806Y-94189414D01*
X141791818Y-94175426D01*
X141791818Y-94175425D01*
X141788342Y-94171950D01*
X141783966Y-94169720D01*
X141783963Y-94169718D01*
X141679685Y-94116586D01*
X141679683Y-94116585D01*
X141675304Y-94114354D01*
X141670451Y-94113585D01*
X141670447Y-94113584D01*
X141554855Y-94095277D01*
X141550000Y-94094508D01*
X141545145Y-94095277D01*
X141429552Y-94113584D01*
X141429546Y-94113585D01*
X141424696Y-94114354D01*
X141420318Y-94116584D01*
X141420314Y-94116586D01*
X141316036Y-94169718D01*
X141316030Y-94169722D01*
X141311658Y-94171950D01*
X141308184Y-94175423D01*
X141308181Y-94175426D01*
X141294194Y-94189414D01*
X141250000Y-94207720D01*
X141205806Y-94189414D01*
X141191818Y-94175426D01*
X141191818Y-94175425D01*
X141188342Y-94171950D01*
X141183966Y-94169720D01*
X141183963Y-94169718D01*
X141079685Y-94116586D01*
X141079683Y-94116585D01*
X141075304Y-94114354D01*
X141070451Y-94113585D01*
X141070447Y-94113584D01*
X140954855Y-94095277D01*
X140950000Y-94094508D01*
X140945145Y-94095277D01*
X140829552Y-94113584D01*
X140829546Y-94113585D01*
X140824696Y-94114354D01*
X140820318Y-94116584D01*
X140820314Y-94116586D01*
X140716036Y-94169718D01*
X140716030Y-94169722D01*
X140711658Y-94171950D01*
X140708184Y-94175423D01*
X140708181Y-94175426D01*
X140625426Y-94258181D01*
X140625423Y-94258184D01*
X140621950Y-94261658D01*
X140619722Y-94266030D01*
X140619718Y-94266036D01*
X140566586Y-94370314D01*
X140566584Y-94370318D01*
X140564354Y-94374696D01*
X140563585Y-94379546D01*
X140563582Y-94379558D01*
X140553605Y-94442554D01*
X140532465Y-94480302D01*
X140499666Y-94492402D01*
X140500000Y-94494508D01*
X140379552Y-94513584D01*
X140379546Y-94513585D01*
X140374696Y-94514354D01*
X140370318Y-94516584D01*
X140370314Y-94516586D01*
X140266036Y-94569718D01*
X140266030Y-94569722D01*
X140261658Y-94571950D01*
X140258184Y-94575423D01*
X140258181Y-94575426D01*
X140175426Y-94658181D01*
X140175423Y-94658184D01*
X140171950Y-94661658D01*
X140169722Y-94666030D01*
X140169718Y-94666036D01*
X140116586Y-94770314D01*
X140116584Y-94770318D01*
X140114354Y-94774696D01*
X140113585Y-94779546D01*
X140113584Y-94779552D01*
X140094508Y-94900000D01*
X140092402Y-94899666D01*
X140080302Y-94932465D01*
X140042554Y-94953605D01*
X139979558Y-94963582D01*
X139979546Y-94963585D01*
X139974696Y-94964354D01*
X139970318Y-94966584D01*
X139970314Y-94966586D01*
X139866036Y-95019718D01*
X139866030Y-95019722D01*
X139861658Y-95021950D01*
X139858184Y-95025423D01*
X139858181Y-95025426D01*
X139793440Y-95090167D01*
X139762773Y-95106992D01*
X139727870Y-95104704D01*
X139699662Y-95084021D01*
X139668031Y-95042799D01*
X139668025Y-95042793D01*
X139665536Y-95039549D01*
X139570449Y-94966586D01*
X139548571Y-94949798D01*
X139548570Y-94949797D01*
X139545318Y-94947302D01*
X139509465Y-94932451D01*
X139409107Y-94890881D01*
X139409105Y-94890880D01*
X139405321Y-94889313D01*
X139401258Y-94888778D01*
X139294836Y-94874767D01*
X139294830Y-94874766D01*
X139292805Y-94874500D01*
X139217365Y-94874500D01*
X139215340Y-94874766D01*
X139215333Y-94874767D01*
X139108911Y-94888778D01*
X139108909Y-94888778D01*
X139104849Y-94889313D01*
X139101066Y-94890879D01*
X139101062Y-94890881D01*
X138968641Y-94945732D01*
X138968637Y-94945733D01*
X138964852Y-94947302D01*
X138961602Y-94949795D01*
X138961598Y-94949798D01*
X138847883Y-95037055D01*
X138847878Y-95037059D01*
X138844634Y-95039549D01*
X138842144Y-95042793D01*
X138842140Y-95042798D01*
X138754883Y-95156513D01*
X138754880Y-95156517D01*
X138752387Y-95159767D01*
X138750818Y-95163552D01*
X138750817Y-95163556D01*
X138695966Y-95295977D01*
X138695964Y-95295981D01*
X138694398Y-95299764D01*
X138693863Y-95303824D01*
X138693863Y-95303826D01*
X138677073Y-95431357D01*
X138674619Y-95450000D01*
X138525085Y-95450000D01*
X138525085Y-95359553D01*
X138524856Y-95355779D01*
X138510192Y-95235006D01*
X138508393Y-95227708D01*
X138450797Y-95075843D01*
X138447308Y-95069193D01*
X138355036Y-94935513D01*
X138350062Y-94929898D01*
X138228483Y-94822189D01*
X138222300Y-94817921D01*
X138078480Y-94742439D01*
X138071459Y-94739777D01*
X137959320Y-94712136D01*
X137952206Y-94712566D01*
X137950085Y-94719374D01*
X137950085Y-95812569D01*
X137700085Y-95812569D01*
X137700085Y-94719374D01*
X137697963Y-94712566D01*
X137690849Y-94712136D01*
X137578710Y-94739777D01*
X137571689Y-94742439D01*
X137427869Y-94817921D01*
X137421686Y-94822189D01*
X137300107Y-94929898D01*
X137295133Y-94935513D01*
X137202861Y-95069193D01*
X137199372Y-95075843D01*
X137141776Y-95227708D01*
X137139977Y-95235006D01*
X137125313Y-95355779D01*
X137125085Y-95359553D01*
X137125085Y-95812569D01*
X134693163Y-95812569D01*
X134675032Y-95803331D01*
X134675018Y-95803325D01*
X134673578Y-95802591D01*
X134331559Y-95671302D01*
X134329973Y-95670877D01*
X134329970Y-95670876D01*
X134152622Y-95623355D01*
X134116830Y-95597706D01*
X134106833Y-95554823D01*
X134127594Y-95515991D01*
X134168803Y-95500485D01*
X134176204Y-95500486D01*
X134436200Y-95466258D01*
X134689503Y-95398388D01*
X134931781Y-95298035D01*
X135158887Y-95166916D01*
X135366935Y-95007277D01*
X135552367Y-94821847D01*
X135712008Y-94613799D01*
X135843128Y-94386694D01*
X135943483Y-94144417D01*
X136011355Y-93891114D01*
X136045585Y-93631119D01*
X136045585Y-93500000D01*
X136045585Y-93499500D01*
X136045585Y-92210448D01*
X137125085Y-92210448D01*
X137125313Y-92214220D01*
X137139977Y-92334993D01*
X137141776Y-92342291D01*
X137199372Y-92494156D01*
X137202861Y-92500806D01*
X137295133Y-92634486D01*
X137300107Y-92640101D01*
X137421686Y-92747810D01*
X137427869Y-92752078D01*
X137571689Y-92827560D01*
X137578710Y-92830222D01*
X137690849Y-92857863D01*
X137697963Y-92857433D01*
X137700085Y-92850626D01*
X137950085Y-92850626D01*
X137952206Y-92857433D01*
X137959320Y-92857863D01*
X138071459Y-92830222D01*
X138078480Y-92827560D01*
X138222300Y-92752078D01*
X138228483Y-92747810D01*
X138350062Y-92640101D01*
X138355036Y-92634486D01*
X138398569Y-92571417D01*
X140897185Y-92571417D01*
X140898025Y-92575413D01*
X140898275Y-92578683D01*
X140898447Y-92582341D01*
X140899458Y-92639617D01*
X140899186Y-92643259D01*
X140899378Y-92643266D01*
X140899230Y-92647355D01*
X140898550Y-92651397D01*
X140898938Y-92655476D01*
X140898938Y-92655481D01*
X140899691Y-92663398D01*
X140899962Y-92668209D01*
X140900102Y-92676157D01*
X140900102Y-92676162D01*
X140900175Y-92680253D01*
X140901303Y-92684187D01*
X140901910Y-92688240D01*
X140901722Y-92688268D01*
X140902398Y-92691849D01*
X140907424Y-92744660D01*
X140907587Y-92753481D01*
X140907617Y-92753901D01*
X140907382Y-92757983D01*
X140908211Y-92761992D01*
X140908212Y-92761998D01*
X140909115Y-92766364D01*
X140910129Y-92773098D01*
X140910552Y-92777543D01*
X140910554Y-92777552D01*
X140910942Y-92781626D01*
X140912370Y-92785461D01*
X140912461Y-92785854D01*
X140914906Y-92794348D01*
X140923813Y-92837390D01*
X140924587Y-92841986D01*
X140925648Y-92850141D01*
X140925649Y-92850144D01*
X140926177Y-92854202D01*
X140927736Y-92857983D01*
X140928198Y-92859716D01*
X140928779Y-92861385D01*
X140929608Y-92865390D01*
X140931445Y-92869044D01*
X140931446Y-92869047D01*
X140935150Y-92876414D01*
X140937087Y-92880655D01*
X140982756Y-92991379D01*
X140984198Y-92995230D01*
X140987136Y-93003939D01*
X140987138Y-93003943D01*
X140988448Y-93007826D01*
X140990715Y-93011232D01*
X140991201Y-93012222D01*
X140991738Y-93013157D01*
X140993297Y-93016935D01*
X140995782Y-93020184D01*
X140997639Y-93023411D01*
X141003079Y-93058222D01*
X141004452Y-93058154D01*
X141004859Y-93066370D01*
X141003128Y-93074413D01*
X141005647Y-93082241D01*
X141005648Y-93082244D01*
X141015472Y-93112762D01*
X141015685Y-93113438D01*
X141019542Y-93125904D01*
X141019690Y-93126388D01*
X141024230Y-93141493D01*
X141025327Y-93145142D01*
X141025665Y-93145689D01*
X141025854Y-93146299D01*
X141026703Y-93147647D01*
X141028663Y-93153736D01*
X141033017Y-93157678D01*
X141033879Y-93159047D01*
X141033881Y-93159053D01*
X141036233Y-93162789D01*
X141036498Y-93163212D01*
X141048450Y-93182543D01*
X141049768Y-93184885D01*
X141050880Y-93188021D01*
X141059486Y-93200533D01*
X141061119Y-93203035D01*
X141069100Y-93215945D01*
X141071522Y-93218225D01*
X141073127Y-93220365D01*
X141091096Y-93246490D01*
X141091267Y-93246774D01*
X141091563Y-93247576D01*
X141092874Y-93249434D01*
X141099147Y-93258327D01*
X141102996Y-93264820D01*
X141103782Y-93266002D01*
X141105586Y-93269680D01*
X141108280Y-93272765D01*
X141111621Y-93276592D01*
X141113062Y-93278426D01*
X141113910Y-93279658D01*
X141114277Y-93279971D01*
X141115610Y-93281667D01*
X141120915Y-93289187D01*
X141124063Y-93291810D01*
X141125022Y-93292849D01*
X141130422Y-93298126D01*
X141203338Y-93381637D01*
X141206150Y-93385101D01*
X141213780Y-93395214D01*
X141217011Y-93397736D01*
X141218084Y-93398826D01*
X141219223Y-93399829D01*
X141221919Y-93402917D01*
X141232445Y-93409983D01*
X141236055Y-93412599D01*
X141251209Y-93424425D01*
X141334553Y-93489473D01*
X141339029Y-93493322D01*
X141346384Y-93500281D01*
X141349987Y-93502230D01*
X141352590Y-93504116D01*
X141352819Y-93504266D01*
X141355615Y-93505911D01*
X141358849Y-93508435D01*
X141368144Y-93512375D01*
X141373491Y-93514948D01*
X141487930Y-93576864D01*
X141494205Y-93580755D01*
X141500398Y-93585122D01*
X141504592Y-93586663D01*
X141504894Y-93586775D01*
X141513066Y-93590464D01*
X141517281Y-93592745D01*
X141524644Y-93594501D01*
X141531712Y-93596636D01*
X141580583Y-93614605D01*
X141661121Y-93644218D01*
X141669004Y-93647752D01*
X141673736Y-93650281D01*
X141680548Y-93651868D01*
X141687937Y-93654078D01*
X141694510Y-93656495D01*
X141699859Y-93656980D01*
X141708382Y-93658353D01*
X141850176Y-93691394D01*
X141854323Y-93692514D01*
X141858047Y-93694219D01*
X141871643Y-93696516D01*
X141875371Y-93697265D01*
X141888794Y-93700394D01*
X141889953Y-93700355D01*
X141902522Y-93701819D01*
X141905643Y-93702264D01*
X141914798Y-93703812D01*
X141916275Y-93704062D01*
X141920322Y-93704746D01*
X141923804Y-93704415D01*
X141926780Y-93704643D01*
X141950479Y-93707403D01*
X141953059Y-93707812D01*
X141956164Y-93708875D01*
X141971371Y-93709907D01*
X141974370Y-93710184D01*
X141989472Y-93711943D01*
X141992725Y-93711464D01*
X141995307Y-93711532D01*
X142039320Y-93714521D01*
X142040309Y-93714640D01*
X142042144Y-93715213D01*
X142059686Y-93715925D01*
X142061275Y-93716012D01*
X142078800Y-93717203D01*
X142080688Y-93716831D01*
X142081696Y-93716820D01*
X142138297Y-93719121D01*
X142138956Y-93719184D01*
X142140360Y-93719591D01*
X142158592Y-93719958D01*
X142159850Y-93719996D01*
X142178101Y-93720739D01*
X142179530Y-93720417D01*
X142180186Y-93720394D01*
X142242266Y-93721647D01*
X142242885Y-93721694D01*
X142244231Y-93722056D01*
X142262660Y-93722068D01*
X142263761Y-93722080D01*
X142282143Y-93722452D01*
X142283496Y-93722117D01*
X142284101Y-93722084D01*
X142344647Y-93722128D01*
X142345425Y-93722171D01*
X142347034Y-93722564D01*
X142364993Y-93722159D01*
X142366353Y-93722144D01*
X142384357Y-93722158D01*
X142385955Y-93721730D01*
X142386747Y-93721670D01*
X142438684Y-93720501D01*
X142440206Y-93720539D01*
X142442632Y-93721041D01*
X142459280Y-93720074D01*
X142461395Y-93719989D01*
X142478024Y-93719616D01*
X142480400Y-93718920D01*
X142481900Y-93718761D01*
X142517712Y-93716683D01*
X142519258Y-93716667D01*
X142521731Y-93717087D01*
X142535244Y-93715813D01*
X142535966Y-93715785D01*
X142537505Y-93716012D01*
X142543921Y-93715265D01*
X142547460Y-93714957D01*
X142556974Y-93714406D01*
X142559355Y-93713616D01*
X142560896Y-93713397D01*
X142574850Y-93712084D01*
X142576309Y-93711541D01*
X142577007Y-93711421D01*
X142628882Y-93705393D01*
X142629493Y-93705356D01*
X142630875Y-93705533D01*
X142649098Y-93703055D01*
X142650164Y-93702920D01*
X142668495Y-93700791D01*
X142669792Y-93700276D01*
X142670382Y-93700162D01*
X142733382Y-93691597D01*
X142733794Y-93691566D01*
X142734855Y-93691686D01*
X142753564Y-93688860D01*
X142754298Y-93688755D01*
X142773105Y-93686199D01*
X142774088Y-93685785D01*
X142774511Y-93685696D01*
X142841572Y-93675569D01*
X142841953Y-93675534D01*
X142842944Y-93675633D01*
X142861682Y-93672538D01*
X142862439Y-93672418D01*
X142881268Y-93669576D01*
X142882182Y-93669176D01*
X142882552Y-93669092D01*
X142946950Y-93658459D01*
X142947417Y-93658410D01*
X142948552Y-93658504D01*
X142967175Y-93655125D01*
X142967831Y-93655011D01*
X142986470Y-93651935D01*
X142987508Y-93651463D01*
X142987951Y-93651356D01*
X143043012Y-93641369D01*
X143043772Y-93641273D01*
X143045401Y-93641371D01*
X143049217Y-93640587D01*
X143049225Y-93640587D01*
X143063007Y-93637759D01*
X143064406Y-93637488D01*
X143082100Y-93634280D01*
X143083576Y-93633582D01*
X143084321Y-93633386D01*
X143123228Y-93625405D01*
X143124470Y-93625214D01*
X143126712Y-93625277D01*
X143143277Y-93621323D01*
X143145099Y-93620919D01*
X143161836Y-93617487D01*
X143162606Y-93617100D01*
X143166910Y-93615989D01*
X143170790Y-93615830D01*
X143183171Y-93611957D01*
X143187291Y-93610822D01*
X143199914Y-93607812D01*
X143203524Y-93605857D01*
X143205534Y-93605089D01*
X143209177Y-93603824D01*
X143304383Y-93574052D01*
X143312730Y-93572061D01*
X143318102Y-93571165D01*
X143324400Y-93568297D01*
X143331648Y-93565526D01*
X143338253Y-93563462D01*
X143342847Y-93560550D01*
X143350404Y-93556459D01*
X143431553Y-93519517D01*
X143436813Y-93517407D01*
X143446754Y-93513938D01*
X143450145Y-93511629D01*
X143452888Y-93510248D01*
X143455503Y-93508614D01*
X143459238Y-93506915D01*
X143467352Y-93500231D01*
X143471911Y-93496814D01*
X143477018Y-93493338D01*
X143540669Y-93450014D01*
X143541668Y-93449349D01*
X143556981Y-93439386D01*
X143558076Y-93438167D01*
X143559427Y-93437248D01*
X143571323Y-93423445D01*
X143572094Y-93422569D01*
X143598138Y-93393590D01*
X143600585Y-93391344D01*
X143605246Y-93389458D01*
X143626200Y-93362592D01*
X143628991Y-93359262D01*
X143637596Y-93349689D01*
X143639460Y-93346020D01*
X143640243Y-93344879D01*
X143640934Y-93343702D01*
X143643464Y-93340461D01*
X143648494Y-93328581D01*
X143650316Y-93324666D01*
X143665756Y-93294296D01*
X143665638Y-93292093D01*
X143668920Y-93283622D01*
X143674231Y-93278388D01*
X143681481Y-93252080D01*
X143684183Y-93244314D01*
X143686564Y-93238694D01*
X143687430Y-93232490D01*
X143689076Y-93224526D01*
X143690743Y-93218482D01*
X143690786Y-93212381D01*
X143691384Y-93204193D01*
X143695162Y-93177153D01*
X143692392Y-93170316D01*
X143692618Y-93159825D01*
X143694657Y-93155353D01*
X143691741Y-93125080D01*
X143691456Y-93118643D01*
X143691522Y-93109425D01*
X143690489Y-93105459D01*
X143690307Y-93103991D01*
X143689428Y-93099029D01*
X143689093Y-93097581D01*
X143688701Y-93093500D01*
X143685473Y-93084866D01*
X143683529Y-93078720D01*
X143679902Y-93064786D01*
X143675869Y-93049290D01*
X143670807Y-93044156D01*
X143668024Y-93038199D01*
X143662495Y-93023411D01*
X143654881Y-93003044D01*
X143647976Y-92984335D01*
X143647786Y-92984067D01*
X143647671Y-92983758D01*
X143636052Y-92967469D01*
X143594700Y-92908979D01*
X143593493Y-92907208D01*
X143584357Y-92893271D01*
X143582290Y-92891426D01*
X143580693Y-92889167D01*
X143567904Y-92878534D01*
X143566243Y-92877103D01*
X143536579Y-92850626D01*
X143505965Y-92823301D01*
X143503410Y-92820888D01*
X143493303Y-92810778D01*
X143489995Y-92808867D01*
X143489607Y-92808546D01*
X143489357Y-92808365D01*
X143488931Y-92808097D01*
X143486085Y-92805557D01*
X143482432Y-92803715D01*
X143482424Y-92803710D01*
X143473348Y-92799135D01*
X143470228Y-92797450D01*
X143393172Y-92752950D01*
X143387179Y-92749014D01*
X143384091Y-92746722D01*
X143384088Y-92746720D01*
X143380800Y-92744280D01*
X143376696Y-92742656D01*
X143368435Y-92738664D01*
X143364611Y-92736456D01*
X143360658Y-92735396D01*
X143360656Y-92735395D01*
X143356930Y-92734396D01*
X143350137Y-92732150D01*
X143262828Y-92697616D01*
X143259109Y-92695757D01*
X143259091Y-92695799D01*
X143255355Y-92694133D01*
X143251862Y-92691990D01*
X143247935Y-92690824D01*
X143247930Y-92690822D01*
X143241439Y-92688895D01*
X143236249Y-92687103D01*
X143226153Y-92683110D01*
X143222087Y-92682640D01*
X143218111Y-92681643D01*
X143218121Y-92681599D01*
X143214049Y-92680766D01*
X143180277Y-92670742D01*
X143179002Y-92670294D01*
X143177001Y-92669156D01*
X143160677Y-92664889D01*
X143158780Y-92664361D01*
X143158499Y-92664278D01*
X143122238Y-92635865D01*
X143115296Y-92590323D01*
X143119646Y-92571417D01*
X143121713Y-92562434D01*
X143121993Y-92561450D01*
X143122870Y-92559684D01*
X143126313Y-92542545D01*
X143126665Y-92540916D01*
X143129660Y-92527901D01*
X143130581Y-92523901D01*
X143130510Y-92521929D01*
X143130659Y-92520919D01*
X143144234Y-92453372D01*
X143144476Y-92452422D01*
X143145288Y-92450668D01*
X143148277Y-92433354D01*
X143148579Y-92431746D01*
X143152027Y-92414595D01*
X143151903Y-92412664D01*
X143152019Y-92411696D01*
X143163641Y-92344418D01*
X143163927Y-92343142D01*
X143164820Y-92341034D01*
X143167151Y-92324298D01*
X143167466Y-92322284D01*
X143169649Y-92309646D01*
X143169649Y-92309644D01*
X143170348Y-92305599D01*
X143170139Y-92303317D01*
X143170256Y-92302015D01*
X143178558Y-92242432D01*
X143178693Y-92241738D01*
X143179271Y-92240289D01*
X143179948Y-92234497D01*
X143180127Y-92233445D01*
X143180812Y-92231573D01*
X143181967Y-92218525D01*
X143182318Y-92215453D01*
X143183015Y-92210448D01*
X145765085Y-92210448D01*
X145765313Y-92214220D01*
X145779977Y-92334993D01*
X145781776Y-92342291D01*
X145839372Y-92494156D01*
X145842861Y-92500806D01*
X145935133Y-92634486D01*
X145940107Y-92640101D01*
X146061686Y-92747810D01*
X146067869Y-92752078D01*
X146211689Y-92827560D01*
X146218710Y-92830222D01*
X146330849Y-92857863D01*
X146337963Y-92857433D01*
X146340085Y-92850626D01*
X146590085Y-92850626D01*
X146592206Y-92857433D01*
X146599320Y-92857863D01*
X146711459Y-92830222D01*
X146718480Y-92827560D01*
X146862300Y-92752078D01*
X146868483Y-92747810D01*
X146990062Y-92640101D01*
X146995036Y-92634486D01*
X147087308Y-92500806D01*
X147090797Y-92494156D01*
X147148393Y-92342291D01*
X147150192Y-92334993D01*
X147164856Y-92214220D01*
X147165085Y-92210448D01*
X147165085Y-91907431D01*
X147161443Y-91898641D01*
X147152654Y-91895000D01*
X146602516Y-91895000D01*
X146593726Y-91898641D01*
X146590085Y-91907431D01*
X146590085Y-92850626D01*
X146340085Y-92850626D01*
X146340085Y-91907431D01*
X146336443Y-91898641D01*
X146327654Y-91895000D01*
X145777516Y-91895000D01*
X145768726Y-91898641D01*
X145765085Y-91907431D01*
X145765085Y-92210448D01*
X143183015Y-92210448D01*
X143183526Y-92206781D01*
X143184046Y-92203053D01*
X143183853Y-92201507D01*
X143183898Y-92200781D01*
X143184551Y-92195223D01*
X143184260Y-92193239D01*
X143184298Y-92192208D01*
X143190707Y-92119851D01*
X143190978Y-92117828D01*
X143191864Y-92115046D01*
X143192593Y-92099197D01*
X143192771Y-92096563D01*
X143194171Y-92080770D01*
X143193665Y-92077889D01*
X143193668Y-92075854D01*
X143194801Y-92051271D01*
X143196866Y-92037974D01*
X143199409Y-92028486D01*
X143199409Y-92028485D01*
X143201539Y-92020537D01*
X143199409Y-92012588D01*
X143199409Y-92012034D01*
X143197445Y-91993937D01*
X143197503Y-91992667D01*
X143197638Y-91991232D01*
X143198282Y-91988946D01*
X143198484Y-91972169D01*
X143198545Y-91970085D01*
X143199130Y-91957414D01*
X143199129Y-91957411D01*
X143199319Y-91953311D01*
X143198808Y-91950985D01*
X143198757Y-91949574D01*
X143199812Y-91862343D01*
X143199891Y-91861077D01*
X143200428Y-91858904D01*
X143200090Y-91841864D01*
X143200084Y-91839889D01*
X143200154Y-91834176D01*
X143200290Y-91822921D01*
X143199736Y-91820752D01*
X143199648Y-91819482D01*
X143199422Y-91808055D01*
X143197971Y-91734556D01*
X143198012Y-91733077D01*
X143198516Y-91730682D01*
X143197602Y-91714035D01*
X143197522Y-91711873D01*
X143197194Y-91695219D01*
X143196514Y-91692868D01*
X143196361Y-91691381D01*
X143195182Y-91669881D01*
X143193136Y-91632569D01*
X145765085Y-91632569D01*
X145768726Y-91641358D01*
X145777516Y-91645000D01*
X146327654Y-91645000D01*
X146336443Y-91641358D01*
X146340085Y-91632569D01*
X146590085Y-91632569D01*
X146593726Y-91641358D01*
X146602516Y-91645000D01*
X147152654Y-91645000D01*
X147161443Y-91641358D01*
X147165085Y-91632569D01*
X147165085Y-91329553D01*
X147164856Y-91325779D01*
X147150192Y-91205006D01*
X147148393Y-91197708D01*
X147090797Y-91045843D01*
X147087308Y-91039193D01*
X146995036Y-90905513D01*
X146990062Y-90899898D01*
X146868483Y-90792189D01*
X146862300Y-90787921D01*
X146718480Y-90712439D01*
X146711459Y-90709777D01*
X146599320Y-90682136D01*
X146592206Y-90682566D01*
X146590085Y-90689374D01*
X146590085Y-91632569D01*
X146340085Y-91632569D01*
X146340085Y-90689374D01*
X146337963Y-90682566D01*
X146330849Y-90682136D01*
X146218710Y-90709777D01*
X146211689Y-90712439D01*
X146067869Y-90787921D01*
X146061686Y-90792189D01*
X145940107Y-90899898D01*
X145935133Y-90905513D01*
X145842861Y-91039193D01*
X145839372Y-91045843D01*
X145781776Y-91197708D01*
X145779977Y-91205006D01*
X145765313Y-91325779D01*
X145765085Y-91329553D01*
X145765085Y-91632569D01*
X143193136Y-91632569D01*
X143192179Y-91615129D01*
X143192150Y-91612753D01*
X143192657Y-91609642D01*
X143191101Y-91594249D01*
X143190879Y-91591395D01*
X143190033Y-91575960D01*
X143189050Y-91572961D01*
X143188711Y-91570609D01*
X143182653Y-91510672D01*
X143182387Y-91506880D01*
X143182290Y-91504436D01*
X143182665Y-91500352D01*
X143180478Y-91487654D01*
X143179894Y-91483374D01*
X143178599Y-91470555D01*
X143177142Y-91466715D01*
X143176586Y-91464356D01*
X143175822Y-91460607D01*
X143174027Y-91450182D01*
X143169942Y-91426450D01*
X143169094Y-91417502D01*
X143169052Y-91417225D01*
X143168976Y-91413124D01*
X143166626Y-91404968D01*
X143165095Y-91398290D01*
X143163659Y-91389947D01*
X143161939Y-91386220D01*
X143161858Y-91385958D01*
X143158721Y-91377529D01*
X143145922Y-91333102D01*
X143121061Y-91246806D01*
X143119346Y-91239013D01*
X143118357Y-91232575D01*
X143115996Y-91227208D01*
X143113152Y-91219354D01*
X143111530Y-91213723D01*
X143108171Y-91208149D01*
X143104499Y-91201067D01*
X143054102Y-91086478D01*
X143051913Y-91080753D01*
X143048884Y-91071492D01*
X143046644Y-91068059D01*
X143045558Y-91065792D01*
X143044512Y-91063859D01*
X143043547Y-91062269D01*
X143043159Y-91061361D01*
X143042608Y-91060343D01*
X143041562Y-91057964D01*
X143041561Y-91057963D01*
X143041559Y-91057958D01*
X143041683Y-91057903D01*
X143039195Y-91052075D01*
X143037399Y-91048964D01*
X143035270Y-91041018D01*
X143021850Y-91027598D01*
X143013698Y-91017553D01*
X142982837Y-90970247D01*
X142967459Y-90946674D01*
X142965350Y-90943196D01*
X142958824Y-90931591D01*
X142955962Y-90928663D01*
X142955315Y-90927800D01*
X142954608Y-90926976D01*
X142952371Y-90923546D01*
X142942468Y-90914667D01*
X142939498Y-90911822D01*
X142859841Y-90830336D01*
X142858196Y-90828587D01*
X142850017Y-90819550D01*
X142850015Y-90819548D01*
X142847266Y-90816511D01*
X142844718Y-90814866D01*
X142842604Y-90812703D01*
X142839077Y-90810613D01*
X142839076Y-90810612D01*
X142828622Y-90804417D01*
X142826582Y-90803155D01*
X142745112Y-90750550D01*
X142741386Y-90748144D01*
X142734821Y-90743267D01*
X142730132Y-90739281D01*
X142725759Y-90737208D01*
X142724530Y-90736625D01*
X142717404Y-90732658D01*
X142715625Y-90731509D01*
X142715624Y-90731508D01*
X142712185Y-90729288D01*
X142708289Y-90728033D01*
X142707070Y-90727456D01*
X142706971Y-90727401D01*
X142703356Y-90725691D01*
X142699915Y-90723473D01*
X142696014Y-90722219D01*
X142696010Y-90722218D01*
X142694125Y-90721613D01*
X142686474Y-90718586D01*
X142684684Y-90717737D01*
X142684679Y-90717735D01*
X142680978Y-90715981D01*
X142676947Y-90715243D01*
X142676938Y-90715241D01*
X142674784Y-90714847D01*
X142666919Y-90712873D01*
X142572355Y-90682497D01*
X142570849Y-90681992D01*
X142558027Y-90677510D01*
X142558016Y-90677507D01*
X142554163Y-90676161D01*
X142552161Y-90676011D01*
X142550248Y-90675397D01*
X142546167Y-90675196D01*
X142546163Y-90675196D01*
X142532582Y-90674530D01*
X142530996Y-90674432D01*
X142421716Y-90666279D01*
X142419034Y-90666020D01*
X142407454Y-90664652D01*
X142407450Y-90664652D01*
X142403388Y-90664172D01*
X142400020Y-90664660D01*
X142396629Y-90664408D01*
X142392616Y-90665168D01*
X142392605Y-90665169D01*
X142381142Y-90667342D01*
X142378488Y-90667786D01*
X142269223Y-90683651D01*
X142264749Y-90684137D01*
X142256256Y-90684750D01*
X142256248Y-90684751D01*
X142252174Y-90685046D01*
X142248312Y-90686385D01*
X142246768Y-90686703D01*
X142245246Y-90687132D01*
X142241198Y-90687721D01*
X142237435Y-90689338D01*
X142237433Y-90689339D01*
X142229616Y-90692699D01*
X142225421Y-90694326D01*
X142117840Y-90731646D01*
X142111679Y-90733435D01*
X142106647Y-90734619D01*
X142106643Y-90734620D01*
X142102665Y-90735557D01*
X142099066Y-90737489D01*
X142097647Y-90738027D01*
X142093132Y-90740008D01*
X142091771Y-90740690D01*
X142087911Y-90742030D01*
X142084531Y-90744320D01*
X142084521Y-90744326D01*
X142080237Y-90747230D01*
X142074751Y-90750550D01*
X141968684Y-90807525D01*
X141961312Y-90810889D01*
X141959236Y-90811677D01*
X141959226Y-90811681D01*
X141955411Y-90813132D01*
X141952100Y-90815519D01*
X141952087Y-90815527D01*
X141950476Y-90816690D01*
X141943500Y-90821053D01*
X141941769Y-90821982D01*
X141941762Y-90821986D01*
X141938160Y-90823922D01*
X141935180Y-90826723D01*
X141935176Y-90826727D01*
X141933564Y-90828243D01*
X141927318Y-90833394D01*
X141821997Y-90909363D01*
X141814274Y-90914090D01*
X141814078Y-90914224D01*
X141810437Y-90916090D01*
X141807403Y-90918832D01*
X141807398Y-90918836D01*
X141804164Y-90921760D01*
X141798825Y-90926077D01*
X141795291Y-90928626D01*
X141795282Y-90928634D01*
X141791967Y-90931026D01*
X141789381Y-90934195D01*
X141789199Y-90934368D01*
X141782977Y-90940914D01*
X141677914Y-91035900D01*
X141674065Y-91038831D01*
X141671258Y-91041182D01*
X141667812Y-91043376D01*
X141665049Y-91046386D01*
X141665043Y-91046392D01*
X141660853Y-91050959D01*
X141656724Y-91055058D01*
X141652123Y-91059218D01*
X141652118Y-91059223D01*
X141649084Y-91061967D01*
X141646861Y-91065405D01*
X141644485Y-91068199D01*
X141641533Y-91072017D01*
X141535996Y-91187042D01*
X141534412Y-91188624D01*
X141531931Y-91190363D01*
X141529308Y-91193487D01*
X141529300Y-91193495D01*
X141523281Y-91200666D01*
X141523149Y-91200803D01*
X141522729Y-91201104D01*
X141521808Y-91202216D01*
X141521806Y-91202219D01*
X141520369Y-91203955D01*
X141518285Y-91206346D01*
X141512223Y-91212953D01*
X141512217Y-91212961D01*
X141509459Y-91215968D01*
X141508056Y-91218656D01*
X141506704Y-91220418D01*
X141498168Y-91230588D01*
X141498158Y-91230600D01*
X141497237Y-91231699D01*
X141497016Y-91232169D01*
X141496906Y-91232321D01*
X141478070Y-91255094D01*
X141477874Y-91255303D01*
X141477263Y-91255748D01*
X141475987Y-91257322D01*
X141475982Y-91257329D01*
X141465105Y-91270761D01*
X141464697Y-91271259D01*
X141453654Y-91284610D01*
X141453644Y-91284623D01*
X141452361Y-91286175D01*
X141452048Y-91286856D01*
X141451881Y-91287091D01*
X141439823Y-91301982D01*
X141439496Y-91302340D01*
X141438580Y-91303030D01*
X141436769Y-91305339D01*
X141436768Y-91305342D01*
X141427049Y-91317744D01*
X141426432Y-91318519D01*
X141416478Y-91330813D01*
X141414625Y-91333102D01*
X141414155Y-91334153D01*
X141413884Y-91334545D01*
X141411449Y-91337654D01*
X141409780Y-91339609D01*
X141409177Y-91340110D01*
X141408762Y-91340296D01*
X141408475Y-91340691D01*
X141407294Y-91341670D01*
X141404927Y-91345002D01*
X141402148Y-91347999D01*
X141401911Y-91347779D01*
X141400102Y-91349546D01*
X141400537Y-91349924D01*
X141395140Y-91356136D01*
X141388324Y-91360739D01*
X141384721Y-91368132D01*
X141384720Y-91368134D01*
X141379115Y-91379637D01*
X141376565Y-91383890D01*
X141375918Y-91385085D01*
X141375338Y-91386017D01*
X141374492Y-91387617D01*
X141372316Y-91390624D01*
X141372050Y-91391318D01*
X141371618Y-91391928D01*
X141370323Y-91395414D01*
X141370321Y-91395419D01*
X141367848Y-91402078D01*
X141365446Y-91407690D01*
X141355427Y-91428254D01*
X141355426Y-91428257D01*
X141351824Y-91435651D01*
X141352391Y-91443714D01*
X141349990Y-91450182D01*
X141351365Y-91458288D01*
X141351365Y-91458293D01*
X141351800Y-91460853D01*
X141352348Y-91477735D01*
X141351746Y-91483549D01*
X141351747Y-91483555D01*
X141350900Y-91491737D01*
X141354257Y-91499246D01*
X141355183Y-91505030D01*
X141357092Y-91510568D01*
X141357670Y-91518778D01*
X141362274Y-91525597D01*
X141362285Y-91525629D01*
X141363011Y-91526922D01*
X141363931Y-91532340D01*
X141369622Y-91539212D01*
X141378543Y-91553566D01*
X141381553Y-91560300D01*
X141381554Y-91560301D01*
X141384912Y-91567812D01*
X141391575Y-91572637D01*
X141391576Y-91572638D01*
X141399463Y-91578349D01*
X141410941Y-91589105D01*
X141411832Y-91590181D01*
X141411835Y-91590183D01*
X141417083Y-91596520D01*
X141424706Y-91599349D01*
X141425026Y-91599609D01*
X141427892Y-91601628D01*
X141430905Y-91604407D01*
X141432984Y-91605497D01*
X141434754Y-91607035D01*
X141447964Y-91613471D01*
X141452406Y-91616688D01*
X141454784Y-91616934D01*
X141460040Y-91619691D01*
X141463626Y-91621736D01*
X141466746Y-91624283D01*
X141470487Y-91625966D01*
X141470490Y-91625968D01*
X141470784Y-91626101D01*
X141471337Y-91626492D01*
X141473971Y-91628121D01*
X141473869Y-91628284D01*
X141490342Y-91639939D01*
X141491697Y-91641358D01*
X141497786Y-91647737D01*
X141515024Y-91688303D01*
X141516318Y-91719498D01*
X141516371Y-91721744D01*
X141516544Y-91753187D01*
X141516539Y-91754422D01*
X141515774Y-91808055D01*
X141515518Y-91812884D01*
X141513561Y-91834176D01*
X141511927Y-91843732D01*
X141510100Y-91850980D01*
X141507167Y-91859793D01*
X141498035Y-91881656D01*
X141496496Y-91885051D01*
X141487685Y-91903046D01*
X141484751Y-91908367D01*
X141435360Y-91988462D01*
X141428433Y-91997672D01*
X141377637Y-92053614D01*
X141368339Y-92061990D01*
X141316120Y-92100304D01*
X141304054Y-92107235D01*
X141254539Y-92128750D01*
X141239594Y-92133129D01*
X141181685Y-92142479D01*
X141171723Y-92143278D01*
X141127527Y-92143278D01*
X141125420Y-92143055D01*
X141122072Y-92141345D01*
X141113854Y-92141767D01*
X141086064Y-92143196D01*
X141082855Y-92143278D01*
X141067975Y-92143278D01*
X141064610Y-92144179D01*
X141061655Y-92144449D01*
X141047069Y-92145199D01*
X141047063Y-92145200D01*
X141038851Y-92145623D01*
X141031950Y-92150093D01*
X141030570Y-92150541D01*
X141017154Y-92156507D01*
X141015899Y-92157231D01*
X141007953Y-92159361D01*
X141002135Y-92165178D01*
X141002134Y-92165179D01*
X140994765Y-92172548D01*
X140984565Y-92180798D01*
X140975823Y-92186463D01*
X140975819Y-92186467D01*
X140968917Y-92190940D01*
X140965174Y-92198265D01*
X140964206Y-92199339D01*
X140955568Y-92211215D01*
X140954844Y-92212467D01*
X140949028Y-92218285D01*
X140946899Y-92226228D01*
X140946898Y-92226231D01*
X140943119Y-92240336D01*
X140942236Y-92243174D01*
X140940651Y-92246278D01*
X140939796Y-92250276D01*
X140939796Y-92250279D01*
X140937541Y-92260837D01*
X140936794Y-92263940D01*
X140927460Y-92298778D01*
X140928433Y-92302411D01*
X140928211Y-92304513D01*
X140924941Y-92319821D01*
X140923096Y-92328462D01*
X140922097Y-92332480D01*
X140921864Y-92333297D01*
X140920245Y-92337048D01*
X140919649Y-92341095D01*
X140919650Y-92341095D01*
X140918292Y-92350330D01*
X140917579Y-92354288D01*
X140915622Y-92363450D01*
X140915621Y-92363458D01*
X140914768Y-92367454D01*
X140914977Y-92371536D01*
X140914909Y-92372392D01*
X140914442Y-92376511D01*
X140907650Y-92422711D01*
X140906663Y-92426910D01*
X140906665Y-92426911D01*
X140905909Y-92430940D01*
X140904638Y-92434826D01*
X140904415Y-92438902D01*
X140904414Y-92438910D01*
X140904065Y-92445309D01*
X140903495Y-92450978D01*
X140902563Y-92457321D01*
X140902562Y-92457326D01*
X140901968Y-92461374D01*
X140902440Y-92465438D01*
X140902379Y-92469537D01*
X140902376Y-92469536D01*
X140902508Y-92473849D01*
X140899398Y-92530843D01*
X140899091Y-92534496D01*
X140898720Y-92537757D01*
X140897732Y-92541725D01*
X140897804Y-92545817D01*
X140897804Y-92545819D01*
X140897954Y-92554333D01*
X140897871Y-92558836D01*
X140897407Y-92567331D01*
X140897407Y-92567337D01*
X140897185Y-92571417D01*
X138398569Y-92571417D01*
X138447308Y-92500806D01*
X138450797Y-92494156D01*
X138508393Y-92342291D01*
X138510192Y-92334993D01*
X138524856Y-92214220D01*
X138525085Y-92210448D01*
X138525085Y-91907431D01*
X138521443Y-91898641D01*
X138512654Y-91895000D01*
X137962516Y-91895000D01*
X137953726Y-91898641D01*
X137950085Y-91907431D01*
X137950085Y-92850626D01*
X137700085Y-92850626D01*
X137700085Y-91907431D01*
X137696443Y-91898641D01*
X137687654Y-91895000D01*
X137137516Y-91895000D01*
X137128726Y-91898641D01*
X137125085Y-91907431D01*
X137125085Y-92210448D01*
X136045585Y-92210448D01*
X136045585Y-91632569D01*
X137125085Y-91632569D01*
X137128726Y-91641358D01*
X137137516Y-91645000D01*
X137687654Y-91645000D01*
X137696443Y-91641358D01*
X137700085Y-91632569D01*
X137950085Y-91632569D01*
X137953726Y-91641358D01*
X137962516Y-91645000D01*
X138512654Y-91645000D01*
X138521443Y-91641358D01*
X138525085Y-91632569D01*
X138525085Y-91329553D01*
X138524856Y-91325779D01*
X138510192Y-91205006D01*
X138508393Y-91197708D01*
X138450797Y-91045843D01*
X138447308Y-91039193D01*
X138355036Y-90905513D01*
X138350062Y-90899898D01*
X138228483Y-90792189D01*
X138222300Y-90787921D01*
X138078480Y-90712439D01*
X138071459Y-90709777D01*
X137959320Y-90682136D01*
X137952206Y-90682566D01*
X137950085Y-90689374D01*
X137950085Y-91632569D01*
X137700085Y-91632569D01*
X137700085Y-90689374D01*
X137697963Y-90682566D01*
X137690849Y-90682136D01*
X137578710Y-90709777D01*
X137571689Y-90712439D01*
X137427869Y-90787921D01*
X137421686Y-90792189D01*
X137300107Y-90899898D01*
X137295133Y-90905513D01*
X137202861Y-91039193D01*
X137199372Y-91045843D01*
X137141776Y-91197708D01*
X137139977Y-91205006D01*
X137125313Y-91325779D01*
X137125085Y-91329553D01*
X137125085Y-91632569D01*
X136045585Y-91632569D01*
X136045585Y-91472727D01*
X136045823Y-91467280D01*
X136047891Y-91443646D01*
X136049534Y-91424852D01*
X136049593Y-91424228D01*
X136062498Y-91293195D01*
X136064318Y-91283193D01*
X136083231Y-91212607D01*
X136083774Y-91210710D01*
X136113038Y-91114236D01*
X136116187Y-91106004D01*
X136149485Y-91034597D01*
X136150987Y-91031595D01*
X136195844Y-90947672D01*
X136199748Y-90941316D01*
X136246073Y-90875157D01*
X136248920Y-90871405D01*
X136308188Y-90799186D01*
X136312277Y-90794673D01*
X136369767Y-90737183D01*
X136374257Y-90733112D01*
X136446503Y-90673821D01*
X136450239Y-90670986D01*
X136516418Y-90624647D01*
X136522751Y-90620756D01*
X136606716Y-90575875D01*
X136609681Y-90574393D01*
X136681082Y-90541097D01*
X136689320Y-90537944D01*
X136785902Y-90508645D01*
X136787667Y-90508142D01*
X136858261Y-90489225D01*
X136868282Y-90487402D01*
X137000654Y-90474373D01*
X137000816Y-90474357D01*
X137042185Y-90470737D01*
X137047631Y-90470500D01*
X147242360Y-90470500D01*
X147247805Y-90470738D01*
G37*
%TD.AperFunction*%
%TD*%
M02*
