%TF.GenerationSoftware,KiCad,Pcbnew,(7.0.0-0)*%
%TF.CreationDate,2023-03-15T20:38:16-05:00*%
%TF.ProjectId,USB-C Breakout,5553422d-4320-4427-9265-616b6f75742e,0*%
%TF.SameCoordinates,Original*%
%TF.FileFunction,Legend,Bot*%
%TF.FilePolarity,Positive*%
%FSLAX46Y46*%
G04 Gerber Fmt 4.6, Leading zero omitted, Abs format (unit mm)*
G04 Created by KiCad (PCBNEW (7.0.0-0)) date 2023-03-15 20:38:16*
%MOMM*%
%LPD*%
G01*
G04 APERTURE LIST*
%ADD10C,0.160000*%
G04 APERTURE END LIST*
D10*
X147861904Y-97622380D02*
X147861904Y-98431904D01*
X147861904Y-98431904D02*
X147814285Y-98527142D01*
X147814285Y-98527142D02*
X147766666Y-98574761D01*
X147766666Y-98574761D02*
X147671428Y-98622380D01*
X147671428Y-98622380D02*
X147480952Y-98622380D01*
X147480952Y-98622380D02*
X147385714Y-98574761D01*
X147385714Y-98574761D02*
X147338095Y-98527142D01*
X147338095Y-98527142D02*
X147290476Y-98431904D01*
X147290476Y-98431904D02*
X147290476Y-97622380D01*
X146861904Y-98574761D02*
X146719047Y-98622380D01*
X146719047Y-98622380D02*
X146480952Y-98622380D01*
X146480952Y-98622380D02*
X146385714Y-98574761D01*
X146385714Y-98574761D02*
X146338095Y-98527142D01*
X146338095Y-98527142D02*
X146290476Y-98431904D01*
X146290476Y-98431904D02*
X146290476Y-98336666D01*
X146290476Y-98336666D02*
X146338095Y-98241428D01*
X146338095Y-98241428D02*
X146385714Y-98193809D01*
X146385714Y-98193809D02*
X146480952Y-98146190D01*
X146480952Y-98146190D02*
X146671428Y-98098571D01*
X146671428Y-98098571D02*
X146766666Y-98050952D01*
X146766666Y-98050952D02*
X146814285Y-98003333D01*
X146814285Y-98003333D02*
X146861904Y-97908095D01*
X146861904Y-97908095D02*
X146861904Y-97812857D01*
X146861904Y-97812857D02*
X146814285Y-97717619D01*
X146814285Y-97717619D02*
X146766666Y-97670000D01*
X146766666Y-97670000D02*
X146671428Y-97622380D01*
X146671428Y-97622380D02*
X146433333Y-97622380D01*
X146433333Y-97622380D02*
X146290476Y-97670000D01*
X145528571Y-98098571D02*
X145385714Y-98146190D01*
X145385714Y-98146190D02*
X145338095Y-98193809D01*
X145338095Y-98193809D02*
X145290476Y-98289047D01*
X145290476Y-98289047D02*
X145290476Y-98431904D01*
X145290476Y-98431904D02*
X145338095Y-98527142D01*
X145338095Y-98527142D02*
X145385714Y-98574761D01*
X145385714Y-98574761D02*
X145480952Y-98622380D01*
X145480952Y-98622380D02*
X145861904Y-98622380D01*
X145861904Y-98622380D02*
X145861904Y-97622380D01*
X145861904Y-97622380D02*
X145528571Y-97622380D01*
X145528571Y-97622380D02*
X145433333Y-97670000D01*
X145433333Y-97670000D02*
X145385714Y-97717619D01*
X145385714Y-97717619D02*
X145338095Y-97812857D01*
X145338095Y-97812857D02*
X145338095Y-97908095D01*
X145338095Y-97908095D02*
X145385714Y-98003333D01*
X145385714Y-98003333D02*
X145433333Y-98050952D01*
X145433333Y-98050952D02*
X145528571Y-98098571D01*
X145528571Y-98098571D02*
X145861904Y-98098571D01*
X144861904Y-98241428D02*
X144100000Y-98241428D01*
X143052381Y-98527142D02*
X143100000Y-98574761D01*
X143100000Y-98574761D02*
X143242857Y-98622380D01*
X143242857Y-98622380D02*
X143338095Y-98622380D01*
X143338095Y-98622380D02*
X143480952Y-98574761D01*
X143480952Y-98574761D02*
X143576190Y-98479523D01*
X143576190Y-98479523D02*
X143623809Y-98384285D01*
X143623809Y-98384285D02*
X143671428Y-98193809D01*
X143671428Y-98193809D02*
X143671428Y-98050952D01*
X143671428Y-98050952D02*
X143623809Y-97860476D01*
X143623809Y-97860476D02*
X143576190Y-97765238D01*
X143576190Y-97765238D02*
X143480952Y-97670000D01*
X143480952Y-97670000D02*
X143338095Y-97622380D01*
X143338095Y-97622380D02*
X143242857Y-97622380D01*
X143242857Y-97622380D02*
X143100000Y-97670000D01*
X143100000Y-97670000D02*
X143052381Y-97717619D01*
X141690476Y-98098571D02*
X141547619Y-98146190D01*
X141547619Y-98146190D02*
X141500000Y-98193809D01*
X141500000Y-98193809D02*
X141452381Y-98289047D01*
X141452381Y-98289047D02*
X141452381Y-98431904D01*
X141452381Y-98431904D02*
X141500000Y-98527142D01*
X141500000Y-98527142D02*
X141547619Y-98574761D01*
X141547619Y-98574761D02*
X141642857Y-98622380D01*
X141642857Y-98622380D02*
X142023809Y-98622380D01*
X142023809Y-98622380D02*
X142023809Y-97622380D01*
X142023809Y-97622380D02*
X141690476Y-97622380D01*
X141690476Y-97622380D02*
X141595238Y-97670000D01*
X141595238Y-97670000D02*
X141547619Y-97717619D01*
X141547619Y-97717619D02*
X141500000Y-97812857D01*
X141500000Y-97812857D02*
X141500000Y-97908095D01*
X141500000Y-97908095D02*
X141547619Y-98003333D01*
X141547619Y-98003333D02*
X141595238Y-98050952D01*
X141595238Y-98050952D02*
X141690476Y-98098571D01*
X141690476Y-98098571D02*
X142023809Y-98098571D01*
X141023809Y-98622380D02*
X141023809Y-97955714D01*
X141023809Y-98146190D02*
X140976190Y-98050952D01*
X140976190Y-98050952D02*
X140928571Y-98003333D01*
X140928571Y-98003333D02*
X140833333Y-97955714D01*
X140833333Y-97955714D02*
X140738095Y-97955714D01*
X140023809Y-98574761D02*
X140119047Y-98622380D01*
X140119047Y-98622380D02*
X140309523Y-98622380D01*
X140309523Y-98622380D02*
X140404761Y-98574761D01*
X140404761Y-98574761D02*
X140452380Y-98479523D01*
X140452380Y-98479523D02*
X140452380Y-98098571D01*
X140452380Y-98098571D02*
X140404761Y-98003333D01*
X140404761Y-98003333D02*
X140309523Y-97955714D01*
X140309523Y-97955714D02*
X140119047Y-97955714D01*
X140119047Y-97955714D02*
X140023809Y-98003333D01*
X140023809Y-98003333D02*
X139976190Y-98098571D01*
X139976190Y-98098571D02*
X139976190Y-98193809D01*
X139976190Y-98193809D02*
X140452380Y-98289047D01*
X139119047Y-98622380D02*
X139119047Y-98098571D01*
X139119047Y-98098571D02*
X139166666Y-98003333D01*
X139166666Y-98003333D02*
X139261904Y-97955714D01*
X139261904Y-97955714D02*
X139452380Y-97955714D01*
X139452380Y-97955714D02*
X139547618Y-98003333D01*
X139119047Y-98574761D02*
X139214285Y-98622380D01*
X139214285Y-98622380D02*
X139452380Y-98622380D01*
X139452380Y-98622380D02*
X139547618Y-98574761D01*
X139547618Y-98574761D02*
X139595237Y-98479523D01*
X139595237Y-98479523D02*
X139595237Y-98384285D01*
X139595237Y-98384285D02*
X139547618Y-98289047D01*
X139547618Y-98289047D02*
X139452380Y-98241428D01*
X139452380Y-98241428D02*
X139214285Y-98241428D01*
X139214285Y-98241428D02*
X139119047Y-98193809D01*
X138642856Y-98622380D02*
X138642856Y-97622380D01*
X138547618Y-98241428D02*
X138261904Y-98622380D01*
X138261904Y-97955714D02*
X138642856Y-98336666D01*
X137690475Y-98622380D02*
X137785713Y-98574761D01*
X137785713Y-98574761D02*
X137833332Y-98527142D01*
X137833332Y-98527142D02*
X137880951Y-98431904D01*
X137880951Y-98431904D02*
X137880951Y-98146190D01*
X137880951Y-98146190D02*
X137833332Y-98050952D01*
X137833332Y-98050952D02*
X137785713Y-98003333D01*
X137785713Y-98003333D02*
X137690475Y-97955714D01*
X137690475Y-97955714D02*
X137547618Y-97955714D01*
X137547618Y-97955714D02*
X137452380Y-98003333D01*
X137452380Y-98003333D02*
X137404761Y-98050952D01*
X137404761Y-98050952D02*
X137357142Y-98146190D01*
X137357142Y-98146190D02*
X137357142Y-98431904D01*
X137357142Y-98431904D02*
X137404761Y-98527142D01*
X137404761Y-98527142D02*
X137452380Y-98574761D01*
X137452380Y-98574761D02*
X137547618Y-98622380D01*
X137547618Y-98622380D02*
X137690475Y-98622380D01*
X136499999Y-97955714D02*
X136499999Y-98622380D01*
X136928570Y-97955714D02*
X136928570Y-98479523D01*
X136928570Y-98479523D02*
X136880951Y-98574761D01*
X136880951Y-98574761D02*
X136785713Y-98622380D01*
X136785713Y-98622380D02*
X136642856Y-98622380D01*
X136642856Y-98622380D02*
X136547618Y-98574761D01*
X136547618Y-98574761D02*
X136499999Y-98527142D01*
X136166665Y-97955714D02*
X135785713Y-97955714D01*
X136023808Y-97622380D02*
X136023808Y-98479523D01*
X136023808Y-98479523D02*
X135976189Y-98574761D01*
X135976189Y-98574761D02*
X135880951Y-98622380D01*
X135880951Y-98622380D02*
X135785713Y-98622380D01*
X147290476Y-100242380D02*
X147623809Y-99766190D01*
X147861904Y-100242380D02*
X147861904Y-99242380D01*
X147861904Y-99242380D02*
X147480952Y-99242380D01*
X147480952Y-99242380D02*
X147385714Y-99290000D01*
X147385714Y-99290000D02*
X147338095Y-99337619D01*
X147338095Y-99337619D02*
X147290476Y-99432857D01*
X147290476Y-99432857D02*
X147290476Y-99575714D01*
X147290476Y-99575714D02*
X147338095Y-99670952D01*
X147338095Y-99670952D02*
X147385714Y-99718571D01*
X147385714Y-99718571D02*
X147480952Y-99766190D01*
X147480952Y-99766190D02*
X147861904Y-99766190D01*
X146480952Y-100194761D02*
X146576190Y-100242380D01*
X146576190Y-100242380D02*
X146766666Y-100242380D01*
X146766666Y-100242380D02*
X146861904Y-100194761D01*
X146861904Y-100194761D02*
X146909523Y-100099523D01*
X146909523Y-100099523D02*
X146909523Y-99718571D01*
X146909523Y-99718571D02*
X146861904Y-99623333D01*
X146861904Y-99623333D02*
X146766666Y-99575714D01*
X146766666Y-99575714D02*
X146576190Y-99575714D01*
X146576190Y-99575714D02*
X146480952Y-99623333D01*
X146480952Y-99623333D02*
X146433333Y-99718571D01*
X146433333Y-99718571D02*
X146433333Y-99813809D01*
X146433333Y-99813809D02*
X146909523Y-99909047D01*
X146099999Y-99575714D02*
X145861904Y-100242380D01*
X145861904Y-100242380D02*
X145623809Y-99575714D01*
X145242856Y-100147142D02*
X145195237Y-100194761D01*
X145195237Y-100194761D02*
X145242856Y-100242380D01*
X145242856Y-100242380D02*
X145290475Y-100194761D01*
X145290475Y-100194761D02*
X145242856Y-100147142D01*
X145242856Y-100147142D02*
X145242856Y-100242380D01*
X145242856Y-99623333D02*
X145195237Y-99670952D01*
X145195237Y-99670952D02*
X145242856Y-99718571D01*
X145242856Y-99718571D02*
X145290475Y-99670952D01*
X145290475Y-99670952D02*
X145242856Y-99623333D01*
X145242856Y-99623333D02*
X145242856Y-99718571D01*
X143976190Y-99242380D02*
X143880952Y-99242380D01*
X143880952Y-99242380D02*
X143785714Y-99290000D01*
X143785714Y-99290000D02*
X143738095Y-99337619D01*
X143738095Y-99337619D02*
X143690476Y-99432857D01*
X143690476Y-99432857D02*
X143642857Y-99623333D01*
X143642857Y-99623333D02*
X143642857Y-99861428D01*
X143642857Y-99861428D02*
X143690476Y-100051904D01*
X143690476Y-100051904D02*
X143738095Y-100147142D01*
X143738095Y-100147142D02*
X143785714Y-100194761D01*
X143785714Y-100194761D02*
X143880952Y-100242380D01*
X143880952Y-100242380D02*
X143976190Y-100242380D01*
X143976190Y-100242380D02*
X144071428Y-100194761D01*
X144071428Y-100194761D02*
X144119047Y-100147142D01*
X144119047Y-100147142D02*
X144166666Y-100051904D01*
X144166666Y-100051904D02*
X144214285Y-99861428D01*
X144214285Y-99861428D02*
X144214285Y-99623333D01*
X144214285Y-99623333D02*
X144166666Y-99432857D01*
X144166666Y-99432857D02*
X144119047Y-99337619D01*
X144119047Y-99337619D02*
X144071428Y-99290000D01*
X144071428Y-99290000D02*
X143976190Y-99242380D01*
X147861904Y-101862380D02*
X147861904Y-100862380D01*
X147861904Y-100862380D02*
X147623809Y-100862380D01*
X147623809Y-100862380D02*
X147480952Y-100910000D01*
X147480952Y-100910000D02*
X147385714Y-101005238D01*
X147385714Y-101005238D02*
X147338095Y-101100476D01*
X147338095Y-101100476D02*
X147290476Y-101290952D01*
X147290476Y-101290952D02*
X147290476Y-101433809D01*
X147290476Y-101433809D02*
X147338095Y-101624285D01*
X147338095Y-101624285D02*
X147385714Y-101719523D01*
X147385714Y-101719523D02*
X147480952Y-101814761D01*
X147480952Y-101814761D02*
X147623809Y-101862380D01*
X147623809Y-101862380D02*
X147861904Y-101862380D01*
X146433333Y-101862380D02*
X146433333Y-101338571D01*
X146433333Y-101338571D02*
X146480952Y-101243333D01*
X146480952Y-101243333D02*
X146576190Y-101195714D01*
X146576190Y-101195714D02*
X146766666Y-101195714D01*
X146766666Y-101195714D02*
X146861904Y-101243333D01*
X146433333Y-101814761D02*
X146528571Y-101862380D01*
X146528571Y-101862380D02*
X146766666Y-101862380D01*
X146766666Y-101862380D02*
X146861904Y-101814761D01*
X146861904Y-101814761D02*
X146909523Y-101719523D01*
X146909523Y-101719523D02*
X146909523Y-101624285D01*
X146909523Y-101624285D02*
X146861904Y-101529047D01*
X146861904Y-101529047D02*
X146766666Y-101481428D01*
X146766666Y-101481428D02*
X146528571Y-101481428D01*
X146528571Y-101481428D02*
X146433333Y-101433809D01*
X146099999Y-101195714D02*
X145719047Y-101195714D01*
X145957142Y-100862380D02*
X145957142Y-101719523D01*
X145957142Y-101719523D02*
X145909523Y-101814761D01*
X145909523Y-101814761D02*
X145814285Y-101862380D01*
X145814285Y-101862380D02*
X145719047Y-101862380D01*
X145004761Y-101814761D02*
X145099999Y-101862380D01*
X145099999Y-101862380D02*
X145290475Y-101862380D01*
X145290475Y-101862380D02*
X145385713Y-101814761D01*
X145385713Y-101814761D02*
X145433332Y-101719523D01*
X145433332Y-101719523D02*
X145433332Y-101338571D01*
X145433332Y-101338571D02*
X145385713Y-101243333D01*
X145385713Y-101243333D02*
X145290475Y-101195714D01*
X145290475Y-101195714D02*
X145099999Y-101195714D01*
X145099999Y-101195714D02*
X145004761Y-101243333D01*
X145004761Y-101243333D02*
X144957142Y-101338571D01*
X144957142Y-101338571D02*
X144957142Y-101433809D01*
X144957142Y-101433809D02*
X145433332Y-101529047D01*
X144528570Y-101767142D02*
X144480951Y-101814761D01*
X144480951Y-101814761D02*
X144528570Y-101862380D01*
X144528570Y-101862380D02*
X144576189Y-101814761D01*
X144576189Y-101814761D02*
X144528570Y-101767142D01*
X144528570Y-101767142D02*
X144528570Y-101862380D01*
X144528570Y-101243333D02*
X144480951Y-101290952D01*
X144480951Y-101290952D02*
X144528570Y-101338571D01*
X144528570Y-101338571D02*
X144576189Y-101290952D01*
X144576189Y-101290952D02*
X144528570Y-101243333D01*
X144528570Y-101243333D02*
X144528570Y-101338571D01*
X143452380Y-101862380D02*
X143452380Y-100862380D01*
X143452380Y-100862380D02*
X143119047Y-101576666D01*
X143119047Y-101576666D02*
X142785714Y-100862380D01*
X142785714Y-100862380D02*
X142785714Y-101862380D01*
X141880952Y-101862380D02*
X141880952Y-101338571D01*
X141880952Y-101338571D02*
X141928571Y-101243333D01*
X141928571Y-101243333D02*
X142023809Y-101195714D01*
X142023809Y-101195714D02*
X142214285Y-101195714D01*
X142214285Y-101195714D02*
X142309523Y-101243333D01*
X141880952Y-101814761D02*
X141976190Y-101862380D01*
X141976190Y-101862380D02*
X142214285Y-101862380D01*
X142214285Y-101862380D02*
X142309523Y-101814761D01*
X142309523Y-101814761D02*
X142357142Y-101719523D01*
X142357142Y-101719523D02*
X142357142Y-101624285D01*
X142357142Y-101624285D02*
X142309523Y-101529047D01*
X142309523Y-101529047D02*
X142214285Y-101481428D01*
X142214285Y-101481428D02*
X141976190Y-101481428D01*
X141976190Y-101481428D02*
X141880952Y-101433809D01*
X141404761Y-101862380D02*
X141404761Y-101195714D01*
X141404761Y-101386190D02*
X141357142Y-101290952D01*
X141357142Y-101290952D02*
X141309523Y-101243333D01*
X141309523Y-101243333D02*
X141214285Y-101195714D01*
X141214285Y-101195714D02*
X141119047Y-101195714D01*
X140785713Y-101767142D02*
X140738094Y-101814761D01*
X140738094Y-101814761D02*
X140785713Y-101862380D01*
X140785713Y-101862380D02*
X140833332Y-101814761D01*
X140833332Y-101814761D02*
X140785713Y-101767142D01*
X140785713Y-101767142D02*
X140785713Y-101862380D01*
X139757142Y-100957619D02*
X139709523Y-100910000D01*
X139709523Y-100910000D02*
X139614285Y-100862380D01*
X139614285Y-100862380D02*
X139376190Y-100862380D01*
X139376190Y-100862380D02*
X139280952Y-100910000D01*
X139280952Y-100910000D02*
X139233333Y-100957619D01*
X139233333Y-100957619D02*
X139185714Y-101052857D01*
X139185714Y-101052857D02*
X139185714Y-101148095D01*
X139185714Y-101148095D02*
X139233333Y-101290952D01*
X139233333Y-101290952D02*
X139804761Y-101862380D01*
X139804761Y-101862380D02*
X139185714Y-101862380D01*
X138566666Y-100862380D02*
X138471428Y-100862380D01*
X138471428Y-100862380D02*
X138376190Y-100910000D01*
X138376190Y-100910000D02*
X138328571Y-100957619D01*
X138328571Y-100957619D02*
X138280952Y-101052857D01*
X138280952Y-101052857D02*
X138233333Y-101243333D01*
X138233333Y-101243333D02*
X138233333Y-101481428D01*
X138233333Y-101481428D02*
X138280952Y-101671904D01*
X138280952Y-101671904D02*
X138328571Y-101767142D01*
X138328571Y-101767142D02*
X138376190Y-101814761D01*
X138376190Y-101814761D02*
X138471428Y-101862380D01*
X138471428Y-101862380D02*
X138566666Y-101862380D01*
X138566666Y-101862380D02*
X138661904Y-101814761D01*
X138661904Y-101814761D02*
X138709523Y-101767142D01*
X138709523Y-101767142D02*
X138757142Y-101671904D01*
X138757142Y-101671904D02*
X138804761Y-101481428D01*
X138804761Y-101481428D02*
X138804761Y-101243333D01*
X138804761Y-101243333D02*
X138757142Y-101052857D01*
X138757142Y-101052857D02*
X138709523Y-100957619D01*
X138709523Y-100957619D02*
X138661904Y-100910000D01*
X138661904Y-100910000D02*
X138566666Y-100862380D01*
X137852380Y-100957619D02*
X137804761Y-100910000D01*
X137804761Y-100910000D02*
X137709523Y-100862380D01*
X137709523Y-100862380D02*
X137471428Y-100862380D01*
X137471428Y-100862380D02*
X137376190Y-100910000D01*
X137376190Y-100910000D02*
X137328571Y-100957619D01*
X137328571Y-100957619D02*
X137280952Y-101052857D01*
X137280952Y-101052857D02*
X137280952Y-101148095D01*
X137280952Y-101148095D02*
X137328571Y-101290952D01*
X137328571Y-101290952D02*
X137899999Y-101862380D01*
X137899999Y-101862380D02*
X137280952Y-101862380D01*
X136947618Y-100862380D02*
X136328571Y-100862380D01*
X136328571Y-100862380D02*
X136661904Y-101243333D01*
X136661904Y-101243333D02*
X136519047Y-101243333D01*
X136519047Y-101243333D02*
X136423809Y-101290952D01*
X136423809Y-101290952D02*
X136376190Y-101338571D01*
X136376190Y-101338571D02*
X136328571Y-101433809D01*
X136328571Y-101433809D02*
X136328571Y-101671904D01*
X136328571Y-101671904D02*
X136376190Y-101767142D01*
X136376190Y-101767142D02*
X136423809Y-101814761D01*
X136423809Y-101814761D02*
X136519047Y-101862380D01*
X136519047Y-101862380D02*
X136804761Y-101862380D01*
X136804761Y-101862380D02*
X136899999Y-101814761D01*
X136899999Y-101814761D02*
X136947618Y-101767142D01*
X147861904Y-103482380D02*
X147861904Y-102482380D01*
X147433333Y-103434761D02*
X147338095Y-103482380D01*
X147338095Y-103482380D02*
X147147619Y-103482380D01*
X147147619Y-103482380D02*
X147052381Y-103434761D01*
X147052381Y-103434761D02*
X147004762Y-103339523D01*
X147004762Y-103339523D02*
X147004762Y-103291904D01*
X147004762Y-103291904D02*
X147052381Y-103196666D01*
X147052381Y-103196666D02*
X147147619Y-103149047D01*
X147147619Y-103149047D02*
X147290476Y-103149047D01*
X147290476Y-103149047D02*
X147385714Y-103101428D01*
X147385714Y-103101428D02*
X147433333Y-103006190D01*
X147433333Y-103006190D02*
X147433333Y-102958571D01*
X147433333Y-102958571D02*
X147385714Y-102863333D01*
X147385714Y-102863333D02*
X147290476Y-102815714D01*
X147290476Y-102815714D02*
X147147619Y-102815714D01*
X147147619Y-102815714D02*
X147052381Y-102863333D01*
X146147619Y-103482380D02*
X146147619Y-102958571D01*
X146147619Y-102958571D02*
X146195238Y-102863333D01*
X146195238Y-102863333D02*
X146290476Y-102815714D01*
X146290476Y-102815714D02*
X146480952Y-102815714D01*
X146480952Y-102815714D02*
X146576190Y-102863333D01*
X146147619Y-103434761D02*
X146242857Y-103482380D01*
X146242857Y-103482380D02*
X146480952Y-103482380D01*
X146480952Y-103482380D02*
X146576190Y-103434761D01*
X146576190Y-103434761D02*
X146623809Y-103339523D01*
X146623809Y-103339523D02*
X146623809Y-103244285D01*
X146623809Y-103244285D02*
X146576190Y-103149047D01*
X146576190Y-103149047D02*
X146480952Y-103101428D01*
X146480952Y-103101428D02*
X146242857Y-103101428D01*
X146242857Y-103101428D02*
X146147619Y-103053809D01*
X145242857Y-103482380D02*
X145242857Y-102958571D01*
X145242857Y-102958571D02*
X145290476Y-102863333D01*
X145290476Y-102863333D02*
X145385714Y-102815714D01*
X145385714Y-102815714D02*
X145576190Y-102815714D01*
X145576190Y-102815714D02*
X145671428Y-102863333D01*
X145242857Y-103434761D02*
X145338095Y-103482380D01*
X145338095Y-103482380D02*
X145576190Y-103482380D01*
X145576190Y-103482380D02*
X145671428Y-103434761D01*
X145671428Y-103434761D02*
X145719047Y-103339523D01*
X145719047Y-103339523D02*
X145719047Y-103244285D01*
X145719047Y-103244285D02*
X145671428Y-103149047D01*
X145671428Y-103149047D02*
X145576190Y-103101428D01*
X145576190Y-103101428D02*
X145338095Y-103101428D01*
X145338095Y-103101428D02*
X145242857Y-103053809D01*
X144338095Y-103434761D02*
X144433333Y-103482380D01*
X144433333Y-103482380D02*
X144623809Y-103482380D01*
X144623809Y-103482380D02*
X144719047Y-103434761D01*
X144719047Y-103434761D02*
X144766666Y-103387142D01*
X144766666Y-103387142D02*
X144814285Y-103291904D01*
X144814285Y-103291904D02*
X144814285Y-103006190D01*
X144814285Y-103006190D02*
X144766666Y-102910952D01*
X144766666Y-102910952D02*
X144719047Y-102863333D01*
X144719047Y-102863333D02*
X144623809Y-102815714D01*
X144623809Y-102815714D02*
X144433333Y-102815714D01*
X144433333Y-102815714D02*
X144338095Y-102863333D01*
X142738095Y-103482380D02*
X143071428Y-103006190D01*
X143309523Y-103482380D02*
X143309523Y-102482380D01*
X143309523Y-102482380D02*
X142928571Y-102482380D01*
X142928571Y-102482380D02*
X142833333Y-102530000D01*
X142833333Y-102530000D02*
X142785714Y-102577619D01*
X142785714Y-102577619D02*
X142738095Y-102672857D01*
X142738095Y-102672857D02*
X142738095Y-102815714D01*
X142738095Y-102815714D02*
X142785714Y-102910952D01*
X142785714Y-102910952D02*
X142833333Y-102958571D01*
X142833333Y-102958571D02*
X142928571Y-103006190D01*
X142928571Y-103006190D02*
X143309523Y-103006190D01*
X141928571Y-103434761D02*
X142023809Y-103482380D01*
X142023809Y-103482380D02*
X142214285Y-103482380D01*
X142214285Y-103482380D02*
X142309523Y-103434761D01*
X142309523Y-103434761D02*
X142357142Y-103339523D01*
X142357142Y-103339523D02*
X142357142Y-102958571D01*
X142357142Y-102958571D02*
X142309523Y-102863333D01*
X142309523Y-102863333D02*
X142214285Y-102815714D01*
X142214285Y-102815714D02*
X142023809Y-102815714D01*
X142023809Y-102815714D02*
X141928571Y-102863333D01*
X141928571Y-102863333D02*
X141880952Y-102958571D01*
X141880952Y-102958571D02*
X141880952Y-103053809D01*
X141880952Y-103053809D02*
X142357142Y-103149047D01*
X141547618Y-103482380D02*
X141023809Y-102815714D01*
X141547618Y-102815714D02*
X141023809Y-103482380D01*
M02*
