%TF.GenerationSoftware,KiCad,Pcbnew,(7.0.0-0)*%
%TF.CreationDate,2023-03-15T20:38:16-05:00*%
%TF.ProjectId,USB-C Breakout,5553422d-4320-4427-9265-616b6f75742e,0*%
%TF.SameCoordinates,Original*%
%TF.FileFunction,Legend,Top*%
%TF.FilePolarity,Positive*%
%FSLAX46Y46*%
G04 Gerber Fmt 4.6, Leading zero omitted, Abs format (unit mm)*
G04 Created by KiCad (PCBNEW (7.0.0-0)) date 2023-03-15 20:38:16*
%MOMM*%
%LPD*%
G01*
G04 APERTURE LIST*
%ADD10C,0.250000*%
%ADD11C,0.120000*%
G04 APERTURE END LIST*
D10*
X145638095Y-100730000D02*
X145542857Y-100682380D01*
X145542857Y-100682380D02*
X145400000Y-100682380D01*
X145400000Y-100682380D02*
X145257143Y-100730000D01*
X145257143Y-100730000D02*
X145161905Y-100825238D01*
X145161905Y-100825238D02*
X145114286Y-100920476D01*
X145114286Y-100920476D02*
X145066667Y-101110952D01*
X145066667Y-101110952D02*
X145066667Y-101253809D01*
X145066667Y-101253809D02*
X145114286Y-101444285D01*
X145114286Y-101444285D02*
X145161905Y-101539523D01*
X145161905Y-101539523D02*
X145257143Y-101634761D01*
X145257143Y-101634761D02*
X145400000Y-101682380D01*
X145400000Y-101682380D02*
X145495238Y-101682380D01*
X145495238Y-101682380D02*
X145638095Y-101634761D01*
X145638095Y-101634761D02*
X145685714Y-101587142D01*
X145685714Y-101587142D02*
X145685714Y-101253809D01*
X145685714Y-101253809D02*
X145495238Y-101253809D01*
X146114286Y-101682380D02*
X146114286Y-100682380D01*
X146114286Y-100682380D02*
X146685714Y-101682380D01*
X146685714Y-101682380D02*
X146685714Y-100682380D01*
X147161905Y-101682380D02*
X147161905Y-100682380D01*
X147161905Y-100682380D02*
X147400000Y-100682380D01*
X147400000Y-100682380D02*
X147542857Y-100730000D01*
X147542857Y-100730000D02*
X147638095Y-100825238D01*
X147638095Y-100825238D02*
X147685714Y-100920476D01*
X147685714Y-100920476D02*
X147733333Y-101110952D01*
X147733333Y-101110952D02*
X147733333Y-101253809D01*
X147733333Y-101253809D02*
X147685714Y-101444285D01*
X147685714Y-101444285D02*
X147638095Y-101539523D01*
X147638095Y-101539523D02*
X147542857Y-101634761D01*
X147542857Y-101634761D02*
X147400000Y-101682380D01*
X147400000Y-101682380D02*
X147161905Y-101682380D01*
X143632380Y-101680951D02*
X142632380Y-101680951D01*
X142632380Y-101680951D02*
X142632380Y-101442856D01*
X142632380Y-101442856D02*
X142680000Y-101299999D01*
X142680000Y-101299999D02*
X142775238Y-101204761D01*
X142775238Y-101204761D02*
X142870476Y-101157142D01*
X142870476Y-101157142D02*
X143060952Y-101109523D01*
X143060952Y-101109523D02*
X143203809Y-101109523D01*
X143203809Y-101109523D02*
X143394285Y-101157142D01*
X143394285Y-101157142D02*
X143489523Y-101204761D01*
X143489523Y-101204761D02*
X143584761Y-101299999D01*
X143584761Y-101299999D02*
X143632380Y-101442856D01*
X143632380Y-101442856D02*
X143632380Y-101680951D01*
X143632380Y-100680951D02*
X142632380Y-100680951D01*
X142632380Y-100680951D02*
X142632380Y-100299999D01*
X142632380Y-100299999D02*
X142680000Y-100204761D01*
X142680000Y-100204761D02*
X142727619Y-100157142D01*
X142727619Y-100157142D02*
X142822857Y-100109523D01*
X142822857Y-100109523D02*
X142965714Y-100109523D01*
X142965714Y-100109523D02*
X143060952Y-100157142D01*
X143060952Y-100157142D02*
X143108571Y-100204761D01*
X143108571Y-100204761D02*
X143156190Y-100299999D01*
X143156190Y-100299999D02*
X143156190Y-100680951D01*
X143251428Y-99680951D02*
X143251428Y-98919047D01*
X141682380Y-101680951D02*
X140682380Y-101680951D01*
X140682380Y-101680951D02*
X140682380Y-101442856D01*
X140682380Y-101442856D02*
X140730000Y-101299999D01*
X140730000Y-101299999D02*
X140825238Y-101204761D01*
X140825238Y-101204761D02*
X140920476Y-101157142D01*
X140920476Y-101157142D02*
X141110952Y-101109523D01*
X141110952Y-101109523D02*
X141253809Y-101109523D01*
X141253809Y-101109523D02*
X141444285Y-101157142D01*
X141444285Y-101157142D02*
X141539523Y-101204761D01*
X141539523Y-101204761D02*
X141634761Y-101299999D01*
X141634761Y-101299999D02*
X141682380Y-101442856D01*
X141682380Y-101442856D02*
X141682380Y-101680951D01*
X141682380Y-100680951D02*
X140682380Y-100680951D01*
X140682380Y-100680951D02*
X140682380Y-100299999D01*
X140682380Y-100299999D02*
X140730000Y-100204761D01*
X140730000Y-100204761D02*
X140777619Y-100157142D01*
X140777619Y-100157142D02*
X140872857Y-100109523D01*
X140872857Y-100109523D02*
X141015714Y-100109523D01*
X141015714Y-100109523D02*
X141110952Y-100157142D01*
X141110952Y-100157142D02*
X141158571Y-100204761D01*
X141158571Y-100204761D02*
X141206190Y-100299999D01*
X141206190Y-100299999D02*
X141206190Y-100680951D01*
X141301428Y-99680951D02*
X141301428Y-98919047D01*
X141682380Y-99299999D02*
X140920476Y-99299999D01*
X136116667Y-100682380D02*
X136450000Y-101682380D01*
X136450000Y-101682380D02*
X136783333Y-100682380D01*
X137450000Y-101158571D02*
X137592857Y-101206190D01*
X137592857Y-101206190D02*
X137640476Y-101253809D01*
X137640476Y-101253809D02*
X137688095Y-101349047D01*
X137688095Y-101349047D02*
X137688095Y-101491904D01*
X137688095Y-101491904D02*
X137640476Y-101587142D01*
X137640476Y-101587142D02*
X137592857Y-101634761D01*
X137592857Y-101634761D02*
X137497619Y-101682380D01*
X137497619Y-101682380D02*
X137116667Y-101682380D01*
X137116667Y-101682380D02*
X137116667Y-100682380D01*
X137116667Y-100682380D02*
X137450000Y-100682380D01*
X137450000Y-100682380D02*
X137545238Y-100730000D01*
X137545238Y-100730000D02*
X137592857Y-100777619D01*
X137592857Y-100777619D02*
X137640476Y-100872857D01*
X137640476Y-100872857D02*
X137640476Y-100968095D01*
X137640476Y-100968095D02*
X137592857Y-101063333D01*
X137592857Y-101063333D02*
X137545238Y-101110952D01*
X137545238Y-101110952D02*
X137450000Y-101158571D01*
X137450000Y-101158571D02*
X137116667Y-101158571D01*
X138116667Y-100682380D02*
X138116667Y-101491904D01*
X138116667Y-101491904D02*
X138164286Y-101587142D01*
X138164286Y-101587142D02*
X138211905Y-101634761D01*
X138211905Y-101634761D02*
X138307143Y-101682380D01*
X138307143Y-101682380D02*
X138497619Y-101682380D01*
X138497619Y-101682380D02*
X138592857Y-101634761D01*
X138592857Y-101634761D02*
X138640476Y-101587142D01*
X138640476Y-101587142D02*
X138688095Y-101491904D01*
X138688095Y-101491904D02*
X138688095Y-100682380D01*
X139116667Y-101634761D02*
X139259524Y-101682380D01*
X139259524Y-101682380D02*
X139497619Y-101682380D01*
X139497619Y-101682380D02*
X139592857Y-101634761D01*
X139592857Y-101634761D02*
X139640476Y-101587142D01*
X139640476Y-101587142D02*
X139688095Y-101491904D01*
X139688095Y-101491904D02*
X139688095Y-101396666D01*
X139688095Y-101396666D02*
X139640476Y-101301428D01*
X139640476Y-101301428D02*
X139592857Y-101253809D01*
X139592857Y-101253809D02*
X139497619Y-101206190D01*
X139497619Y-101206190D02*
X139307143Y-101158571D01*
X139307143Y-101158571D02*
X139211905Y-101110952D01*
X139211905Y-101110952D02*
X139164286Y-101063333D01*
X139164286Y-101063333D02*
X139116667Y-100968095D01*
X139116667Y-100968095D02*
X139116667Y-100872857D01*
X139116667Y-100872857D02*
X139164286Y-100777619D01*
X139164286Y-100777619D02*
X139211905Y-100730000D01*
X139211905Y-100730000D02*
X139307143Y-100682380D01*
X139307143Y-100682380D02*
X139545238Y-100682380D01*
X139545238Y-100682380D02*
X139688095Y-100730000D01*
D11*
%TO.C,R2*%
X139437258Y-99872500D02*
X138962742Y-99872500D01*
X139437258Y-98827500D02*
X138962742Y-98827500D01*
%TO.C,R1*%
X144937742Y-98827500D02*
X145412258Y-98827500D01*
X144937742Y-99872500D02*
X145412258Y-99872500D01*
%TO.C,J2*%
X135545085Y-102150000D02*
X135545085Y-103400000D01*
X135835085Y-102440000D02*
X135835085Y-108410000D01*
X135835085Y-108410000D02*
X148455085Y-108410000D01*
X135845085Y-102450000D02*
X135845085Y-103200000D01*
X135845085Y-103200000D02*
X137645085Y-103200000D01*
X135845085Y-104700000D02*
X136595085Y-104700000D01*
X136595085Y-104700000D02*
X136595085Y-107650000D01*
X136595085Y-107650000D02*
X142145085Y-107650000D01*
X136795085Y-102150000D02*
X135545085Y-102150000D01*
X137645085Y-102450000D02*
X135845085Y-102450000D01*
X137645085Y-103200000D02*
X137645085Y-102450000D01*
X139145085Y-102450000D02*
X139145085Y-103200000D01*
X139145085Y-103200000D02*
X145145085Y-103200000D01*
X145145085Y-102450000D02*
X139145085Y-102450000D01*
X145145085Y-103200000D02*
X145145085Y-102450000D01*
X146645085Y-102450000D02*
X146645085Y-103200000D01*
X146645085Y-103200000D02*
X148445085Y-103200000D01*
X147695085Y-104700000D02*
X147695085Y-107650000D01*
X147695085Y-107650000D02*
X142145085Y-107650000D01*
X148445085Y-102450000D02*
X146645085Y-102450000D01*
X148445085Y-103200000D02*
X148445085Y-102450000D01*
X148445085Y-104700000D02*
X147695085Y-104700000D01*
X148455085Y-102440000D02*
X135835085Y-102440000D01*
X148455085Y-108410000D02*
X148455085Y-102440000D01*
%TO.C,J1*%
X146845085Y-94720000D02*
X146845085Y-92820000D01*
X146845085Y-90720000D02*
X146845085Y-88920000D01*
X146845085Y-88920000D02*
X137445085Y-88920000D01*
X137445085Y-94720000D02*
X137445085Y-92820000D01*
X137445085Y-90720000D02*
X137445085Y-88920000D01*
%TD*%
M02*
