%TF.GenerationSoftware,KiCad,Pcbnew,(7.0.0-0)*%
%TF.CreationDate,2023-03-15T20:38:16-05:00*%
%TF.ProjectId,USB-C Breakout,5553422d-4320-4427-9265-616b6f75742e,0*%
%TF.SameCoordinates,Original*%
%TF.FileFunction,Copper,L1,Top*%
%TF.FilePolarity,Positive*%
%FSLAX46Y46*%
G04 Gerber Fmt 4.6, Leading zero omitted, Abs format (unit mm)*
G04 Created by KiCad (PCBNEW (7.0.0-0)) date 2023-03-15 20:38:16*
%MOMM*%
%LPD*%
G01*
G04 APERTURE LIST*
G04 Aperture macros list*
%AMRoundRect*
0 Rectangle with rounded corners*
0 $1 Rounding radius*
0 $2 $3 $4 $5 $6 $7 $8 $9 X,Y pos of 4 corners*
0 Add a 4 corners polygon primitive as box body*
4,1,4,$2,$3,$4,$5,$6,$7,$8,$9,$2,$3,0*
0 Add four circle primitives for the rounded corners*
1,1,$1+$1,$2,$3*
1,1,$1+$1,$4,$5*
1,1,$1+$1,$6,$7*
1,1,$1+$1,$8,$9*
0 Add four rect primitives between the rounded corners*
20,1,$1+$1,$2,$3,$4,$5,0*
20,1,$1+$1,$4,$5,$6,$7,0*
20,1,$1+$1,$6,$7,$8,$9,0*
20,1,$1+$1,$8,$9,$2,$3,0*%
G04 Aperture macros list end*
%TA.AperFunction,SMDPad,CuDef*%
%ADD10RoundRect,0.200000X0.200000X0.275000X-0.200000X0.275000X-0.200000X-0.275000X0.200000X-0.275000X0*%
%TD*%
%TA.AperFunction,SMDPad,CuDef*%
%ADD11RoundRect,0.200000X-0.200000X-0.275000X0.200000X-0.275000X0.200000X0.275000X-0.200000X0.275000X0*%
%TD*%
%TA.AperFunction,ComponentPad*%
%ADD12RoundRect,0.250000X-0.600000X-0.725000X0.600000X-0.725000X0.600000X0.725000X-0.600000X0.725000X0*%
%TD*%
%TA.AperFunction,ComponentPad*%
%ADD13O,1.700000X1.950000*%
%TD*%
%TA.AperFunction,SMDPad,CuDef*%
%ADD14R,0.600000X1.450000*%
%TD*%
%TA.AperFunction,SMDPad,CuDef*%
%ADD15R,0.300000X1.450000*%
%TD*%
%TA.AperFunction,ComponentPad*%
%ADD16O,1.000000X2.100000*%
%TD*%
%TA.AperFunction,ComponentPad*%
%ADD17O,1.000000X1.800000*%
%TD*%
%TA.AperFunction,ViaPad*%
%ADD18C,0.700000*%
%TD*%
%TA.AperFunction,ViaPad*%
%ADD19C,0.500000*%
%TD*%
%TA.AperFunction,Conductor*%
%ADD20C,0.150000*%
%TD*%
%TA.AperFunction,Conductor*%
%ADD21C,0.175000*%
%TD*%
G04 APERTURE END LIST*
D10*
%TO.P,R2,1*%
%TO.N,Net-(J1-CC2)*%
X140025000Y-99350000D03*
%TO.P,R2,2*%
%TO.N,GND*%
X138375000Y-99350000D03*
%TD*%
D11*
%TO.P,R1,1*%
%TO.N,Net-(J1-CC1)*%
X144350000Y-99350000D03*
%TO.P,R1,2*%
%TO.N,GND*%
X146000000Y-99350000D03*
%TD*%
D12*
%TO.P,J2,1,Pin_1*%
%TO.N,VBUS*%
X138395085Y-104900000D03*
D13*
%TO.P,J2,2,Pin_2*%
%TO.N,/DP_USB_+*%
X140895084Y-104899999D03*
%TO.P,J2,3,Pin_3*%
%TO.N,/DP_USB_-*%
X143395084Y-104899999D03*
%TO.P,J2,4,Pin_4*%
%TO.N,GND*%
X145895084Y-104899999D03*
%TD*%
D14*
%TO.P,J1,A1,GND*%
%TO.N,GND*%
X145395084Y-96864999D03*
%TO.P,J1,A4,VBUS*%
%TO.N,VBUS*%
X144595084Y-96864999D03*
D15*
%TO.P,J1,A5,CC1*%
%TO.N,Net-(J1-CC1)*%
X143395084Y-96864999D03*
%TO.P,J1,A6,D+*%
%TO.N,/DP_USB_+*%
X142395084Y-96864999D03*
%TO.P,J1,A7,D-*%
%TO.N,/DP_USB_-*%
X141895084Y-96864999D03*
%TO.P,J1,A8,SBU1*%
%TO.N,unconnected-(J1-SBU1-PadA8)*%
X140895084Y-96864999D03*
D14*
%TO.P,J1,A9,VBUS*%
%TO.N,VBUS*%
X139695084Y-96864999D03*
%TO.P,J1,A12,GND*%
%TO.N,GND*%
X138895084Y-96864999D03*
%TO.P,J1,B1,GND*%
X138895084Y-96864999D03*
%TO.P,J1,B4,VBUS*%
%TO.N,VBUS*%
X139695084Y-96864999D03*
D15*
%TO.P,J1,B5,CC2*%
%TO.N,Net-(J1-CC2)*%
X140395084Y-96864999D03*
%TO.P,J1,B6,D+*%
%TO.N,/DP_USB_+*%
X141395084Y-96864999D03*
%TO.P,J1,B7,D-*%
%TO.N,/DP_USB_-*%
X142895084Y-96864999D03*
%TO.P,J1,B8,SBU2*%
%TO.N,unconnected-(J1-SBU2-PadB8)*%
X143895084Y-96864999D03*
D14*
%TO.P,J1,B9,VBUS*%
%TO.N,VBUS*%
X144595084Y-96864999D03*
%TO.P,J1,B12,GND*%
%TO.N,GND*%
X145395084Y-96864999D03*
D16*
%TO.P,J1,S1,SHIELD*%
X146465084Y-95949999D03*
D17*
X146465084Y-91769999D03*
D16*
X137825084Y-95949999D03*
D17*
X137825084Y-91769999D03*
%TD*%
D18*
%TO.N,GND*%
X145100000Y-98300000D03*
X144850000Y-102850000D03*
X147650000Y-105000000D03*
X147450000Y-106650000D03*
X144850000Y-106800000D03*
X139450000Y-106800000D03*
X142150000Y-106800000D03*
D19*
X138350000Y-100150000D03*
X146000000Y-100300000D03*
%TO.N,VBUS*%
X140100000Y-95350000D03*
X144200000Y-95350000D03*
X141550000Y-94500000D03*
X143350000Y-94500000D03*
X140500000Y-94900000D03*
X143800000Y-94900000D03*
X142150000Y-94500000D03*
X142750000Y-94500000D03*
X140950000Y-94500000D03*
%TD*%
D20*
%TO.N,GND*%
X138535000Y-96865000D02*
X138200000Y-97200000D01*
X138895085Y-96865000D02*
X138535000Y-96865000D01*
%TO.N,Net-(J1-CC1)*%
X143439169Y-98339169D02*
X144350000Y-99250000D01*
X144350000Y-99250000D02*
X144350000Y-99350000D01*
%TO.N,GND*%
X146000000Y-99350000D02*
X146000000Y-100300000D01*
X138350000Y-100150000D02*
X138375000Y-100125000D01*
X138375000Y-100125000D02*
X138375000Y-99350000D01*
%TO.N,Net-(J1-CC2)*%
X140025000Y-99350000D02*
X140025000Y-99300000D01*
X140025000Y-99300000D02*
X140395085Y-98929915D01*
X140395085Y-98929915D02*
X140395085Y-96865000D01*
%TO.N,Net-(J1-CC1)*%
X143439169Y-96909084D02*
X143395085Y-96865000D01*
X143439169Y-98339169D02*
X143439169Y-96909084D01*
D21*
%TO.N,/DP_USB_+*%
X141530085Y-97900000D02*
X142260085Y-97900000D01*
X142395085Y-97765000D02*
X142395085Y-96865000D01*
X141395085Y-97765000D02*
X141530085Y-97900000D01*
X141655750Y-104900000D02*
X140895085Y-104900000D01*
X142011500Y-98263500D02*
X142011500Y-104544250D01*
X142011500Y-104544250D02*
X141655750Y-104900000D01*
X142260085Y-97900000D02*
X142175000Y-97985085D01*
X141395085Y-96865000D02*
X141395085Y-97765000D01*
X142260085Y-97900000D02*
X142395085Y-97765000D01*
X142175000Y-98100000D02*
X142011500Y-98263500D01*
X142175000Y-97985085D02*
X142175000Y-98100000D01*
%TO.N,/DP_USB_-*%
X142895085Y-96045085D02*
X142895085Y-96865000D01*
X142650000Y-95800000D02*
X142895085Y-96045085D01*
X142895085Y-96865000D02*
X142895085Y-97804915D01*
X142288500Y-104544250D02*
X142644250Y-104900000D01*
X141895085Y-96865000D02*
X141895085Y-95965000D01*
X141895085Y-95965000D02*
X142060085Y-95800000D01*
X142288500Y-98411500D02*
X142288500Y-104544250D01*
X142060085Y-95800000D02*
X142650000Y-95800000D01*
X142644250Y-104900000D02*
X143395085Y-104900000D01*
X142895085Y-97804915D02*
X142288500Y-98411500D01*
%TD*%
%TA.AperFunction,Conductor*%
%TO.N,VBUS*%
G36*
X140000000Y-96725000D02*
G01*
X140000000Y-97600000D01*
X140000000Y-97616326D01*
X140000000Y-98550501D01*
X139983387Y-98612501D01*
X139938000Y-98657888D01*
X139876000Y-98674500D01*
X139793482Y-98674501D01*
X139788680Y-98675261D01*
X139788673Y-98675262D01*
X139709331Y-98687828D01*
X139709330Y-98687828D01*
X139699696Y-98689354D01*
X139691010Y-98693779D01*
X139691003Y-98693782D01*
X139595353Y-98742519D01*
X139595349Y-98742521D01*
X139586658Y-98746950D01*
X139579759Y-98753848D01*
X139579756Y-98753851D01*
X139503851Y-98829756D01*
X139503848Y-98829759D01*
X139496950Y-98836658D01*
X139492521Y-98845349D01*
X139492519Y-98845353D01*
X139463257Y-98902783D01*
X139439354Y-98949696D01*
X139437827Y-98959330D01*
X139437826Y-98959337D01*
X139425263Y-99038660D01*
X139425262Y-99038667D01*
X139424500Y-99043481D01*
X139424500Y-99048358D01*
X139424500Y-99048359D01*
X139424500Y-99651647D01*
X139424500Y-99651659D01*
X139424501Y-99656518D01*
X139425261Y-99661320D01*
X139425262Y-99661326D01*
X139435263Y-99724473D01*
X139439354Y-99750304D01*
X139443780Y-99758991D01*
X139443782Y-99758996D01*
X139492519Y-99854646D01*
X139496950Y-99863342D01*
X139586658Y-99953050D01*
X139699696Y-100010646D01*
X139793481Y-100025500D01*
X139798358Y-100025499D01*
X139798359Y-100025500D01*
X139876000Y-100025500D01*
X139938000Y-100042113D01*
X139983387Y-100087500D01*
X140000000Y-100149500D01*
X140000000Y-103023638D01*
X139990561Y-103071091D01*
X139963681Y-103111319D01*
X139408635Y-103666364D01*
X139408632Y-103666367D01*
X139400000Y-103675000D01*
X139400000Y-103679287D01*
X139393135Y-103689561D01*
X139348162Y-103730199D01*
X139289300Y-103744665D01*
X139237327Y-103731236D01*
X139237174Y-103731647D01*
X139233246Y-103730182D01*
X139230614Y-103729502D01*
X139228869Y-103728549D01*
X139109726Y-103684111D01*
X139094752Y-103680573D01*
X139046199Y-103675353D01*
X139039603Y-103675000D01*
X138561411Y-103675000D01*
X138548535Y-103678450D01*
X138545085Y-103691326D01*
X138545085Y-106108674D01*
X138548535Y-106121549D01*
X138561411Y-106125000D01*
X139039584Y-106125000D01*
X139044428Y-106124740D01*
X139102579Y-106135765D01*
X139148996Y-106172488D01*
X139173103Y-106226542D01*
X139169409Y-106285613D01*
X139138755Y-106336243D01*
X139107147Y-106367851D01*
X139094955Y-106378544D01*
X139063829Y-106402428D01*
X139063821Y-106402435D01*
X139057379Y-106407379D01*
X139052507Y-106413727D01*
X139012350Y-106440560D01*
X138964896Y-106450000D01*
X137026362Y-106450000D01*
X136978909Y-106440561D01*
X136938681Y-106413681D01*
X136586319Y-106061319D01*
X136559439Y-106021091D01*
X136550000Y-105973638D01*
X136550000Y-105669518D01*
X137295085Y-105669518D01*
X137295438Y-105676114D01*
X137300658Y-105724667D01*
X137304196Y-105739641D01*
X137348632Y-105858777D01*
X137357047Y-105874189D01*
X137432583Y-105975092D01*
X137444992Y-105987501D01*
X137545895Y-106063037D01*
X137561307Y-106071452D01*
X137680443Y-106115888D01*
X137695417Y-106119426D01*
X137743970Y-106124646D01*
X137750567Y-106125000D01*
X138228759Y-106125000D01*
X138241634Y-106121549D01*
X138245085Y-106108674D01*
X138245085Y-105066326D01*
X138241634Y-105053450D01*
X138228759Y-105050000D01*
X137311411Y-105050000D01*
X137298535Y-105053450D01*
X137295085Y-105066326D01*
X137295085Y-105669518D01*
X136550000Y-105669518D01*
X136550000Y-104733674D01*
X137295085Y-104733674D01*
X137298535Y-104746549D01*
X137311411Y-104750000D01*
X138228759Y-104750000D01*
X138241634Y-104746549D01*
X138245085Y-104733674D01*
X138245085Y-103691326D01*
X138241634Y-103678450D01*
X138228759Y-103675000D01*
X137750567Y-103675000D01*
X137743970Y-103675353D01*
X137695417Y-103680573D01*
X137680443Y-103684111D01*
X137561307Y-103728547D01*
X137545895Y-103736962D01*
X137444992Y-103812498D01*
X137432583Y-103824907D01*
X137357047Y-103925810D01*
X137348632Y-103941222D01*
X137304196Y-104060358D01*
X137300658Y-104075332D01*
X137295438Y-104123885D01*
X137295085Y-104130482D01*
X137295085Y-104733674D01*
X136550000Y-104733674D01*
X136550000Y-100179302D01*
X136558236Y-100134864D01*
X136577538Y-100084580D01*
X136578698Y-100081559D01*
X136673517Y-99727691D01*
X136685559Y-99651659D01*
X137774500Y-99651659D01*
X137774501Y-99656518D01*
X137775261Y-99661320D01*
X137775262Y-99661326D01*
X137785263Y-99724473D01*
X137789354Y-99750304D01*
X137793780Y-99758991D01*
X137793782Y-99758996D01*
X137842519Y-99854646D01*
X137846950Y-99863342D01*
X137853851Y-99870243D01*
X137883195Y-99899587D01*
X137915661Y-99956598D01*
X137914550Y-100019043D01*
X137913303Y-100021774D01*
X137894867Y-100150000D01*
X137896129Y-100158777D01*
X137912040Y-100269446D01*
X137912041Y-100269450D01*
X137913303Y-100278226D01*
X137916987Y-100286294D01*
X137916988Y-100286295D01*
X137963434Y-100387998D01*
X137963436Y-100388002D01*
X137967118Y-100396063D01*
X137972920Y-100402759D01*
X137972922Y-100402762D01*
X138036638Y-100476294D01*
X138051951Y-100493967D01*
X138160931Y-100564004D01*
X138285228Y-100600500D01*
X138405901Y-100600500D01*
X138414772Y-100600500D01*
X138539069Y-100564004D01*
X138648049Y-100493967D01*
X138732882Y-100396063D01*
X138786697Y-100278226D01*
X138805133Y-100150000D01*
X138790240Y-100046418D01*
X138795324Y-99989616D01*
X138825293Y-99941098D01*
X138903050Y-99863342D01*
X138960646Y-99750304D01*
X138975500Y-99656519D01*
X138975499Y-99043482D01*
X138960646Y-98949696D01*
X138903050Y-98836658D01*
X138813342Y-98746950D01*
X138700304Y-98689354D01*
X138690667Y-98687827D01*
X138690662Y-98687826D01*
X138611339Y-98675263D01*
X138611333Y-98675262D01*
X138606519Y-98674500D01*
X138601640Y-98674500D01*
X138148352Y-98674500D01*
X138148339Y-98674500D01*
X138143482Y-98674501D01*
X138138680Y-98675261D01*
X138138673Y-98675262D01*
X138059331Y-98687828D01*
X138059330Y-98687828D01*
X138049696Y-98689354D01*
X138041010Y-98693779D01*
X138041003Y-98693782D01*
X137945353Y-98742519D01*
X137945349Y-98742521D01*
X137936658Y-98746950D01*
X137929759Y-98753848D01*
X137929756Y-98753851D01*
X137853851Y-98829756D01*
X137853848Y-98829759D01*
X137846950Y-98836658D01*
X137842521Y-98845349D01*
X137842519Y-98845353D01*
X137813257Y-98902783D01*
X137789354Y-98949696D01*
X137787827Y-98959330D01*
X137787826Y-98959337D01*
X137775263Y-99038660D01*
X137775262Y-99038667D01*
X137774500Y-99043481D01*
X137774500Y-99048358D01*
X137774500Y-99048359D01*
X137774500Y-99651647D01*
X137774500Y-99651659D01*
X136685559Y-99651659D01*
X136730827Y-99365850D01*
X136750000Y-99000000D01*
X136730827Y-98634150D01*
X136728408Y-98618877D01*
X136732950Y-98561161D01*
X136763196Y-98511803D01*
X137163681Y-98111318D01*
X137203909Y-98084439D01*
X137251362Y-98075000D01*
X138887789Y-98075000D01*
X138900000Y-98075000D01*
X139150481Y-97824518D01*
X139185155Y-97800101D01*
X139215095Y-97791820D01*
X139214833Y-97790500D01*
X139273316Y-97778867D01*
X139339637Y-97734552D01*
X139383952Y-97668231D01*
X139395585Y-97609748D01*
X139395585Y-97597196D01*
X139397527Y-97577472D01*
X139400000Y-97575000D01*
X139400000Y-96125000D01*
X140000000Y-96725000D01*
G37*
%TD.AperFunction*%
%TD*%
%TA.AperFunction,Conductor*%
%TO.N,VBUS*%
G36*
X143743306Y-93843306D02*
G01*
X144752599Y-94852599D01*
X144769954Y-94885934D01*
X144765055Y-94923195D01*
X144743996Y-94946187D01*
X144744852Y-94947302D01*
X144627883Y-95037055D01*
X144627878Y-95037059D01*
X144624634Y-95039549D01*
X144622144Y-95042793D01*
X144622140Y-95042798D01*
X144534883Y-95156513D01*
X144534880Y-95156517D01*
X144532387Y-95159767D01*
X144530818Y-95163552D01*
X144530817Y-95163556D01*
X144475966Y-95295977D01*
X144475964Y-95295981D01*
X144474398Y-95299764D01*
X144454619Y-95450000D01*
X144455154Y-95454064D01*
X144472868Y-95588619D01*
X144474398Y-95600236D01*
X144475965Y-95604020D01*
X144475966Y-95604022D01*
X144521919Y-95714962D01*
X144532387Y-95740233D01*
X144534882Y-95743485D01*
X144534883Y-95743486D01*
X144604267Y-95833909D01*
X144624634Y-95860451D01*
X144744852Y-95952698D01*
X144803206Y-95976869D01*
X144861418Y-96000982D01*
X144889467Y-96024001D01*
X144900000Y-96058724D01*
X144900000Y-97537500D01*
X144881694Y-97581694D01*
X144837500Y-97600000D01*
X144258085Y-97600000D01*
X144213891Y-97581694D01*
X144195585Y-97537500D01*
X144195585Y-96128250D01*
X144195585Y-96125180D01*
X144186852Y-96081278D01*
X144153589Y-96031496D01*
X144122446Y-96010687D01*
X144108923Y-96001651D01*
X144108921Y-96001650D01*
X144103807Y-95998233D01*
X144097774Y-95997032D01*
X144097772Y-95997032D01*
X144062915Y-95990098D01*
X144062907Y-95990097D01*
X144059905Y-95989500D01*
X143730265Y-95989500D01*
X143727258Y-95990098D01*
X143727249Y-95990099D01*
X143690453Y-95997418D01*
X143648798Y-95991239D01*
X143620519Y-95960037D01*
X143604596Y-95921597D01*
X143569621Y-95837159D01*
X143541038Y-95799908D01*
X143533629Y-95787511D01*
X143531778Y-95783398D01*
X143530333Y-95779910D01*
X143510093Y-95726540D01*
X143510092Y-95726538D01*
X143508753Y-95723007D01*
X143500038Y-95710382D01*
X143494479Y-95700525D01*
X143488187Y-95686543D01*
X143485854Y-95683565D01*
X143450658Y-95638640D01*
X143448421Y-95635599D01*
X143415993Y-95588619D01*
X143415987Y-95588612D01*
X143413843Y-95585506D01*
X143411017Y-95583002D01*
X143411014Y-95582999D01*
X143368287Y-95545147D01*
X143365538Y-95542559D01*
X143152524Y-95329545D01*
X143149936Y-95326796D01*
X143109579Y-95281242D01*
X143106467Y-95279094D01*
X143106465Y-95279092D01*
X143059493Y-95246670D01*
X143056452Y-95244433D01*
X143008543Y-95206899D01*
X143004872Y-95205246D01*
X142994554Y-95200602D01*
X142984706Y-95195048D01*
X142975191Y-95188481D01*
X142975192Y-95188481D01*
X142972078Y-95186332D01*
X142968540Y-95184990D01*
X142968538Y-95184989D01*
X142915170Y-95164749D01*
X142911683Y-95163305D01*
X142859630Y-95139878D01*
X142859626Y-95139876D01*
X142856185Y-95138328D01*
X142841098Y-95135563D01*
X142830204Y-95132526D01*
X142819396Y-95128427D01*
X142819390Y-95128425D01*
X142815858Y-95127086D01*
X142812107Y-95126630D01*
X142812101Y-95126629D01*
X142755446Y-95119750D01*
X142751714Y-95119182D01*
X142695567Y-95108892D01*
X142695559Y-95108891D01*
X142691846Y-95108211D01*
X142688074Y-95108439D01*
X142688071Y-95108439D01*
X142631098Y-95111886D01*
X142627324Y-95112000D01*
X142082761Y-95112000D01*
X142078987Y-95111886D01*
X142022013Y-95108439D01*
X142022010Y-95108439D01*
X142018239Y-95108211D01*
X142014518Y-95108892D01*
X142014516Y-95108893D01*
X141958368Y-95119182D01*
X141954637Y-95119750D01*
X141897977Y-95126630D01*
X141897971Y-95126631D01*
X141894227Y-95127086D01*
X141890700Y-95128423D01*
X141890690Y-95128426D01*
X141879878Y-95132526D01*
X141868991Y-95135561D01*
X141857622Y-95137645D01*
X141857615Y-95137647D01*
X141853900Y-95138328D01*
X141850457Y-95139877D01*
X141850452Y-95139879D01*
X141798400Y-95163305D01*
X141794914Y-95164749D01*
X141741536Y-95184993D01*
X141741532Y-95184995D01*
X141738007Y-95186332D01*
X141734905Y-95188472D01*
X141734899Y-95188476D01*
X141725374Y-95195050D01*
X141715533Y-95200600D01*
X141704989Y-95205346D01*
X141704979Y-95205351D01*
X141701542Y-95206899D01*
X141698573Y-95209224D01*
X141698568Y-95209228D01*
X141653635Y-95244430D01*
X141650596Y-95246666D01*
X141603615Y-95279095D01*
X141603610Y-95279099D01*
X141600506Y-95281242D01*
X141598008Y-95284060D01*
X141597996Y-95284072D01*
X141560138Y-95326805D01*
X141557551Y-95329553D01*
X141424638Y-95462466D01*
X141421890Y-95465053D01*
X141379157Y-95502911D01*
X141379145Y-95502923D01*
X141376327Y-95505421D01*
X141374186Y-95508522D01*
X141374175Y-95508535D01*
X141371432Y-95512510D01*
X141349042Y-95532343D01*
X141320001Y-95539500D01*
X141207772Y-95539500D01*
X141207756Y-95539500D01*
X141205725Y-95539501D01*
X141203701Y-95539767D01*
X141203692Y-95539768D01*
X141092392Y-95554420D01*
X141092389Y-95554420D01*
X141088323Y-95554956D01*
X141084535Y-95556524D01*
X141084531Y-95556526D01*
X140946027Y-95613896D01*
X140946020Y-95613899D01*
X140942244Y-95615464D01*
X140939004Y-95617949D01*
X140938997Y-95617954D01*
X140820047Y-95709228D01*
X140820043Y-95709231D01*
X140816803Y-95711718D01*
X140814316Y-95714958D01*
X140814313Y-95714962D01*
X140723039Y-95833912D01*
X140723034Y-95833919D01*
X140720549Y-95837159D01*
X140718984Y-95840935D01*
X140718981Y-95840942D01*
X140669650Y-95960037D01*
X140641370Y-95991239D01*
X140599716Y-95997418D01*
X140562920Y-95990099D01*
X140562912Y-95990098D01*
X140559905Y-95989500D01*
X140230265Y-95989500D01*
X140227263Y-95990097D01*
X140227254Y-95990098D01*
X140192397Y-95997032D01*
X140192393Y-95997033D01*
X140186363Y-95998233D01*
X140181250Y-96001649D01*
X140181246Y-96001651D01*
X140141698Y-96028076D01*
X140141695Y-96028078D01*
X140136581Y-96031496D01*
X140133163Y-96036610D01*
X140133161Y-96036613D01*
X140106736Y-96076161D01*
X140106734Y-96076165D01*
X140103318Y-96081278D01*
X140102118Y-96087308D01*
X140102117Y-96087312D01*
X140095183Y-96122169D01*
X140095182Y-96122178D01*
X140094585Y-96125180D01*
X140094585Y-96128250D01*
X140094585Y-97537500D01*
X140076279Y-97581694D01*
X140032085Y-97600000D01*
X139400000Y-97600000D01*
X139400000Y-96054652D01*
X139410533Y-96019929D01*
X139438582Y-95996910D01*
X139471588Y-95983238D01*
X139545318Y-95952698D01*
X139665536Y-95860451D01*
X139757783Y-95740233D01*
X139815772Y-95600236D01*
X139835551Y-95450000D01*
X139815772Y-95299764D01*
X139757783Y-95159767D01*
X139665536Y-95039549D01*
X139662286Y-95037055D01*
X139549450Y-94950472D01*
X139528767Y-94922264D01*
X139526480Y-94887360D01*
X139543301Y-94856698D01*
X140556694Y-93843305D01*
X140600888Y-93825000D01*
X143699112Y-93825000D01*
X143743306Y-93843306D01*
G37*
%TD.AperFunction*%
%TD*%
%TA.AperFunction,Conductor*%
%TO.N,GND*%
G36*
X147247805Y-90470738D02*
G01*
X147252403Y-90471140D01*
X147290290Y-90474454D01*
X147290731Y-90474495D01*
X147421868Y-90487409D01*
X147431910Y-90489235D01*
X147502484Y-90508144D01*
X147504355Y-90508679D01*
X147600840Y-90537946D01*
X147609099Y-90541106D01*
X147680466Y-90574385D01*
X147683484Y-90575893D01*
X147767408Y-90620750D01*
X147773773Y-90624661D01*
X147806109Y-90647302D01*
X147839894Y-90670958D01*
X147843695Y-90673842D01*
X147915895Y-90733094D01*
X147920440Y-90737213D01*
X147977878Y-90794651D01*
X147981997Y-90799195D01*
X148041241Y-90871383D01*
X148044125Y-90875184D01*
X148090421Y-90941300D01*
X148094344Y-90947686D01*
X148139196Y-91031595D01*
X148140720Y-91034645D01*
X148173983Y-91105979D01*
X148177148Y-91114249D01*
X148206410Y-91210710D01*
X148206971Y-91212677D01*
X148225855Y-91283154D01*
X148227685Y-91293209D01*
X148240685Y-91425307D01*
X148240747Y-91425979D01*
X148244347Y-91467110D01*
X148244585Y-91472559D01*
X148244585Y-93500099D01*
X148244594Y-93500122D01*
X148244600Y-93500174D01*
X148244600Y-93631119D01*
X148244866Y-93633144D01*
X148244867Y-93633150D01*
X148253846Y-93701350D01*
X148278829Y-93891114D01*
X148279359Y-93893092D01*
X148279360Y-93893097D01*
X148346168Y-94142430D01*
X148346170Y-94142436D01*
X148346701Y-94144416D01*
X148347480Y-94146298D01*
X148347484Y-94146308D01*
X148396720Y-94265173D01*
X148447055Y-94386693D01*
X148448074Y-94388458D01*
X148448077Y-94388464D01*
X148577155Y-94612036D01*
X148577160Y-94612043D01*
X148578173Y-94613798D01*
X148579410Y-94615410D01*
X148579412Y-94615413D01*
X148736567Y-94820223D01*
X148736569Y-94820225D01*
X148737813Y-94821846D01*
X148923243Y-95007277D01*
X149131289Y-95166918D01*
X149358394Y-95298039D01*
X149600669Y-95398394D01*
X149853972Y-95466268D01*
X150113966Y-95500499D01*
X150121323Y-95500499D01*
X150162532Y-95516009D01*
X150183288Y-95554841D01*
X150173290Y-95597722D01*
X150137499Y-95623369D01*
X149960199Y-95670876D01*
X149960190Y-95670878D01*
X149958611Y-95671302D01*
X149957086Y-95671887D01*
X149957081Y-95671889D01*
X149618113Y-95802007D01*
X149616592Y-95802591D01*
X149615158Y-95803321D01*
X149615137Y-95803331D01*
X149291633Y-95968165D01*
X149291624Y-95968169D01*
X149290170Y-95968911D01*
X149288802Y-95969799D01*
X149288794Y-95969804D01*
X148984290Y-96167552D01*
X148984282Y-96167557D01*
X148982922Y-96168441D01*
X148981660Y-96169462D01*
X148981653Y-96169468D01*
X148699482Y-96397964D01*
X148699466Y-96397977D01*
X148698213Y-96398993D01*
X148697066Y-96400139D01*
X148697056Y-96400149D01*
X148440319Y-96656886D01*
X148440309Y-96656896D01*
X148439163Y-96658043D01*
X148438147Y-96659296D01*
X148438134Y-96659312D01*
X148209638Y-96941483D01*
X148209632Y-96941490D01*
X148208611Y-96942752D01*
X148207727Y-96944112D01*
X148207722Y-96944120D01*
X148009974Y-97248624D01*
X148009969Y-97248632D01*
X148009081Y-97250000D01*
X148008339Y-97251454D01*
X148008335Y-97251463D01*
X147843501Y-97574967D01*
X147843491Y-97574988D01*
X147842761Y-97576422D01*
X147842178Y-97577940D01*
X147842177Y-97577943D01*
X147712687Y-97915277D01*
X147711472Y-97918441D01*
X147711048Y-97920020D01*
X147711046Y-97920029D01*
X147617079Y-98270717D01*
X147617076Y-98270727D01*
X147616653Y-98272309D01*
X147616398Y-98273917D01*
X147616396Y-98273928D01*
X147559596Y-98632547D01*
X147559594Y-98632563D01*
X147559343Y-98634150D01*
X147559258Y-98635765D01*
X147559257Y-98635778D01*
X147542321Y-98958951D01*
X147540170Y-99000000D01*
X147540256Y-99001641D01*
X147559257Y-99364221D01*
X147559258Y-99364232D01*
X147559343Y-99365850D01*
X147559594Y-99367438D01*
X147559596Y-99367452D01*
X147616396Y-99726071D01*
X147616653Y-99727691D01*
X147617077Y-99729276D01*
X147617079Y-99729282D01*
X147709892Y-100075664D01*
X147711472Y-100081559D01*
X147842761Y-100423578D01*
X147843495Y-100425018D01*
X147843501Y-100425032D01*
X147945670Y-100625549D01*
X148009081Y-100750000D01*
X148208611Y-101057248D01*
X148209638Y-101058516D01*
X148438134Y-101340687D01*
X148438139Y-101340693D01*
X148439163Y-101341957D01*
X148698213Y-101601007D01*
X148982922Y-101831559D01*
X149290170Y-102031089D01*
X149468938Y-102122175D01*
X149615137Y-102196668D01*
X149615142Y-102196670D01*
X149616592Y-102197409D01*
X149958611Y-102328698D01*
X150137443Y-102376616D01*
X150173232Y-102402260D01*
X150183232Y-102445139D01*
X150162480Y-102483971D01*
X150121275Y-102499485D01*
X150116015Y-102499485D01*
X150116000Y-102499485D01*
X150113965Y-102499486D01*
X150111941Y-102499752D01*
X150111933Y-102499753D01*
X149856000Y-102533449D01*
X149855991Y-102533450D01*
X149853969Y-102533717D01*
X149852005Y-102534243D01*
X149851991Y-102534246D01*
X149602637Y-102601063D01*
X149602628Y-102601065D01*
X149600665Y-102601592D01*
X149598782Y-102602371D01*
X149598776Y-102602374D01*
X149360287Y-102701160D01*
X149360274Y-102701166D01*
X149358387Y-102701948D01*
X149356609Y-102702974D01*
X149356604Y-102702977D01*
X149133063Y-102832040D01*
X149131281Y-102833069D01*
X149129655Y-102834316D01*
X149129650Y-102834320D01*
X148924865Y-102991459D01*
X148924858Y-102991464D01*
X148923233Y-102992712D01*
X148921785Y-102994159D01*
X148921777Y-102994167D01*
X148739249Y-103176696D01*
X148739241Y-103176704D01*
X148737802Y-103178144D01*
X148736567Y-103179753D01*
X148736556Y-103179766D01*
X148579400Y-103384578D01*
X148579393Y-103384587D01*
X148578161Y-103386194D01*
X148577152Y-103387940D01*
X148577143Y-103387955D01*
X148448071Y-103611516D01*
X148447041Y-103613300D01*
X148446264Y-103615175D01*
X148446259Y-103615186D01*
X148347470Y-103853687D01*
X148347466Y-103853696D01*
X148346687Y-103855579D01*
X148346159Y-103857548D01*
X148346155Y-103857561D01*
X148285944Y-104082272D01*
X148278814Y-104108883D01*
X148278546Y-104110913D01*
X148278546Y-104110917D01*
X148244852Y-104366848D01*
X148244851Y-104366855D01*
X148244585Y-104368880D01*
X148244585Y-104370927D01*
X148244585Y-106397271D01*
X148244347Y-106402720D01*
X148240637Y-106445110D01*
X148240574Y-106445787D01*
X148227673Y-106576780D01*
X148225844Y-106586830D01*
X148206958Y-106657313D01*
X148206397Y-106659281D01*
X148177133Y-106755747D01*
X148173968Y-106764017D01*
X148140707Y-106835345D01*
X148139183Y-106838393D01*
X148094332Y-106922303D01*
X148090409Y-106928690D01*
X148044115Y-106994804D01*
X148041231Y-106998605D01*
X147981986Y-107070795D01*
X147977866Y-107075340D01*
X147920427Y-107132777D01*
X147915883Y-107136896D01*
X147843689Y-107196143D01*
X147839888Y-107199026D01*
X147773780Y-107245315D01*
X147767393Y-107249239D01*
X147683492Y-107294083D01*
X147680444Y-107295607D01*
X147609096Y-107328876D01*
X147600826Y-107332040D01*
X147504388Y-107361294D01*
X147502420Y-107361856D01*
X147431906Y-107380749D01*
X147421861Y-107382577D01*
X147291854Y-107395390D01*
X147291171Y-107395453D01*
X147247634Y-107399262D01*
X147242187Y-107399500D01*
X137047815Y-107399500D01*
X137042366Y-107399262D01*
X136999978Y-107395552D01*
X136999300Y-107395489D01*
X136868307Y-107382586D01*
X136858257Y-107380757D01*
X136787733Y-107361859D01*
X136785779Y-107361301D01*
X136689340Y-107332045D01*
X136681076Y-107328883D01*
X136609737Y-107295616D01*
X136606688Y-107294092D01*
X136522782Y-107249242D01*
X136516396Y-107245319D01*
X136450284Y-107199026D01*
X136446483Y-107196142D01*
X136374296Y-107136899D01*
X136369756Y-107132785D01*
X136312296Y-107075324D01*
X136308197Y-107070800D01*
X136248923Y-106998575D01*
X136246084Y-106994831D01*
X136199760Y-106928674D01*
X136195862Y-106922330D01*
X136150978Y-106838357D01*
X136149498Y-106835396D01*
X136116207Y-106764002D01*
X136113048Y-106755744D01*
X136083779Y-106659256D01*
X136083235Y-106657350D01*
X136064337Y-106586823D01*
X136062509Y-106576779D01*
X136061938Y-106570990D01*
X136049689Y-106446712D01*
X136049631Y-106446080D01*
X136049605Y-106445787D01*
X136045822Y-106402548D01*
X136045585Y-106397102D01*
X136045585Y-104500036D01*
X136045592Y-104500000D01*
X136045600Y-104500000D01*
X136045600Y-104368880D01*
X136011370Y-104108883D01*
X135943497Y-103855578D01*
X135843141Y-103613299D01*
X135712020Y-103386193D01*
X135695684Y-103364904D01*
X135553622Y-103179765D01*
X135553620Y-103179763D01*
X135552378Y-103178144D01*
X135366945Y-102992712D01*
X135365327Y-102991471D01*
X135365322Y-102991466D01*
X135160510Y-102834310D01*
X135160507Y-102834308D01*
X135158895Y-102833071D01*
X135157140Y-102832058D01*
X135157133Y-102832053D01*
X134933554Y-102702972D01*
X134933552Y-102702971D01*
X134931787Y-102701952D01*
X134929904Y-102701172D01*
X134929900Y-102701170D01*
X134691399Y-102602381D01*
X134691395Y-102602379D01*
X134689508Y-102601598D01*
X134687534Y-102601069D01*
X134687525Y-102601066D01*
X134438186Y-102534258D01*
X134438181Y-102534257D01*
X134436203Y-102533727D01*
X134434169Y-102533459D01*
X134434168Y-102533459D01*
X134178236Y-102499766D01*
X134178230Y-102499765D01*
X134176205Y-102499499D01*
X134174158Y-102499499D01*
X134168854Y-102499499D01*
X134127645Y-102483989D01*
X134106889Y-102445157D01*
X134116887Y-102402276D01*
X134152677Y-102376629D01*
X134331559Y-102328698D01*
X134673578Y-102197409D01*
X135000000Y-102031089D01*
X135307248Y-101831559D01*
X135591957Y-101601007D01*
X135851007Y-101341957D01*
X136081559Y-101057248D01*
X136229582Y-100829312D01*
X136260368Y-100804715D01*
X136299751Y-100803426D01*
X136332078Y-100825957D01*
X136344500Y-100863352D01*
X136344500Y-104544500D01*
X136344500Y-105255500D01*
X136344500Y-105973638D01*
X136344649Y-105975151D01*
X136344650Y-105975170D01*
X136348091Y-106010096D01*
X136348449Y-106013729D01*
X136348744Y-106015215D01*
X136348747Y-106015231D01*
X136357289Y-106058172D01*
X136357888Y-106061182D01*
X136359061Y-106064014D01*
X136359062Y-106064017D01*
X136387397Y-106132423D01*
X136388573Y-106135262D01*
X136390274Y-106137808D01*
X136390277Y-106137813D01*
X136394829Y-106144625D01*
X136415453Y-106175490D01*
X136441009Y-106206629D01*
X136793371Y-106558991D01*
X136824510Y-106584547D01*
X136864738Y-106611427D01*
X136938818Y-106642112D01*
X136986271Y-106651551D01*
X137026362Y-106655500D01*
X138963355Y-106655500D01*
X138964896Y-106655500D01*
X139004990Y-106651551D01*
X139052444Y-106642111D01*
X139126522Y-106611425D01*
X139166679Y-106584592D01*
X139177415Y-106574536D01*
X139182931Y-106570990D01*
X139182485Y-106570409D01*
X139220061Y-106541574D01*
X139230457Y-106533041D01*
X139242649Y-106522348D01*
X139252457Y-106513161D01*
X139284065Y-106481553D01*
X139314546Y-106442676D01*
X139345200Y-106392046D01*
X139365521Y-106347017D01*
X139374508Y-106298439D01*
X139378202Y-106239368D01*
X139375337Y-106190049D01*
X139360784Y-106142840D01*
X139336677Y-106088786D01*
X139311278Y-106046413D01*
X139276500Y-106011326D01*
X139274966Y-106010112D01*
X139274954Y-106010096D01*
X139273619Y-106008902D01*
X139273887Y-106008601D01*
X139254814Y-105981891D01*
X139252807Y-105947272D01*
X139269560Y-105916916D01*
X139323135Y-105863342D01*
X139380731Y-105750304D01*
X139395585Y-105656519D01*
X139395584Y-105513507D01*
X139410390Y-105473118D01*
X139447793Y-105451863D01*
X139490072Y-105459817D01*
X139517195Y-105493210D01*
X139517844Y-105495101D01*
X139518475Y-105497591D01*
X139519509Y-105499948D01*
X139613995Y-105715356D01*
X139613997Y-105715361D01*
X139615036Y-105717728D01*
X139746514Y-105918969D01*
X139909321Y-106095825D01*
X140099018Y-106243472D01*
X140101285Y-106244699D01*
X140101290Y-106244702D01*
X140179419Y-106286983D01*
X140310429Y-106357882D01*
X140537788Y-106435934D01*
X140774893Y-106475500D01*
X141012690Y-106475500D01*
X141015277Y-106475500D01*
X141252382Y-106435934D01*
X141479741Y-106357882D01*
X141691152Y-106243472D01*
X141880849Y-106095825D01*
X142043656Y-105918969D01*
X142092763Y-105843804D01*
X142124791Y-105818876D01*
X142165379Y-105818876D01*
X142197406Y-105843804D01*
X142224475Y-105885236D01*
X142245100Y-105916806D01*
X142246514Y-105918969D01*
X142409321Y-106095825D01*
X142599018Y-106243472D01*
X142601285Y-106244699D01*
X142601290Y-106244702D01*
X142679419Y-106286983D01*
X142810429Y-106357882D01*
X143037788Y-106435934D01*
X143274893Y-106475500D01*
X143512690Y-106475500D01*
X143515277Y-106475500D01*
X143752382Y-106435934D01*
X143979741Y-106357882D01*
X144191152Y-106243472D01*
X144380849Y-106095825D01*
X144543656Y-105918969D01*
X144675134Y-105717728D01*
X144771695Y-105497591D01*
X144793650Y-105410891D01*
X144815277Y-105377364D01*
X144852782Y-105363752D01*
X144890881Y-105375604D01*
X144914045Y-105408090D01*
X144919423Y-105425816D01*
X144921766Y-105431474D01*
X145016367Y-105608459D01*
X145019766Y-105613547D01*
X145147084Y-105768684D01*
X145151400Y-105773000D01*
X145306537Y-105900318D01*
X145311625Y-105903717D01*
X145488610Y-105998318D01*
X145494263Y-106000660D01*
X145686315Y-106058918D01*
X145692301Y-106060108D01*
X145761376Y-106066912D01*
X145768184Y-106065673D01*
X145770085Y-106059019D01*
X146020085Y-106059019D01*
X146021985Y-106065673D01*
X146028793Y-106066912D01*
X146097868Y-106060108D01*
X146103854Y-106058918D01*
X146295906Y-106000660D01*
X146301559Y-105998318D01*
X146478544Y-105903717D01*
X146483632Y-105900318D01*
X146638769Y-105773000D01*
X146643085Y-105768684D01*
X146770403Y-105613547D01*
X146773802Y-105608459D01*
X146868403Y-105431474D01*
X146870745Y-105425821D01*
X146929003Y-105233769D01*
X146930193Y-105227783D01*
X146944933Y-105078121D01*
X146945085Y-105075047D01*
X146945085Y-105037431D01*
X146941443Y-105028641D01*
X146932654Y-105025000D01*
X146032516Y-105025000D01*
X146023726Y-105028641D01*
X146020085Y-105037431D01*
X146020085Y-106059019D01*
X145770085Y-106059019D01*
X145770085Y-104762569D01*
X146020085Y-104762569D01*
X146023726Y-104771358D01*
X146032516Y-104775000D01*
X146932654Y-104775000D01*
X146941443Y-104771358D01*
X146945085Y-104762569D01*
X146945085Y-104724953D01*
X146944933Y-104721878D01*
X146930193Y-104572216D01*
X146929003Y-104566230D01*
X146870745Y-104374178D01*
X146868403Y-104368525D01*
X146773802Y-104191540D01*
X146770403Y-104186452D01*
X146643085Y-104031315D01*
X146638769Y-104026999D01*
X146483632Y-103899681D01*
X146478544Y-103896282D01*
X146301559Y-103801681D01*
X146295906Y-103799339D01*
X146103854Y-103741081D01*
X146097868Y-103739891D01*
X146028793Y-103733087D01*
X146021985Y-103734326D01*
X146020085Y-103740981D01*
X146020085Y-104762569D01*
X145770085Y-104762569D01*
X145770085Y-103740981D01*
X145768184Y-103734326D01*
X145761376Y-103733087D01*
X145692301Y-103739891D01*
X145686315Y-103741081D01*
X145494263Y-103799339D01*
X145488610Y-103801681D01*
X145311625Y-103896282D01*
X145306537Y-103899681D01*
X145151400Y-104026999D01*
X145147084Y-104031315D01*
X145019766Y-104186452D01*
X145016367Y-104191540D01*
X144921766Y-104368525D01*
X144919423Y-104374181D01*
X144914045Y-104391910D01*
X144890880Y-104424395D01*
X144852782Y-104436247D01*
X144815277Y-104422635D01*
X144793649Y-104389106D01*
X144788527Y-104368880D01*
X144771695Y-104302409D01*
X144675134Y-104082272D01*
X144543656Y-103881031D01*
X144380849Y-103704175D01*
X144324112Y-103660015D01*
X144306351Y-103638144D01*
X144300000Y-103610694D01*
X144300000Y-100038000D01*
X144318306Y-99993806D01*
X144362500Y-99975500D01*
X144580992Y-99975500D01*
X144583260Y-99975500D01*
X144651393Y-99965573D01*
X144756483Y-99914198D01*
X144839198Y-99831483D01*
X144890573Y-99726393D01*
X144900500Y-99658260D01*
X144900500Y-99654020D01*
X145400001Y-99654020D01*
X145400385Y-99658907D01*
X145414065Y-99745289D01*
X145417068Y-99754531D01*
X145470125Y-99858662D01*
X145475837Y-99866523D01*
X145558476Y-99949162D01*
X145566337Y-99954874D01*
X145670467Y-100007930D01*
X145679710Y-100010934D01*
X145766092Y-100024615D01*
X145770979Y-100025000D01*
X145862569Y-100025000D01*
X145871358Y-100021358D01*
X145875000Y-100012569D01*
X145875000Y-100012568D01*
X146125000Y-100012568D01*
X146128641Y-100021357D01*
X146137431Y-100024999D01*
X146229020Y-100024999D01*
X146233907Y-100024614D01*
X146320289Y-100010934D01*
X146329531Y-100007931D01*
X146433662Y-99954874D01*
X146441523Y-99949162D01*
X146524162Y-99866523D01*
X146529874Y-99858662D01*
X146582930Y-99754532D01*
X146585934Y-99745289D01*
X146599615Y-99658907D01*
X146600000Y-99654021D01*
X146600000Y-99487431D01*
X146596358Y-99478641D01*
X146587569Y-99475000D01*
X146137431Y-99475000D01*
X146128641Y-99478641D01*
X146125000Y-99487431D01*
X146125000Y-100012568D01*
X145875000Y-100012568D01*
X145875000Y-99487431D01*
X145871358Y-99478641D01*
X145862569Y-99475000D01*
X145412432Y-99475000D01*
X145403642Y-99478641D01*
X145400001Y-99487431D01*
X145400001Y-99654020D01*
X144900500Y-99654020D01*
X144900500Y-99212569D01*
X145400000Y-99212569D01*
X145403641Y-99221358D01*
X145412431Y-99225000D01*
X145862569Y-99225000D01*
X145871358Y-99221358D01*
X145875000Y-99212569D01*
X146125000Y-99212569D01*
X146128641Y-99221358D01*
X146137431Y-99225000D01*
X146587568Y-99225000D01*
X146596357Y-99221358D01*
X146599999Y-99212569D01*
X146599999Y-99045980D01*
X146599614Y-99041092D01*
X146585934Y-98954710D01*
X146582931Y-98945468D01*
X146529874Y-98841337D01*
X146524162Y-98833476D01*
X146441523Y-98750837D01*
X146433662Y-98745125D01*
X146329532Y-98692069D01*
X146320289Y-98689065D01*
X146233907Y-98675384D01*
X146229021Y-98675000D01*
X146137431Y-98675000D01*
X146128641Y-98678641D01*
X146125000Y-98687431D01*
X146125000Y-99212569D01*
X145875000Y-99212569D01*
X145875000Y-98687432D01*
X145871358Y-98678642D01*
X145862569Y-98675001D01*
X145770980Y-98675001D01*
X145766092Y-98675385D01*
X145679710Y-98689065D01*
X145670468Y-98692068D01*
X145566337Y-98745125D01*
X145558476Y-98750837D01*
X145475837Y-98833476D01*
X145470125Y-98841337D01*
X145417069Y-98945467D01*
X145414065Y-98954710D01*
X145400384Y-99041092D01*
X145400000Y-99045979D01*
X145400000Y-99212569D01*
X144900500Y-99212569D01*
X144900500Y-99041740D01*
X144890573Y-98973607D01*
X144839198Y-98868517D01*
X144756483Y-98785802D01*
X144651393Y-98734427D01*
X144646589Y-98733727D01*
X144585503Y-98724826D01*
X144585492Y-98724825D01*
X144583260Y-98724500D01*
X144580992Y-98724500D01*
X144169293Y-98724500D01*
X144125099Y-98706194D01*
X143682975Y-98264070D01*
X143664669Y-98219876D01*
X143664669Y-97802695D01*
X143674094Y-97769690D01*
X143699527Y-97746640D01*
X143730265Y-97741047D01*
X143730265Y-97740500D01*
X143733274Y-97740500D01*
X144056835Y-97740500D01*
X144059905Y-97740500D01*
X144103807Y-97731767D01*
X144108928Y-97728344D01*
X144111342Y-97727345D01*
X144135261Y-97722586D01*
X144159178Y-97727343D01*
X144198577Y-97743663D01*
X144258085Y-97755500D01*
X144834429Y-97755500D01*
X144837500Y-97755500D01*
X144897008Y-97743663D01*
X144899856Y-97742483D01*
X144900292Y-97742351D01*
X144909600Y-97740500D01*
X144909905Y-97740500D01*
X144923372Y-97737820D01*
X144947758Y-97737820D01*
X144970291Y-97747152D01*
X145011932Y-97774976D01*
X145023087Y-97779597D01*
X145072374Y-97789400D01*
X145078458Y-97790000D01*
X145257654Y-97790000D01*
X145266443Y-97786358D01*
X145270085Y-97777569D01*
X145520085Y-97777569D01*
X145523726Y-97786358D01*
X145532516Y-97790000D01*
X145711712Y-97790000D01*
X145717795Y-97789400D01*
X145767082Y-97779597D01*
X145778240Y-97774975D01*
X145834159Y-97737611D01*
X145842696Y-97729074D01*
X145880060Y-97673155D01*
X145884682Y-97661997D01*
X145894485Y-97612710D01*
X145895085Y-97606627D01*
X145895085Y-97069084D01*
X145912510Y-97025789D01*
X145955068Y-97006635D01*
X145999030Y-97022302D01*
X146061686Y-97077810D01*
X146067869Y-97082078D01*
X146211689Y-97157560D01*
X146218710Y-97160222D01*
X146330849Y-97187863D01*
X146337963Y-97187433D01*
X146340085Y-97180626D01*
X146590085Y-97180626D01*
X146592206Y-97187433D01*
X146599320Y-97187863D01*
X146711459Y-97160222D01*
X146718480Y-97157560D01*
X146862300Y-97082078D01*
X146868483Y-97077810D01*
X146990062Y-96970101D01*
X146995036Y-96964486D01*
X147087308Y-96830806D01*
X147090797Y-96824156D01*
X147148393Y-96672291D01*
X147150192Y-96664993D01*
X147164856Y-96544220D01*
X147165085Y-96540448D01*
X147165085Y-96087431D01*
X147161443Y-96078641D01*
X147152654Y-96075000D01*
X146602516Y-96075000D01*
X146593726Y-96078641D01*
X146590085Y-96087431D01*
X146590085Y-97180626D01*
X146340085Y-97180626D01*
X146340085Y-95812569D01*
X146590085Y-95812569D01*
X146593726Y-95821358D01*
X146602516Y-95825000D01*
X147152654Y-95825000D01*
X147161443Y-95821358D01*
X147165085Y-95812569D01*
X147165085Y-95359553D01*
X147164856Y-95355779D01*
X147150192Y-95235006D01*
X147148393Y-95227708D01*
X147090797Y-95075843D01*
X147087308Y-95069193D01*
X146995036Y-94935513D01*
X146990062Y-94929898D01*
X146868483Y-94822189D01*
X146862300Y-94817921D01*
X146718480Y-94742439D01*
X146711459Y-94739777D01*
X146599320Y-94712136D01*
X146592206Y-94712566D01*
X146590085Y-94719374D01*
X146590085Y-95812569D01*
X146340085Y-95812569D01*
X146340085Y-94719374D01*
X146337963Y-94712566D01*
X146330849Y-94712136D01*
X146218710Y-94739777D01*
X146211689Y-94742439D01*
X146067869Y-94817921D01*
X146061686Y-94822189D01*
X145940107Y-94929898D01*
X145935133Y-94935513D01*
X145842861Y-95069193D01*
X145839372Y-95075843D01*
X145781776Y-95227708D01*
X145779977Y-95235006D01*
X145765313Y-95355779D01*
X145765085Y-95359553D01*
X145765085Y-95877500D01*
X145746779Y-95921694D01*
X145702585Y-95940000D01*
X145532513Y-95940000D01*
X145531021Y-95940618D01*
X145521934Y-95941212D01*
X145521409Y-95949234D01*
X145520085Y-95952431D01*
X145520085Y-97777569D01*
X145270085Y-97777569D01*
X145270085Y-97002431D01*
X145266443Y-96993641D01*
X145257654Y-96990000D01*
X145118000Y-96990000D01*
X145073806Y-96971694D01*
X145055500Y-96927500D01*
X145055500Y-96802500D01*
X145073806Y-96758306D01*
X145118000Y-96740000D01*
X145257654Y-96740000D01*
X145266443Y-96736358D01*
X145270085Y-96727569D01*
X145270085Y-96017338D01*
X145280618Y-95982615D01*
X145308666Y-95959596D01*
X145314165Y-95957317D01*
X145325318Y-95952698D01*
X145425619Y-95875733D01*
X145449820Y-95867517D01*
X145457522Y-95844829D01*
X145537783Y-95740233D01*
X145595772Y-95600236D01*
X145615551Y-95450000D01*
X145595772Y-95299764D01*
X145537783Y-95159767D01*
X145445536Y-95039549D01*
X145401591Y-95005829D01*
X145328571Y-94949798D01*
X145328570Y-94949797D01*
X145325318Y-94947302D01*
X145296857Y-94935513D01*
X145189107Y-94890881D01*
X145189105Y-94890880D01*
X145185321Y-94889313D01*
X145181258Y-94888778D01*
X145074836Y-94874767D01*
X145074830Y-94874766D01*
X145072805Y-94874500D01*
X144997365Y-94874500D01*
X144995336Y-94874767D01*
X144995337Y-94874767D01*
X144982176Y-94876499D01*
X144941019Y-94867608D01*
X144914842Y-94834629D01*
X144907881Y-94814126D01*
X144890526Y-94780791D01*
X144862554Y-94742644D01*
X143853261Y-93733351D01*
X143850709Y-93731646D01*
X143850707Y-93731644D01*
X143828037Y-93716497D01*
X143802814Y-93699643D01*
X143799973Y-93698466D01*
X143761455Y-93682511D01*
X143761452Y-93682510D01*
X143758620Y-93681337D01*
X143755612Y-93680738D01*
X143755610Y-93680738D01*
X143702124Y-93670099D01*
X143702122Y-93670098D01*
X143699112Y-93669500D01*
X140600888Y-93669500D01*
X140597878Y-93670098D01*
X140597875Y-93670099D01*
X140544391Y-93680737D01*
X140544384Y-93680738D01*
X140541383Y-93681336D01*
X140538553Y-93682507D01*
X140538550Y-93682509D01*
X140500026Y-93698465D01*
X140500018Y-93698469D01*
X140497189Y-93699641D01*
X140494642Y-93701342D01*
X140494634Y-93701347D01*
X140449292Y-93731644D01*
X140446739Y-93733350D01*
X140444571Y-93735517D01*
X140444566Y-93735522D01*
X139434912Y-94745176D01*
X139434905Y-94745183D01*
X139433346Y-94746743D01*
X139432026Y-94748501D01*
X139432017Y-94748513D01*
X139408297Y-94780135D01*
X139408289Y-94780146D01*
X139406969Y-94781907D01*
X139405908Y-94783839D01*
X139405904Y-94783847D01*
X139391213Y-94810627D01*
X139390148Y-94812569D01*
X139389372Y-94814629D01*
X139389369Y-94814637D01*
X139380816Y-94837363D01*
X139354454Y-94868954D01*
X139314167Y-94877312D01*
X139294828Y-94874766D01*
X139294823Y-94874765D01*
X139292805Y-94874500D01*
X139217365Y-94874500D01*
X139215340Y-94874766D01*
X139215333Y-94874767D01*
X139108911Y-94888778D01*
X139108909Y-94888778D01*
X139104849Y-94889313D01*
X139101066Y-94890879D01*
X139101062Y-94890881D01*
X138968641Y-94945732D01*
X138968637Y-94945733D01*
X138964852Y-94947302D01*
X138961602Y-94949795D01*
X138961598Y-94949798D01*
X138847883Y-95037055D01*
X138847878Y-95037059D01*
X138844634Y-95039549D01*
X138842144Y-95042793D01*
X138842140Y-95042798D01*
X138754883Y-95156513D01*
X138754880Y-95156517D01*
X138752387Y-95159767D01*
X138750818Y-95163552D01*
X138750817Y-95163556D01*
X138695966Y-95295977D01*
X138695964Y-95295981D01*
X138694398Y-95299764D01*
X138693863Y-95303824D01*
X138693863Y-95303826D01*
X138677073Y-95431357D01*
X138674619Y-95450000D01*
X138675154Y-95454064D01*
X138681135Y-95499498D01*
X138694398Y-95600236D01*
X138695965Y-95604020D01*
X138695966Y-95604022D01*
X138747120Y-95727517D01*
X138752387Y-95740233D01*
X138832645Y-95844827D01*
X138840348Y-95867517D01*
X138864548Y-95875732D01*
X138964852Y-95952698D01*
X138972734Y-95955963D01*
X138981504Y-95959596D01*
X139009552Y-95982615D01*
X139020085Y-96017338D01*
X139020085Y-96927500D01*
X139001779Y-96971694D01*
X138957585Y-96990000D01*
X138417585Y-96990000D01*
X138373391Y-96971694D01*
X138355085Y-96927500D01*
X138355085Y-96802500D01*
X138373391Y-96758306D01*
X138417585Y-96740000D01*
X138757654Y-96740000D01*
X138766443Y-96736358D01*
X138770085Y-96727569D01*
X138770085Y-95952433D01*
X138768761Y-95949237D01*
X138768234Y-95941213D01*
X138759146Y-95940618D01*
X138757654Y-95940000D01*
X138587585Y-95940000D01*
X138543391Y-95921694D01*
X138525085Y-95877500D01*
X138525085Y-95359553D01*
X138524856Y-95355779D01*
X138510192Y-95235006D01*
X138508393Y-95227708D01*
X138450797Y-95075843D01*
X138447308Y-95069193D01*
X138355036Y-94935513D01*
X138350062Y-94929898D01*
X138228483Y-94822189D01*
X138222300Y-94817921D01*
X138078480Y-94742439D01*
X138071459Y-94739777D01*
X137959320Y-94712136D01*
X137952206Y-94712566D01*
X137950085Y-94719374D01*
X137950085Y-97180626D01*
X137952206Y-97187433D01*
X137959320Y-97187863D01*
X138071459Y-97160222D01*
X138078480Y-97157560D01*
X138222300Y-97082078D01*
X138228483Y-97077810D01*
X138291140Y-97022302D01*
X138335102Y-97006635D01*
X138377660Y-97025789D01*
X138395085Y-97069084D01*
X138395085Y-97606627D01*
X138395684Y-97612710D01*
X138405487Y-97661997D01*
X138410109Y-97673155D01*
X138447473Y-97729074D01*
X138456010Y-97737611D01*
X138482084Y-97755033D01*
X138506207Y-97785944D01*
X138507170Y-97825143D01*
X138484592Y-97857200D01*
X138447361Y-97869500D01*
X137251362Y-97869500D01*
X137249849Y-97869649D01*
X137249829Y-97869650D01*
X137212793Y-97873299D01*
X137212791Y-97873299D01*
X137211271Y-97873449D01*
X137209787Y-97873744D01*
X137209768Y-97873747D01*
X137166826Y-97882289D01*
X137166819Y-97882290D01*
X137163818Y-97882888D01*
X137160988Y-97884059D01*
X137160985Y-97884061D01*
X137092578Y-97912395D01*
X137092570Y-97912399D01*
X137089741Y-97913571D01*
X137087194Y-97915272D01*
X137087186Y-97915277D01*
X137050782Y-97939601D01*
X137050767Y-97939612D01*
X137049513Y-97940450D01*
X137048338Y-97941414D01*
X137048333Y-97941418D01*
X137019565Y-97965027D01*
X137019552Y-97965038D01*
X137018371Y-97966008D01*
X137017285Y-97967093D01*
X137017275Y-97967103D01*
X136758210Y-98226168D01*
X136719463Y-98244236D01*
X136678167Y-98233171D01*
X136653646Y-98198150D01*
X136625407Y-98092761D01*
X136578698Y-97918441D01*
X136447409Y-97576422D01*
X136437684Y-97557336D01*
X136281834Y-97251463D01*
X136281089Y-97250000D01*
X136081559Y-96942752D01*
X135851007Y-96658043D01*
X135733412Y-96540448D01*
X137125085Y-96540448D01*
X137125313Y-96544220D01*
X137139977Y-96664993D01*
X137141776Y-96672291D01*
X137199372Y-96824156D01*
X137202861Y-96830806D01*
X137295133Y-96964486D01*
X137300107Y-96970101D01*
X137421686Y-97077810D01*
X137427869Y-97082078D01*
X137571689Y-97157560D01*
X137578710Y-97160222D01*
X137690849Y-97187863D01*
X137697963Y-97187433D01*
X137700085Y-97180626D01*
X137700085Y-96087431D01*
X137696443Y-96078641D01*
X137687654Y-96075000D01*
X137137516Y-96075000D01*
X137128726Y-96078641D01*
X137125085Y-96087431D01*
X137125085Y-96540448D01*
X135733412Y-96540448D01*
X135591957Y-96398993D01*
X135590693Y-96397969D01*
X135590687Y-96397964D01*
X135308516Y-96169468D01*
X135307248Y-96168441D01*
X135000000Y-95968911D01*
X134967656Y-95952431D01*
X134693163Y-95812569D01*
X137125085Y-95812569D01*
X137128726Y-95821358D01*
X137137516Y-95825000D01*
X137687654Y-95825000D01*
X137696443Y-95821358D01*
X137700085Y-95812569D01*
X137700085Y-94719374D01*
X137697963Y-94712566D01*
X137690849Y-94712136D01*
X137578710Y-94739777D01*
X137571689Y-94742439D01*
X137427869Y-94817921D01*
X137421686Y-94822189D01*
X137300107Y-94929898D01*
X137295133Y-94935513D01*
X137202861Y-95069193D01*
X137199372Y-95075843D01*
X137141776Y-95227708D01*
X137139977Y-95235006D01*
X137125313Y-95355779D01*
X137125085Y-95359553D01*
X137125085Y-95812569D01*
X134693163Y-95812569D01*
X134675032Y-95803331D01*
X134675018Y-95803325D01*
X134673578Y-95802591D01*
X134331559Y-95671302D01*
X134329973Y-95670877D01*
X134329970Y-95670876D01*
X134152622Y-95623355D01*
X134116830Y-95597706D01*
X134106833Y-95554823D01*
X134127594Y-95515991D01*
X134168803Y-95500485D01*
X134176204Y-95500486D01*
X134436200Y-95466258D01*
X134689503Y-95398388D01*
X134931781Y-95298035D01*
X135158887Y-95166916D01*
X135366935Y-95007277D01*
X135552367Y-94821847D01*
X135712008Y-94613799D01*
X135843128Y-94386694D01*
X135943483Y-94144417D01*
X136011355Y-93891114D01*
X136045585Y-93631119D01*
X136045585Y-93500000D01*
X136045585Y-93499500D01*
X136045585Y-92210448D01*
X137125085Y-92210448D01*
X137125313Y-92214220D01*
X137139977Y-92334993D01*
X137141776Y-92342291D01*
X137199372Y-92494156D01*
X137202861Y-92500806D01*
X137295133Y-92634486D01*
X137300107Y-92640101D01*
X137421686Y-92747810D01*
X137427869Y-92752078D01*
X137571689Y-92827560D01*
X137578710Y-92830222D01*
X137690849Y-92857863D01*
X137697963Y-92857433D01*
X137700085Y-92850626D01*
X137950085Y-92850626D01*
X137952206Y-92857433D01*
X137959320Y-92857863D01*
X138071459Y-92830222D01*
X138078480Y-92827560D01*
X138222300Y-92752078D01*
X138228483Y-92747810D01*
X138350062Y-92640101D01*
X138355036Y-92634486D01*
X138447308Y-92500806D01*
X138450797Y-92494156D01*
X138508393Y-92342291D01*
X138510192Y-92334993D01*
X138524856Y-92214220D01*
X138525085Y-92210448D01*
X145765085Y-92210448D01*
X145765313Y-92214220D01*
X145779977Y-92334993D01*
X145781776Y-92342291D01*
X145839372Y-92494156D01*
X145842861Y-92500806D01*
X145935133Y-92634486D01*
X145940107Y-92640101D01*
X146061686Y-92747810D01*
X146067869Y-92752078D01*
X146211689Y-92827560D01*
X146218710Y-92830222D01*
X146330849Y-92857863D01*
X146337963Y-92857433D01*
X146340085Y-92850626D01*
X146590085Y-92850626D01*
X146592206Y-92857433D01*
X146599320Y-92857863D01*
X146711459Y-92830222D01*
X146718480Y-92827560D01*
X146862300Y-92752078D01*
X146868483Y-92747810D01*
X146990062Y-92640101D01*
X146995036Y-92634486D01*
X147087308Y-92500806D01*
X147090797Y-92494156D01*
X147148393Y-92342291D01*
X147150192Y-92334993D01*
X147164856Y-92214220D01*
X147165085Y-92210448D01*
X147165085Y-91907431D01*
X147161443Y-91898641D01*
X147152654Y-91895000D01*
X146602516Y-91895000D01*
X146593726Y-91898641D01*
X146590085Y-91907431D01*
X146590085Y-92850626D01*
X146340085Y-92850626D01*
X146340085Y-91907431D01*
X146336443Y-91898641D01*
X146327654Y-91895000D01*
X145777516Y-91895000D01*
X145768726Y-91898641D01*
X145765085Y-91907431D01*
X145765085Y-92210448D01*
X138525085Y-92210448D01*
X138525085Y-91907431D01*
X138521443Y-91898641D01*
X138512654Y-91895000D01*
X137962516Y-91895000D01*
X137953726Y-91898641D01*
X137950085Y-91907431D01*
X137950085Y-92850626D01*
X137700085Y-92850626D01*
X137700085Y-91907431D01*
X137696443Y-91898641D01*
X137687654Y-91895000D01*
X137137516Y-91895000D01*
X137128726Y-91898641D01*
X137125085Y-91907431D01*
X137125085Y-92210448D01*
X136045585Y-92210448D01*
X136045585Y-91632569D01*
X137125085Y-91632569D01*
X137128726Y-91641358D01*
X137137516Y-91645000D01*
X137687654Y-91645000D01*
X137696443Y-91641358D01*
X137700085Y-91632569D01*
X137950085Y-91632569D01*
X137953726Y-91641358D01*
X137962516Y-91645000D01*
X138512654Y-91645000D01*
X138521443Y-91641358D01*
X138525085Y-91632569D01*
X145765085Y-91632569D01*
X145768726Y-91641358D01*
X145777516Y-91645000D01*
X146327654Y-91645000D01*
X146336443Y-91641358D01*
X146340085Y-91632569D01*
X146590085Y-91632569D01*
X146593726Y-91641358D01*
X146602516Y-91645000D01*
X147152654Y-91645000D01*
X147161443Y-91641358D01*
X147165085Y-91632569D01*
X147165085Y-91329553D01*
X147164856Y-91325779D01*
X147150192Y-91205006D01*
X147148393Y-91197708D01*
X147090797Y-91045843D01*
X147087308Y-91039193D01*
X146995036Y-90905513D01*
X146990062Y-90899898D01*
X146868483Y-90792189D01*
X146862300Y-90787921D01*
X146718480Y-90712439D01*
X146711459Y-90709777D01*
X146599320Y-90682136D01*
X146592206Y-90682566D01*
X146590085Y-90689374D01*
X146590085Y-91632569D01*
X146340085Y-91632569D01*
X146340085Y-90689374D01*
X146337963Y-90682566D01*
X146330849Y-90682136D01*
X146218710Y-90709777D01*
X146211689Y-90712439D01*
X146067869Y-90787921D01*
X146061686Y-90792189D01*
X145940107Y-90899898D01*
X145935133Y-90905513D01*
X145842861Y-91039193D01*
X145839372Y-91045843D01*
X145781776Y-91197708D01*
X145779977Y-91205006D01*
X145765313Y-91325779D01*
X145765085Y-91329553D01*
X145765085Y-91632569D01*
X138525085Y-91632569D01*
X138525085Y-91329553D01*
X138524856Y-91325779D01*
X138510192Y-91205006D01*
X138508393Y-91197708D01*
X138450797Y-91045843D01*
X138447308Y-91039193D01*
X138355036Y-90905513D01*
X138350062Y-90899898D01*
X138228483Y-90792189D01*
X138222300Y-90787921D01*
X138078480Y-90712439D01*
X138071459Y-90709777D01*
X137959320Y-90682136D01*
X137952206Y-90682566D01*
X137950085Y-90689374D01*
X137950085Y-91632569D01*
X137700085Y-91632569D01*
X137700085Y-90689374D01*
X137697963Y-90682566D01*
X137690849Y-90682136D01*
X137578710Y-90709777D01*
X137571689Y-90712439D01*
X137427869Y-90787921D01*
X137421686Y-90792189D01*
X137300107Y-90899898D01*
X137295133Y-90905513D01*
X137202861Y-91039193D01*
X137199372Y-91045843D01*
X137141776Y-91197708D01*
X137139977Y-91205006D01*
X137125313Y-91325779D01*
X137125085Y-91329553D01*
X137125085Y-91632569D01*
X136045585Y-91632569D01*
X136045585Y-91472727D01*
X136045823Y-91467280D01*
X136049530Y-91424906D01*
X136049593Y-91424228D01*
X136062498Y-91293195D01*
X136064318Y-91283193D01*
X136083231Y-91212607D01*
X136083774Y-91210710D01*
X136113038Y-91114236D01*
X136116187Y-91106004D01*
X136149485Y-91034597D01*
X136150987Y-91031595D01*
X136195844Y-90947672D01*
X136199748Y-90941316D01*
X136246073Y-90875157D01*
X136248920Y-90871405D01*
X136308188Y-90799186D01*
X136312277Y-90794673D01*
X136369767Y-90737183D01*
X136374257Y-90733112D01*
X136446503Y-90673821D01*
X136450239Y-90670986D01*
X136516418Y-90624647D01*
X136522751Y-90620756D01*
X136606716Y-90575875D01*
X136609681Y-90574393D01*
X136681082Y-90541097D01*
X136689320Y-90537944D01*
X136785902Y-90508645D01*
X136787667Y-90508142D01*
X136858261Y-90489225D01*
X136868282Y-90487402D01*
X137000654Y-90474373D01*
X137000816Y-90474357D01*
X137042185Y-90470737D01*
X137047631Y-90470500D01*
X147242360Y-90470500D01*
X147247805Y-90470738D01*
G37*
%TD.AperFunction*%
%TA.AperFunction,Conductor*%
G36*
X138481694Y-99243306D02*
G01*
X138500000Y-99287500D01*
X138500000Y-100012568D01*
X138503641Y-100021357D01*
X138512431Y-100024999D01*
X138525391Y-100024999D01*
X138566320Y-100040265D01*
X138587254Y-100078604D01*
X138589516Y-100094328D01*
X138596241Y-100141106D01*
X138596241Y-100158896D01*
X138588772Y-100210838D01*
X138583760Y-100227905D01*
X138561959Y-100275643D01*
X138552341Y-100290609D01*
X138517972Y-100330273D01*
X138504528Y-100341922D01*
X138460382Y-100370293D01*
X138444201Y-100377683D01*
X138407331Y-100388509D01*
X138393849Y-100392468D01*
X138376242Y-100395000D01*
X138323758Y-100395000D01*
X138306150Y-100392468D01*
X138286741Y-100386769D01*
X138255797Y-100377683D01*
X138239616Y-100370293D01*
X138195470Y-100341922D01*
X138182026Y-100330273D01*
X138147657Y-100290609D01*
X138138039Y-100275643D01*
X138116238Y-100227905D01*
X138111226Y-100210838D01*
X138103757Y-100158889D01*
X138103757Y-100141112D01*
X138112320Y-100081559D01*
X138112745Y-100078604D01*
X138133681Y-100040265D01*
X138174609Y-100025000D01*
X138237569Y-100025000D01*
X138246358Y-100021358D01*
X138250000Y-100012569D01*
X138250000Y-99287500D01*
X138268306Y-99243306D01*
X138312500Y-99225000D01*
X138437500Y-99225000D01*
X138481694Y-99243306D01*
G37*
%TD.AperFunction*%
%TD*%
M02*
