M48
; DRILL file {KiCad (7.0.0-0)} date Wednesday, March 15, 2023 at 08:38:18 PM
; FORMAT={-:-/ absolute / inch / decimal}
; #@! TF.CreationDate,2023-03-15T20:38:18-05:00
; #@! TF.GenerationSoftware,Kicad,Pcbnew,(7.0.0-0)
; #@! TF.FileFunction,Plated,1,4,PTH
FMAT,2
INCH
; #@! TA.AperFunction,Plated,PTH,ViaDrill
T1C0.0079
; #@! TA.AperFunction,Plated,PTH,ViaDrill
T2C0.0118
; #@! TA.AperFunction,Plated,PTH,ComponentDrill
T3C0.0236
; #@! TA.AperFunction,Plated,PTH,ComponentDrill
T4C0.0374
%
G90
G05
T1
X5.4469Y-3.9429
X5.5157Y-3.7539
X5.5315Y-3.7362
X5.5492Y-3.7205
X5.5728Y-3.7205
X5.5965Y-3.7205
X5.6201Y-3.7205
X5.6437Y-3.7205
X5.6614Y-3.7362
X5.6772Y-3.7539
X5.748Y-3.9488
T2
X5.4902Y-4.2047
X5.5965Y-4.2047
X5.7028Y-4.0492
X5.7028Y-4.2047
X5.7126Y-3.8701
X5.8051Y-4.1988
X5.813Y-4.1339
T4
X5.4486Y-4.1299
X5.5471Y-4.1299
X5.6455Y-4.1299
X5.7439Y-4.1299
T3
G00X5.4262Y-3.6287
M15
G01X5.4262Y-3.5972
M16
G05
G00X5.4262Y-3.7992
M15
G01X5.4262Y-3.7559
M16
G05
G00X5.7663Y-3.6287
M15
G01X5.7663Y-3.5972
M16
G05
G00X5.7663Y-3.7992
M15
G01X5.7663Y-3.7559
M16
G05
T0
M30
