0
SECTION
2
HEADER
9
$INSUNITS
70
4
9
$ACADVER
1
AC1014
9
$HANDSEED
5
FFFF
0
ENDSEC
0
SECTION
2
TABLES
0
TABLE
2
VPORT
5
8
100
AcDbSymbolTable
0
ENDTAB
0
TABLE
2
LTYPE
5
5
100
AcDbSymbolTable
0
LTYPE
5
14
100
AcDbSymbolTableRecord
100
AcDbLinetypeTableRecord
2
BYBLOCK
70
0
0
LTYPE
5
15
100
AcDbSymbolTableRecord
100
AcDbLinetypeTableRecord
2
BYLAYER
70
0
0
LTYPE
5
16
100
AcDbSymbolTableRecord
100
AcDbLinetypeTableRecord
2
DASHED
70
0
3
Dashed __ __ __ __ __ __ __ __ __ __ __ __ __ _
72
65
73
2
40
0.75
49
0.5
74
0
49
-0.25
74
0
0
ENDTAB
0
TABLE
2
LAYER
5
2
100
AcDbSymbolTable
70
2
0
LAYER
5
50
100
AcDbSymbolTableRecord
100
AcDbLayerTableRecord
2
0
70
0
62
7
6
CONTINUOUS
0
ENDTAB
0
TABLE
2
STYLE
5
3
100
AcDbSymbolTable
70
1
0
STYLE
5
11
100
AcDbSymbolTableRecord
100
AcDbTextStyleTableRecord
2
STANDARD
70
0
0
ENDTAB
0
TABLE
2
VIEW
5
6
100
AcDbSymbolTable
70
0
0
ENDTAB
0
TABLE
2
UCS
5
7
100
AcDbSymbolTable
70
0
0
ENDTAB
0
TABLE
2
APPID
5
9
100
AcDbSymbolTable
70
2
0
APPID
5
12
100
AcDbSymbolTableRecord
100
AcDbRegAppTableRecord
2
ACAD
70
0
0
ENDTAB
0
TABLE
2
DIMSTYLE
5
A
100
AcDbSymbolTable
70
1
0
ENDTAB
0
TABLE
2
BLOCK_RECORD
5
1
100
AcDbSymbolTable
70
1
0
BLOCK_RECORD
5
1F
100
AcDbSymbolTableRecord
100
AcDbBlockTableRecord
2
*MODEL_SPACE
0
BLOCK_RECORD
5
1B
100
AcDbSymbolTableRecord
100
AcDbBlockTableRecord
2
*PAPER_SPACE
0
ENDTAB
0
ENDSEC
0
SECTION
2
BLOCKS
0
BLOCK
5
20
100
AcDbEntity
100
AcDbBlockBegin
2
*MODEL_SPACE
0
ENDBLK
5
21
100
AcDbEntity
100
AcDbBlockEnd
0
BLOCK
5
1C
100
AcDbEntity
100
AcDbBlockBegin
2
*PAPER_SPACE
0
ENDBLK
5
1D
100
AcDbEntity
100
AcDbBlockEnd
0
ENDSEC
0
SECTION
2
ENTITIES
0
ARC
5
100
100
AcDbEntity
8
0
100
AcDbCircle
10
-122.85346164776684
20
0.39999999999997377
30
0
40
0.60000000000000497
210
0
220
-0
230
1
100
AcDbArc
50
0
51
90
0
LINE
5
101
100
AcDbEntity
8
0
100
AcDbLine
10
-122.85346164776684
20
0.99999999999997868
30
0
11
-134.15008103223806
21
0.9999999999999476
31
0
0
ARC
5
102
100
AcDbEntity
8
0
100
AcDbCircle
10
-134.15008103223806
20
0.39999999999992902
30
-6.8368087769470551e-62
40
0.60000000000001852
210
1.8808128069640415e-48
220
-1.1394681294911406e-61
230
1
100
AcDbArc
50
90
51
180
0
LINE
5
103
100
AcDbEntity
8
0
100
AcDbLine
10
-134.75008103223809
20
0.39999999999995101
30
1.1284876841783911e-48
11
-134.75008103223806
21
-0.50000000000038181
31
0
0
SPLINE
5
104
100
AcDbEntity
8
0
100
AcDbSpline
70
0
71
3
72
8
73
4
74
0
42
0.000000001
43
0.0000000001
44
0.0000000001
40
-2.4496186377109656e-16
40
-2.4496186377109656e-16
40
-2.4496186377109656e-16
40
-2.4496186377109656e-16
40
1.5707963267942247
40
1.5707963267942247
40
1.5707963267942247
40
1.5707963267942247
10
-134.75008103223806
20
-0.50000000000038192
30
0
10
-134.75008103223826
20
-0.81413147118371554
30
0
10
-135.03595719836557
20
-1.099999999999989
30
0
10
-135.35021373965068
20
-1.1000000000000001
30
0
0
LINE
5
105
100
AcDbEntity
8
0
100
AcDbLine
10
-135.35021373965071
20
-1.1000000000000001
30
0
11
-143.11295371763089
21
-1.0999999999999999
31
0
0
SPLINE
5
106
100
AcDbEntity
8
0
100
AcDbSpline
70
0
71
3
72
8
73
4
74
0
42
0.000000001
43
0.0000000001
44
0.0000000001
40
-0.096523070917432729
40
-0.096523070917432729
40
-0.096523070917432729
40
-0.096523070917432729
40
0
40
0
40
0
40
0
10
-143.11295371763089
20
-1.1000000000000001
30
0
10
-143.56337460049275
20
-1.1000000000000001
30
0
10
-144.00500201108594
20
-1.3307130615096003
30
0
10
-144.26225721728395
20
-1.7004657549533331
30
0
0
ARC
5
107
100
AcDbEntity
8
0
100
AcDbCircle
10
-120.35442239881053
20
-18.334326941174854
30
0
40
29.125073453467849
210
-1.1994111765271041e-33
220
-1.7239126843016932e-33
230
1
100
AcDbArc
50
145.17175791698182
51
215.39698412924469
0
SPLINE
5
108
100
AcDbEntity
8
0
100
AcDbSpline
70
0
71
3
72
8
73
4
74
0
42
0.000000001
43
0.0000000001
44
0.0000000001
40
-0.095510855828951427
40
-0.095510855828951427
40
-0.095510855828951427
40
-0.095510855828951427
40
0
40
0
40
0
40
0
10
-144.09596735912328
20
-35.204683978515391
30
0
10
-143.83778900959879
20
-35.568016709378647
30
0
10
-143.4005110435379
20
-35.793727335817522
30
0
10
-142.95479045415976
20
-35.793727335817529
30
0
0
LINE
5
109
100
AcDbEntity
8
0
100
AcDbLine
10
-142.95479045415973
20
-35.793727335817536
30
0
11
-109.24520954584027
21
-35.793727335817536
31
0
0
SPLINE
5
110
100
AcDbEntity
8
0
100
AcDbSpline
70
0
71
3
72
8
73
4
74
0
42
0.000000001
43
0.0000000001
44
0.0000000001
40
-0.095510855755489288
40
-0.095510855755489288
40
-0.095510855755489288
40
-0.095510855755489288
40
0
40
0
40
0
40
0
10
-109.24520954584027
20
-35.793727335817536
30
0
10
-108.79948908055647
20
-35.793727335817536
30
0
10
-108.36221106188572
20
-35.568016809978303
30
0
10
-108.10403264087675
20
-35.204683978515426
30
0
0
ARC
5
111
100
AcDbEntity
8
0
100
AcDbCircle
10
-131.84557760118949
20
-18.334326941174858
30
0
40
29.125073453467859
210
3.8652620186812302e-33
220
5.4395583802283187e-33
230
1
100
AcDbArc
50
-35.396984129244785
51
34.828242083018203
0
SPLINE
5
112
100
AcDbEntity
8
0
100
AcDbSpline
70
0
71
3
72
8
73
4
74
0
42
0.000000001
43
0.0000000001
44
0.0000000001
40
-0.096523239950686276
40
-0.096523239950686276
40
-0.096523239950686276
40
-0.096523239950686276
40
0
40
0
40
0
40
0
10
-107.93774278271606
20
-1.7004657549533322
30
0
10
-108.19499805949933
20
-1.3307129600574763
30
0
10
-108.63662543918623
20
-1.0999999999999857
30
0
10
-109.08704628236916
20
-1.0999999999999874
30
0
0
LINE
5
113
100
AcDbEntity
8
0
100
AcDbLine
10
-109.08704628236916
20
-1.0999999999999874
30
0
11
-121.65332894035417
21
-1.0999999999999999
31
0
0
SPLINE
5
114
100
AcDbEntity
8
0
100
AcDbSpline
70
0
71
3
72
8
73
4
74
0
42
0.000000001
43
0.0000000001
44
0.0000000001
40
-1.5707963267948959
40
-1.5707963267948959
40
-1.5707963267948959
40
-1.5707963267948959
40
0
40
0
40
0
40
0
10
-121.65332894035417
20
-1.1000000000000001
30
0
10
-121.96758548163943
20
-1.1000000000000001
30
0
10
-122.25346164776683
20
-0.81413147118346851
30
0
10
-122.25346164776683
20
-0.50000000000000067
30
0
0
LINE
5
115
100
AcDbEntity
8
0
100
AcDbLine
10
-122.25346164776681
20
-0.50000000000000056
30
0
11
-122.25346164776683
21
0.39999999999999536
31
0
0
SPLINE
5
116
100
AcDbEntity
8
0
100
AcDbSpline
70
0
71
3
72
8
73
4
74
0
42
0.000000001
43
0.0000000001
44
0.0000000001
40
-0.10296002438632965
40
-0.10296002438632965
40
-0.10296002438632965
40
-0.10296002438632965
40
0
40
0
40
0
40
0
10
-141.55107344175292
20
-5.5211378239567042
30
0
10
-141.4445485093002
20
-5.3449153550680597
30
0
10
-141.24356212195147
20
-5.2315557454678139
30
0
10
-141.03764481178911
20
-5.2315557454678139
30
0
0
LINE
5
117
100
AcDbEntity
8
0
100
AcDbLine
10
-141.03764481178911
20
-5.2315557454678139
30
0
11
-111.16235518821091
21
-5.2315557454678254
31
0
0
SPLINE
5
118
100
AcDbEntity
8
0
100
AcDbSpline
70
0
71
3
72
8
73
4
74
0
42
0.000000001
43
0.0000000001
44
0.0000000001
40
-0.10296002432205688
40
-0.10296002432205688
40
-0.10296002432205688
40
-0.10296002432205688
40
0
40
0
40
0
40
0
10
-111.16235518821091
20
-5.2315557454678254
30
0
10
-110.95643792393619
20
-5.2315557454678254
30
0
10
-110.75545151430666
20
-5.3449153160156833
30
0
10
-110.6489265582471
20
-5.5211378239567068
30
0
0
ARC
5
119
100
AcDbEntity
8
0
100
AcDbCircle
10
-131.84557760118949
20
-18.334326941174858
30
0
40
24.76844425453217
210
-5.3390188819087622e-34
220
-3.2273899539934528e-34
230
1
100
AcDbArc
50
-31.152592753724097
51
31.152592753724097
0
SPLINE
5
120
100
AcDbEntity
8
0
100
AcDbSpline
70
0
71
3
72
8
73
4
74
0
42
0.000000001
43
0.0000000001
44
0.0000000001
40
-0.10296002438633012
40
-0.10296002438633012
40
-0.10296002438633012
40
-0.10296002438633012
40
0
40
0
40
0
40
0
10
-110.64892655824708
20
-31.147516058393023
30
0
10
-110.75545149070037
20
-31.32373852728259
30
0
10
-110.95643787804792
20
-31.437098136881918
30
0
10
-111.16235518821088
20
-31.437098136881918
30
0
0
LINE
5
121
100
AcDbEntity
8
0
100
AcDbLine
10
-111.16235518821088
20
-31.437098136881922
30
0
11
-141.03764481178911
21
-31.437098136881886
31
0
0
SPLINE
5
122
100
AcDbEntity
8
0
100
AcDbSpline
70
0
71
3
72
8
73
4
74
0
42
0.000000001
43
0.0000000001
44
0.0000000001
40
-0.10296002432205961
40
-0.10296002432205961
40
-0.10296002432205961
40
-0.10296002432205961
40
0
40
0
40
0
40
0
10
-141.03764481178911
20
-31.437098136881886
30
0
10
-141.2435620760638
20
-31.437098136881886
30
0
10
-141.44454848569288
20
-31.323738566334885
30
0
10
-141.55107344175295
20
-31.147516058392988
30
0
0
ARC
5
123
100
AcDbEntity
8
0
100
AcDbCircle
10
-120.35442239881053
20
-18.334326941174854
30
0
40
24.768444254532177
210
2.8410731211824461e-34
220
4.6999412079435534e-34
230
1
100
AcDbArc
50
148.84740724627594
51
211.15259275372404
0
ENDSEC
0
SECTION
2
OBJECTS
0
DICTIONARY
5
C
100
AcDbDictionary
3
ACAD_GROUP
350
D
3
ACAD_MLINESTYLE
350
17
0
DICTIONARY
5
D
100
AcDbDictionary
0
DICTIONARY
5
1A
330
C
100
AcDbDictionary
0
DICTIONARY
5
17
100
AcDbDictionary
0
ENDSEC
0
EOF
