0
SECTION
2
HEADER
9
$INSUNITS
70
4
9
$ACADVER
1
AC1014
9
$HANDSEED
5
FFFF
0
ENDSEC
0
SECTION
2
TABLES
0
TABLE
2
VPORT
5
8
100
AcDbSymbolTable
0
ENDTAB
0
TABLE
2
LTYPE
5
5
100
AcDbSymbolTable
0
LTYPE
5
14
100
AcDbSymbolTableRecord
100
AcDbLinetypeTableRecord
2
BYBLOCK
70
0
0
LTYPE
5
15
100
AcDbSymbolTableRecord
100
AcDbLinetypeTableRecord
2
BYLAYER
70
0
0
LTYPE
5
16
100
AcDbSymbolTableRecord
100
AcDbLinetypeTableRecord
2
DASHED
70
0
3
Dashed __ __ __ __ __ __ __ __ __ __ __ __ __ _
72
65
73
2
40
0.75
49
0.5
74
0
49
-0.25
74
0
0
ENDTAB
0
TABLE
2
LAYER
5
2
100
AcDbSymbolTable
70
2
0
LAYER
5
50
100
AcDbSymbolTableRecord
100
AcDbLayerTableRecord
2
0
70
0
62
7
6
CONTINUOUS
0
ENDTAB
0
TABLE
2
STYLE
5
3
100
AcDbSymbolTable
70
1
0
STYLE
5
11
100
AcDbSymbolTableRecord
100
AcDbTextStyleTableRecord
2
STANDARD
70
0
0
ENDTAB
0
TABLE
2
VIEW
5
6
100
AcDbSymbolTable
70
0
0
ENDTAB
0
TABLE
2
UCS
5
7
100
AcDbSymbolTable
70
0
0
ENDTAB
0
TABLE
2
APPID
5
9
100
AcDbSymbolTable
70
2
0
APPID
5
12
100
AcDbSymbolTableRecord
100
AcDbRegAppTableRecord
2
ACAD
70
0
0
ENDTAB
0
TABLE
2
DIMSTYLE
5
A
100
AcDbSymbolTable
70
1
0
ENDTAB
0
TABLE
2
BLOCK_RECORD
5
1
100
AcDbSymbolTable
70
1
0
BLOCK_RECORD
5
1F
100
AcDbSymbolTableRecord
100
AcDbBlockTableRecord
2
*MODEL_SPACE
0
BLOCK_RECORD
5
1B
100
AcDbSymbolTableRecord
100
AcDbBlockTableRecord
2
*PAPER_SPACE
0
ENDTAB
0
ENDSEC
0
SECTION
2
BLOCKS
0
BLOCK
5
20
100
AcDbEntity
100
AcDbBlockBegin
2
*MODEL_SPACE
0
ENDBLK
5
21
100
AcDbEntity
100
AcDbBlockEnd
0
BLOCK
5
1C
100
AcDbEntity
100
AcDbBlockBegin
2
*PAPER_SPACE
0
ENDBLK
5
1D
100
AcDbEntity
100
AcDbBlockEnd
0
ENDSEC
0
SECTION
2
ENTITIES
0
LWPOLYLINE
5
100
100
AcDbEntity
8
0
100
AcDbPolyline
90
4
70
1
43
0.0
10
20.798749867938852
20
-21.19317417626948
10
19.005512704124119
20
-23.343592850461334
10
16.31748936138419
20
-21.10204639569276
10
18.110726525199063
20
-18.951627721500856
0
CIRCLE
5
101
100
AcDbEntity
8
0
100
AcDbCircle
10
18.558119614661692
20
-21.147610285981241
30
0
40
1.4000000000000259
210
0
220
-0
230
1
0
LINE
5
102
100
AcDbEntity
8
0
100
AcDbLine
10
17.214107943291545
20
-20.026837058596865
30
0
11
19.902131286031405
21
-22.268383513365478
31
0
0
LWPOLYLINE
5
103
100
AcDbEntity
8
0
100
AcDbPolyline
90
4
70
1
43
0.0
10
8.8316667178684618
20
-11.21380666764534
10
7.0384295540535069
20
-13.364225341837416
10
9.7264528967935249
20
-15.605771796605799
10
11.519690060608326
20
-13.455353122413857
0
CIRCLE
5
104
100
AcDbEntity
8
0
100
AcDbCircle
10
9.2790598073308015
20
-13.409789232125496
30
0
40
1.3999999999999986
210
0
220
-0
230
1
0
LINE
5
105
100
AcDbEntity
8
0
100
AcDbLine
10
7.935048135960967
20
-12.289016004741228
30
0
11
10.623071478700805
21
-14.530562459509726
31
0
0
LWPOLYLINE
5
106
100
AcDbEntity
8
0
100
AcDbPolyline
90
4
70
1
43
0.0
10
-9.7264528967935462
20
-15.605771796605833
10
-11.519690060608356
20
-13.455353122413898
10
-8.8316667178684973
20
-11.21380666764537
10
-7.0384295540535362
20
-13.364225341837441
0
CIRCLE
5
107
100
AcDbEntity
8
0
100
AcDbCircle
10
-9.2790598073308299
20
-13.409789232125526
30
0
40
1.3999999999999986
210
0
220
-0
230
1
0
LINE
5
108
100
AcDbEntity
8
0
100
AcDbLine
10
-7.9350481359610008
20
-12.289016004741256
30
0
11
-10.623071478700831
21
-14.530562459509762
31
0
0
LWPOLYLINE
5
109
100
AcDbEntity
8
0
100
AcDbPolyline
90
4
70
1
43
0.0
10
-20.798749867938859
20
-21.193174176269551
10
-19.005512704124115
20
-23.343592850461398
10
-16.317489361384197
20
-21.102046395692817
10
-18.110726525199073
20
-18.951627721500916
0
CIRCLE
5
110
100
AcDbEntity
8
0
100
AcDbCircle
10
-18.558119614661695
20
-21.147610285981301
30
0
40
1.4000000000000259
210
0
220
-0
230
1
0
LINE
5
111
100
AcDbEntity
8
0
100
AcDbLine
10
-17.214107943291552
20
-20.026837058596922
30
0
11
-19.902131286031405
21
-22.268383513365542
31
0
0
LWPOLYLINE
5
112
100
AcDbEntity
8
0
100
AcDbPolyline
90
4
70
1
43
0.0
10
-1.7500000000000202
20
-7.071968178269282
10
1.7499999999999802
20
-7.071968178269282
10
1.7499999999999796
20
-4.2719681782687458
10
-1.7500000000000213
20
-4.2719681782692822
0
CIRCLE
5
113
100
AcDbEntity
8
0
100
AcDbCircle
10
-1.9984014443252818e-14
20
-5.6719681782697506
30
0
40
1.4000000000000001
210
0
220
-0
230
1
0
LINE
5
114
100
AcDbEntity
8
0
100
AcDbLine
10
1.74999999999998
20
-5.6719681782690126
30
0
11
-1.7500000000000209
21
-5.6719681782692808
31
0
0
LWPOLYLINE
5
115
100
AcDbEntity
8
0
100
AcDbPolyline
90
4
70
1
43
0.0
10
-10.724140359075665
20
2.0945790869483254
10
-13.325890816341932
20
4.4357101294392649
10
-11.452985982349229
20
6.5171104952522585
10
-8.8512355250829327
20
4.1759794527613634
0
LINE
5
116
100
AcDbEntity
8
0
100
AcDbLine
10
-9.7876879420792946
20
3.1352792698548759
30
0
11
-12.389438399345583
21
5.4764103123457666
31
0
0
CIRCLE
5
117
100
AcDbEntity
8
0
100
AcDbCircle
10
-11.088563170712426
20
4.3058447911003253
30
0
40
1.4000000000000132
210
0
220
-0
230
1
0
CIRCLE
5
118
100
AcDbEntity
8
0
100
AcDbCircle
10
-22.177126341425058
20
14.283657760469563
30
0
40
1.4000000000000314
210
0
220
-0
230
1
0
LINE
5
119
100
AcDbEntity
8
0
100
AcDbLine
10
-19.939798695796085
20
14.153792422130705
30
0
11
-22.541549153062444
21
16.494923464621515
31
0
0
LINE
5
120
100
AcDbEntity
8
0
100
AcDbLine
10
-22.541549153062444
20
16.494923464621515
30
0
11
-24.414453987055111
21
14.413523098808394
31
0
0
LINE
5
121
100
AcDbEntity
8
0
100
AcDbLine
10
-24.414453987055111
20
14.413523098808394
30
0
11
-21.812703529788749
21
12.072392056317602
31
0
0
LINE
5
122
100
AcDbEntity
8
0
100
AcDbLine
10
-21.812703529788749
20
12.072392056317602
30
0
11
-19.939798695796085
21
14.153792422130705
31
0
0
LINE
5
123
100
AcDbEntity
8
0
100
AcDbLine
10
-20.87625111279241
20
13.113092239224148
30
0
11
-23.478001570058797
21
15.454223281714949
31
0
0
LINE
5
124
100
AcDbEntity
8
0
100
AcDbLine
10
9.7876879420792111
20
3.1352792698549092
30
0
11
12.38943839934549
21
5.4764103123458057
31
0
0
CIRCLE
5
125
100
AcDbEntity
8
0
100
AcDbCircle
10
11.088563170712337
20
4.3058447911003617
30
0
40
1.4000000000000132
210
0
220
-0
230
1
0
LWPOLYLINE
5
126
100
AcDbEntity
8
0
100
AcDbPolyline
90
4
70
1
43
0.0
10
13.325890816341843
20
4.4357101294393093
10
11.45298598234913
20
6.5171104952523002
10
8.8512355250828438
20
4.1759794527613909
10
10.724140359075584
20
2.0945790869483605
0
LINE
5
127
100
AcDbEntity
8
0
100
AcDbLine
10
20.876251112792286
20
13.113092239224223
30
0
11
23.478001570058666
21
15.454223281715029
31
0
0
CIRCLE
5
128
100
AcDbEntity
8
0
100
AcDbCircle
10
22.177126341424934
20
14.283657760469641
30
0
40
1.4000000000000314
210
0
220
-0
230
1
0
LINE
5
129
100
AcDbEntity
8
0
100
AcDbLine
10
19.939798695795965
20
14.15379242213077
30
0
11
22.541549153062309
21
16.494923464621593
31
0
0
LINE
5
130
100
AcDbEntity
8
0
100
AcDbLine
10
22.541549153062309
20
16.494923464621593
30
0
11
24.414453987054987
21
14.413523098808476
31
0
0
LINE
5
131
100
AcDbEntity
8
0
100
AcDbLine
10
24.414453987054987
20
14.413523098808476
30
0
11
21.812703529788635
21
12.072392056317678
31
0
0
LINE
5
132
100
AcDbEntity
8
0
100
AcDbLine
10
21.812703529788635
20
12.072392056317678
30
0
11
19.939798695795965
21
14.15379242213077
31
0
0
ENDSEC
0
SECTION
2
OBJECTS
0
DICTIONARY
5
C
100
AcDbDictionary
3
ACAD_GROUP
350
D
3
ACAD_MLINESTYLE
350
17
0
DICTIONARY
5
D
100
AcDbDictionary
0
DICTIONARY
5
1A
330
C
100
AcDbDictionary
0
DICTIONARY
5
17
100
AcDbDictionary
0
ENDSEC
0
EOF
